%TF.GenerationSoftware,KiCad,Pcbnew,(5.1.6)-1*%
%TF.CreationDate,2020-09-29T22:59:59+05:30*%
%TF.ProjectId,GettingToBlinky5.0,47657474-696e-4675-946f-426c696e6b79,rev?*%
%TF.SameCoordinates,Original*%
%TF.FileFunction,Legend,Top*%
%TF.FilePolarity,Positive*%
%FSLAX46Y46*%
G04 Gerber Fmt 4.6, Leading zero omitted, Abs format (unit mm)*
G04 Created by KiCad (PCBNEW (5.1.6)-1) date 2020-09-29 22:59:59*
%MOMM*%
%LPD*%
G01*
G04 APERTURE LIST*
%ADD10C,0.150000*%
%ADD11C,0.120000*%
G04 APERTURE END LIST*
D10*
X159380952Y-118988095D02*
X159380952Y-117688095D01*
X159814285Y-118616666D01*
X160247619Y-117688095D01*
X160247619Y-118988095D01*
X161423809Y-118988095D02*
X161423809Y-118307142D01*
X161361904Y-118183333D01*
X161238095Y-118121428D01*
X160990476Y-118121428D01*
X160866666Y-118183333D01*
X161423809Y-118926190D02*
X161300000Y-118988095D01*
X160990476Y-118988095D01*
X160866666Y-118926190D01*
X160804761Y-118802380D01*
X160804761Y-118678571D01*
X160866666Y-118554761D01*
X160990476Y-118492857D01*
X161300000Y-118492857D01*
X161423809Y-118430952D01*
X162600000Y-118988095D02*
X162600000Y-117688095D01*
X162600000Y-118926190D02*
X162476190Y-118988095D01*
X162228571Y-118988095D01*
X162104761Y-118926190D01*
X162042857Y-118864285D01*
X161980952Y-118740476D01*
X161980952Y-118369047D01*
X162042857Y-118245238D01*
X162104761Y-118183333D01*
X162228571Y-118121428D01*
X162476190Y-118121428D01*
X162600000Y-118183333D01*
X163714285Y-118926190D02*
X163590476Y-118988095D01*
X163342857Y-118988095D01*
X163219047Y-118926190D01*
X163157142Y-118802380D01*
X163157142Y-118307142D01*
X163219047Y-118183333D01*
X163342857Y-118121428D01*
X163590476Y-118121428D01*
X163714285Y-118183333D01*
X163776190Y-118307142D01*
X163776190Y-118430952D01*
X163157142Y-118554761D01*
X165323809Y-118988095D02*
X165323809Y-117688095D01*
X165323809Y-118183333D02*
X165447619Y-118121428D01*
X165695238Y-118121428D01*
X165819047Y-118183333D01*
X165880952Y-118245238D01*
X165942857Y-118369047D01*
X165942857Y-118740476D01*
X165880952Y-118864285D01*
X165819047Y-118926190D01*
X165695238Y-118988095D01*
X165447619Y-118988095D01*
X165323809Y-118926190D01*
X166376190Y-118121428D02*
X166685714Y-118988095D01*
X166995238Y-118121428D02*
X166685714Y-118988095D01*
X166561904Y-119297619D01*
X166500000Y-119359523D01*
X166376190Y-119421428D01*
X168480952Y-118988095D02*
X168480952Y-117688095D01*
X168480952Y-118307142D02*
X169223809Y-118307142D01*
X169223809Y-118988095D02*
X169223809Y-117688095D01*
X170400000Y-118988095D02*
X170400000Y-118307142D01*
X170338095Y-118183333D01*
X170214285Y-118121428D01*
X169966666Y-118121428D01*
X169842857Y-118183333D01*
X170400000Y-118926190D02*
X170276190Y-118988095D01*
X169966666Y-118988095D01*
X169842857Y-118926190D01*
X169780952Y-118802380D01*
X169780952Y-118678571D01*
X169842857Y-118554761D01*
X169966666Y-118492857D01*
X170276190Y-118492857D01*
X170400000Y-118430952D01*
X171019047Y-118988095D02*
X171019047Y-118121428D01*
X171019047Y-118369047D02*
X171080952Y-118245238D01*
X171142857Y-118183333D01*
X171266666Y-118121428D01*
X171390476Y-118121428D01*
X171823809Y-118988095D02*
X171823809Y-118121428D01*
X171823809Y-117688095D02*
X171761904Y-117750000D01*
X171823809Y-117811904D01*
X171885714Y-117750000D01*
X171823809Y-117688095D01*
X171823809Y-117811904D01*
X172442857Y-118988095D02*
X172442857Y-117688095D01*
X172566666Y-118492857D02*
X172938095Y-118988095D01*
X172938095Y-118121428D02*
X172442857Y-118616666D01*
X173990476Y-118926190D02*
X173866666Y-118988095D01*
X173619047Y-118988095D01*
X173495238Y-118926190D01*
X173433333Y-118802380D01*
X173433333Y-118307142D01*
X173495238Y-118183333D01*
X173619047Y-118121428D01*
X173866666Y-118121428D01*
X173990476Y-118183333D01*
X174052380Y-118307142D01*
X174052380Y-118430952D01*
X173433333Y-118554761D01*
X174547619Y-118926190D02*
X174671428Y-118988095D01*
X174919047Y-118988095D01*
X175042857Y-118926190D01*
X175104761Y-118802380D01*
X175104761Y-118740476D01*
X175042857Y-118616666D01*
X174919047Y-118554761D01*
X174733333Y-118554761D01*
X174609523Y-118492857D01*
X174547619Y-118369047D01*
X174547619Y-118307142D01*
X174609523Y-118183333D01*
X174733333Y-118121428D01*
X174919047Y-118121428D01*
X175042857Y-118183333D01*
X175661904Y-118988095D02*
X175661904Y-117688095D01*
X176219047Y-118988095D02*
X176219047Y-118307142D01*
X176157142Y-118183333D01*
X176033333Y-118121428D01*
X175847619Y-118121428D01*
X175723809Y-118183333D01*
X175661904Y-118245238D01*
X158528571Y-94550000D02*
X158404761Y-94488095D01*
X158219047Y-94488095D01*
X158033333Y-94550000D01*
X157909523Y-94673809D01*
X157847619Y-94797619D01*
X157785714Y-95045238D01*
X157785714Y-95230952D01*
X157847619Y-95478571D01*
X157909523Y-95602380D01*
X158033333Y-95726190D01*
X158219047Y-95788095D01*
X158342857Y-95788095D01*
X158528571Y-95726190D01*
X158590476Y-95664285D01*
X158590476Y-95230952D01*
X158342857Y-95230952D01*
X159642857Y-95726190D02*
X159519047Y-95788095D01*
X159271428Y-95788095D01*
X159147619Y-95726190D01*
X159085714Y-95602380D01*
X159085714Y-95107142D01*
X159147619Y-94983333D01*
X159271428Y-94921428D01*
X159519047Y-94921428D01*
X159642857Y-94983333D01*
X159704761Y-95107142D01*
X159704761Y-95230952D01*
X159085714Y-95354761D01*
X160076190Y-94921428D02*
X160571428Y-94921428D01*
X160261904Y-94488095D02*
X160261904Y-95602380D01*
X160323809Y-95726190D01*
X160447619Y-95788095D01*
X160571428Y-95788095D01*
X160819047Y-94921428D02*
X161314285Y-94921428D01*
X161004761Y-94488095D02*
X161004761Y-95602380D01*
X161066666Y-95726190D01*
X161190476Y-95788095D01*
X161314285Y-95788095D01*
X161747619Y-95788095D02*
X161747619Y-94921428D01*
X161747619Y-94488095D02*
X161685714Y-94550000D01*
X161747619Y-94611904D01*
X161809523Y-94550000D01*
X161747619Y-94488095D01*
X161747619Y-94611904D01*
X162366666Y-94921428D02*
X162366666Y-95788095D01*
X162366666Y-95045238D02*
X162428571Y-94983333D01*
X162552380Y-94921428D01*
X162738095Y-94921428D01*
X162861904Y-94983333D01*
X162923809Y-95107142D01*
X162923809Y-95788095D01*
X164100000Y-94921428D02*
X164100000Y-95973809D01*
X164038095Y-96097619D01*
X163976190Y-96159523D01*
X163852380Y-96221428D01*
X163666666Y-96221428D01*
X163542857Y-96159523D01*
X164100000Y-95726190D02*
X163976190Y-95788095D01*
X163728571Y-95788095D01*
X163604761Y-95726190D01*
X163542857Y-95664285D01*
X163480952Y-95540476D01*
X163480952Y-95169047D01*
X163542857Y-95045238D01*
X163604761Y-94983333D01*
X163728571Y-94921428D01*
X163976190Y-94921428D01*
X164100000Y-94983333D01*
X165523809Y-94488095D02*
X166266666Y-94488095D01*
X165895238Y-95788095D02*
X165895238Y-94488095D01*
X166885714Y-95788095D02*
X166761904Y-95726190D01*
X166700000Y-95664285D01*
X166638095Y-95540476D01*
X166638095Y-95169047D01*
X166700000Y-95045238D01*
X166761904Y-94983333D01*
X166885714Y-94921428D01*
X167071428Y-94921428D01*
X167195238Y-94983333D01*
X167257142Y-95045238D01*
X167319047Y-95169047D01*
X167319047Y-95540476D01*
X167257142Y-95664285D01*
X167195238Y-95726190D01*
X167071428Y-95788095D01*
X166885714Y-95788095D01*
X169300000Y-95107142D02*
X169485714Y-95169047D01*
X169547619Y-95230952D01*
X169609523Y-95354761D01*
X169609523Y-95540476D01*
X169547619Y-95664285D01*
X169485714Y-95726190D01*
X169361904Y-95788095D01*
X168866666Y-95788095D01*
X168866666Y-94488095D01*
X169300000Y-94488095D01*
X169423809Y-94550000D01*
X169485714Y-94611904D01*
X169547619Y-94735714D01*
X169547619Y-94859523D01*
X169485714Y-94983333D01*
X169423809Y-95045238D01*
X169300000Y-95107142D01*
X168866666Y-95107142D01*
X170352380Y-95788095D02*
X170228571Y-95726190D01*
X170166666Y-95602380D01*
X170166666Y-94488095D01*
X170847619Y-95788095D02*
X170847619Y-94921428D01*
X170847619Y-94488095D02*
X170785714Y-94550000D01*
X170847619Y-94611904D01*
X170909523Y-94550000D01*
X170847619Y-94488095D01*
X170847619Y-94611904D01*
X171466666Y-94921428D02*
X171466666Y-95788095D01*
X171466666Y-95045238D02*
X171528571Y-94983333D01*
X171652380Y-94921428D01*
X171838095Y-94921428D01*
X171961904Y-94983333D01*
X172023809Y-95107142D01*
X172023809Y-95788095D01*
X172642857Y-95788095D02*
X172642857Y-94488095D01*
X172766666Y-95292857D02*
X173138095Y-95788095D01*
X173138095Y-94921428D02*
X172642857Y-95416666D01*
X173571428Y-94921428D02*
X173880952Y-95788095D01*
X174190476Y-94921428D02*
X173880952Y-95788095D01*
X173757142Y-96097619D01*
X173695238Y-96159523D01*
X173571428Y-96221428D01*
X176295238Y-94488095D02*
X175676190Y-94488095D01*
X175614285Y-95107142D01*
X175676190Y-95045238D01*
X175799999Y-94983333D01*
X176109523Y-94983333D01*
X176233333Y-95045238D01*
X176295238Y-95107142D01*
X176357142Y-95230952D01*
X176357142Y-95540476D01*
X176295238Y-95664285D01*
X176233333Y-95726190D01*
X176109523Y-95788095D01*
X175799999Y-95788095D01*
X175676190Y-95726190D01*
X175614285Y-95664285D01*
X176914285Y-95664285D02*
X176976190Y-95726190D01*
X176914285Y-95788095D01*
X176852380Y-95726190D01*
X176914285Y-95664285D01*
X176914285Y-95788095D01*
X177780952Y-94488095D02*
X177904761Y-94488095D01*
X178028571Y-94550000D01*
X178090476Y-94611904D01*
X178152380Y-94735714D01*
X178214285Y-94983333D01*
X178214285Y-95292857D01*
X178152380Y-95540476D01*
X178090476Y-95664285D01*
X178028571Y-95726190D01*
X177904761Y-95788095D01*
X177780952Y-95788095D01*
X177657142Y-95726190D01*
X177595238Y-95664285D01*
X177533333Y-95540476D01*
X177471428Y-95292857D01*
X177471428Y-94983333D01*
X177533333Y-94735714D01*
X177595238Y-94611904D01*
X177657142Y-94550000D01*
X177780952Y-94488095D01*
D11*
%TO.C,U1*%
X167000000Y-103940000D02*
X163550000Y-103940000D01*
X167000000Y-103940000D02*
X168950000Y-103940000D01*
X167000000Y-109060000D02*
X165050000Y-109060000D01*
X167000000Y-109060000D02*
X168950000Y-109060000D01*
%TO.C,R3*%
X161210000Y-108238748D02*
X161210000Y-108761252D01*
X159790000Y-108238748D02*
X159790000Y-108761252D01*
%TO.C,R2*%
X174210000Y-109238748D02*
X174210000Y-109761252D01*
X172790000Y-109238748D02*
X172790000Y-109761252D01*
%TO.C,R1*%
X174210000Y-105263748D02*
X174210000Y-105786252D01*
X172790000Y-105263748D02*
X172790000Y-105786252D01*
%TO.C,D1*%
X159540000Y-111525000D02*
X159540000Y-114385000D01*
X159540000Y-114385000D02*
X161460000Y-114385000D01*
X161460000Y-114385000D02*
X161460000Y-111525000D01*
%TO.C,C1*%
X159790000Y-104761252D02*
X159790000Y-104238748D01*
X161210000Y-104761252D02*
X161210000Y-104238748D01*
%TO.C,U1*%
D10*
X166009523Y-102188095D02*
X166009523Y-103240476D01*
X166071428Y-103364285D01*
X166133333Y-103426190D01*
X166257142Y-103488095D01*
X166504761Y-103488095D01*
X166628571Y-103426190D01*
X166690476Y-103364285D01*
X166752380Y-103240476D01*
X166752380Y-102188095D01*
X168052380Y-103488095D02*
X167309523Y-103488095D01*
X167680952Y-103488095D02*
X167680952Y-102188095D01*
X167557142Y-102373809D01*
X167433333Y-102497619D01*
X167309523Y-102559523D01*
%TO.C,R3*%
X159088095Y-108716666D02*
X158469047Y-109150000D01*
X159088095Y-109459523D02*
X157788095Y-109459523D01*
X157788095Y-108964285D01*
X157850000Y-108840476D01*
X157911904Y-108778571D01*
X158035714Y-108716666D01*
X158221428Y-108716666D01*
X158345238Y-108778571D01*
X158407142Y-108840476D01*
X158469047Y-108964285D01*
X158469047Y-109459523D01*
X157788095Y-108283333D02*
X157788095Y-107478571D01*
X158283333Y-107911904D01*
X158283333Y-107726190D01*
X158345238Y-107602380D01*
X158407142Y-107540476D01*
X158530952Y-107478571D01*
X158840476Y-107478571D01*
X158964285Y-107540476D01*
X159026190Y-107602380D01*
X159088095Y-107726190D01*
X159088095Y-108097619D01*
X159026190Y-108221428D01*
X158964285Y-108283333D01*
%TO.C,R2*%
X176188095Y-109716666D02*
X175569047Y-110150000D01*
X176188095Y-110459523D02*
X174888095Y-110459523D01*
X174888095Y-109964285D01*
X174950000Y-109840476D01*
X175011904Y-109778571D01*
X175135714Y-109716666D01*
X175321428Y-109716666D01*
X175445238Y-109778571D01*
X175507142Y-109840476D01*
X175569047Y-109964285D01*
X175569047Y-110459523D01*
X175011904Y-109221428D02*
X174950000Y-109159523D01*
X174888095Y-109035714D01*
X174888095Y-108726190D01*
X174950000Y-108602380D01*
X175011904Y-108540476D01*
X175135714Y-108478571D01*
X175259523Y-108478571D01*
X175445238Y-108540476D01*
X176188095Y-109283333D01*
X176188095Y-108478571D01*
%TO.C,R1*%
X176188095Y-105716666D02*
X175569047Y-106150000D01*
X176188095Y-106459523D02*
X174888095Y-106459523D01*
X174888095Y-105964285D01*
X174950000Y-105840476D01*
X175011904Y-105778571D01*
X175135714Y-105716666D01*
X175321428Y-105716666D01*
X175445238Y-105778571D01*
X175507142Y-105840476D01*
X175569047Y-105964285D01*
X175569047Y-106459523D01*
X176188095Y-104478571D02*
X176188095Y-105221428D01*
X176188095Y-104850000D02*
X174888095Y-104850000D01*
X175073809Y-104973809D01*
X175197619Y-105097619D01*
X175259523Y-105221428D01*
%TO.C,D1*%
X159088095Y-113459523D02*
X157788095Y-113459523D01*
X157788095Y-113150000D01*
X157850000Y-112964285D01*
X157973809Y-112840476D01*
X158097619Y-112778571D01*
X158345238Y-112716666D01*
X158530952Y-112716666D01*
X158778571Y-112778571D01*
X158902380Y-112840476D01*
X159026190Y-112964285D01*
X159088095Y-113150000D01*
X159088095Y-113459523D01*
X159088095Y-111478571D02*
X159088095Y-112221428D01*
X159088095Y-111850000D02*
X157788095Y-111850000D01*
X157973809Y-111973809D01*
X158097619Y-112097619D01*
X158159523Y-112221428D01*
%TO.C,C1*%
X158964285Y-104716666D02*
X159026190Y-104778571D01*
X159088095Y-104964285D01*
X159088095Y-105088095D01*
X159026190Y-105273809D01*
X158902380Y-105397619D01*
X158778571Y-105459523D01*
X158530952Y-105521428D01*
X158345238Y-105521428D01*
X158097619Y-105459523D01*
X157973809Y-105397619D01*
X157850000Y-105273809D01*
X157788095Y-105088095D01*
X157788095Y-104964285D01*
X157850000Y-104778571D01*
X157911904Y-104716666D01*
X159088095Y-103478571D02*
X159088095Y-104221428D01*
X159088095Y-103850000D02*
X157788095Y-103850000D01*
X157973809Y-103973809D01*
X158097619Y-104097619D01*
X158159523Y-104221428D01*
%TD*%
M02*
