%TF.GenerationSoftware,KiCad,Pcbnew,(5.1.6)-1*%
%TF.CreationDate,2020-09-29T22:59:59+05:30*%
%TF.ProjectId,GettingToBlinky5.0,47657474-696e-4675-946f-426c696e6b79,rev?*%
%TF.SameCoordinates,Original*%
%TF.FileFunction,Copper,L1,Top*%
%TF.FilePolarity,Positive*%
%FSLAX46Y46*%
G04 Gerber Fmt 4.6, Leading zero omitted, Abs format (unit mm)*
G04 Created by KiCad (PCBNEW (5.1.6)-1) date 2020-09-29 22:59:59*
%MOMM*%
%LPD*%
G01*
G04 APERTURE LIST*
%TA.AperFunction,ViaPad*%
%ADD10C,0.800000*%
%TD*%
%TA.AperFunction,Conductor*%
%ADD11C,0.250000*%
%TD*%
G04 APERTURE END LIST*
%TO.P,U1,1*%
%TO.N,GND*%
%TA.AperFunction,SMDPad,CuDef*%
G36*
G01*
X163550000Y-104745000D02*
X163550000Y-104445000D01*
G75*
G02*
X163700000Y-104295000I150000J0D01*
G01*
X165350000Y-104295000D01*
G75*
G02*
X165500000Y-104445000I0J-150000D01*
G01*
X165500000Y-104745000D01*
G75*
G02*
X165350000Y-104895000I-150000J0D01*
G01*
X163700000Y-104895000D01*
G75*
G02*
X163550000Y-104745000I0J150000D01*
G01*
G37*
%TD.AperFunction*%
%TO.P,U1,2*%
%TO.N,Net-(C1-Pad1)*%
%TA.AperFunction,SMDPad,CuDef*%
G36*
G01*
X163550000Y-106015000D02*
X163550000Y-105715000D01*
G75*
G02*
X163700000Y-105565000I150000J0D01*
G01*
X165350000Y-105565000D01*
G75*
G02*
X165500000Y-105715000I0J-150000D01*
G01*
X165500000Y-106015000D01*
G75*
G02*
X165350000Y-106165000I-150000J0D01*
G01*
X163700000Y-106165000D01*
G75*
G02*
X163550000Y-106015000I0J150000D01*
G01*
G37*
%TD.AperFunction*%
%TO.P,U1,3*%
%TO.N,Net-(R3-Pad1)*%
%TA.AperFunction,SMDPad,CuDef*%
G36*
G01*
X163550000Y-107285000D02*
X163550000Y-106985000D01*
G75*
G02*
X163700000Y-106835000I150000J0D01*
G01*
X165350000Y-106835000D01*
G75*
G02*
X165500000Y-106985000I0J-150000D01*
G01*
X165500000Y-107285000D01*
G75*
G02*
X165350000Y-107435000I-150000J0D01*
G01*
X163700000Y-107435000D01*
G75*
G02*
X163550000Y-107285000I0J150000D01*
G01*
G37*
%TD.AperFunction*%
%TO.P,U1,4*%
%TO.N,Net-(BT1-Pad1)*%
%TA.AperFunction,SMDPad,CuDef*%
G36*
G01*
X163550000Y-108555000D02*
X163550000Y-108255000D01*
G75*
G02*
X163700000Y-108105000I150000J0D01*
G01*
X165350000Y-108105000D01*
G75*
G02*
X165500000Y-108255000I0J-150000D01*
G01*
X165500000Y-108555000D01*
G75*
G02*
X165350000Y-108705000I-150000J0D01*
G01*
X163700000Y-108705000D01*
G75*
G02*
X163550000Y-108555000I0J150000D01*
G01*
G37*
%TD.AperFunction*%
%TO.P,U1,5*%
%TO.N,Net-(U1-Pad5)*%
%TA.AperFunction,SMDPad,CuDef*%
G36*
G01*
X168500000Y-108555000D02*
X168500000Y-108255000D01*
G75*
G02*
X168650000Y-108105000I150000J0D01*
G01*
X170300000Y-108105000D01*
G75*
G02*
X170450000Y-108255000I0J-150000D01*
G01*
X170450000Y-108555000D01*
G75*
G02*
X170300000Y-108705000I-150000J0D01*
G01*
X168650000Y-108705000D01*
G75*
G02*
X168500000Y-108555000I0J150000D01*
G01*
G37*
%TD.AperFunction*%
%TO.P,U1,6*%
%TO.N,Net-(C1-Pad1)*%
%TA.AperFunction,SMDPad,CuDef*%
G36*
G01*
X168500000Y-107285000D02*
X168500000Y-106985000D01*
G75*
G02*
X168650000Y-106835000I150000J0D01*
G01*
X170300000Y-106835000D01*
G75*
G02*
X170450000Y-106985000I0J-150000D01*
G01*
X170450000Y-107285000D01*
G75*
G02*
X170300000Y-107435000I-150000J0D01*
G01*
X168650000Y-107435000D01*
G75*
G02*
X168500000Y-107285000I0J150000D01*
G01*
G37*
%TD.AperFunction*%
%TO.P,U1,7*%
%TO.N,Net-(R1-Pad2)*%
%TA.AperFunction,SMDPad,CuDef*%
G36*
G01*
X168500000Y-106015000D02*
X168500000Y-105715000D01*
G75*
G02*
X168650000Y-105565000I150000J0D01*
G01*
X170300000Y-105565000D01*
G75*
G02*
X170450000Y-105715000I0J-150000D01*
G01*
X170450000Y-106015000D01*
G75*
G02*
X170300000Y-106165000I-150000J0D01*
G01*
X168650000Y-106165000D01*
G75*
G02*
X168500000Y-106015000I0J150000D01*
G01*
G37*
%TD.AperFunction*%
%TO.P,U1,8*%
%TO.N,Net-(BT1-Pad1)*%
%TA.AperFunction,SMDPad,CuDef*%
G36*
G01*
X168500000Y-104745000D02*
X168500000Y-104445000D01*
G75*
G02*
X168650000Y-104295000I150000J0D01*
G01*
X170300000Y-104295000D01*
G75*
G02*
X170450000Y-104445000I0J-150000D01*
G01*
X170450000Y-104745000D01*
G75*
G02*
X170300000Y-104895000I-150000J0D01*
G01*
X168650000Y-104895000D01*
G75*
G02*
X168500000Y-104745000I0J150000D01*
G01*
G37*
%TD.AperFunction*%
%TD*%
%TO.P,R3,2*%
%TO.N,Net-(D1-Pad2)*%
%TA.AperFunction,SMDPad,CuDef*%
G36*
G01*
X160049999Y-108950000D02*
X160950001Y-108950000D01*
G75*
G02*
X161200000Y-109199999I0J-249999D01*
G01*
X161200000Y-109850001D01*
G75*
G02*
X160950001Y-110100000I-249999J0D01*
G01*
X160049999Y-110100000D01*
G75*
G02*
X159800000Y-109850001I0J249999D01*
G01*
X159800000Y-109199999D01*
G75*
G02*
X160049999Y-108950000I249999J0D01*
G01*
G37*
%TD.AperFunction*%
%TO.P,R3,1*%
%TO.N,Net-(R3-Pad1)*%
%TA.AperFunction,SMDPad,CuDef*%
G36*
G01*
X160049999Y-106900000D02*
X160950001Y-106900000D01*
G75*
G02*
X161200000Y-107149999I0J-249999D01*
G01*
X161200000Y-107800001D01*
G75*
G02*
X160950001Y-108050000I-249999J0D01*
G01*
X160049999Y-108050000D01*
G75*
G02*
X159800000Y-107800001I0J249999D01*
G01*
X159800000Y-107149999D01*
G75*
G02*
X160049999Y-106900000I249999J0D01*
G01*
G37*
%TD.AperFunction*%
%TD*%
%TO.P,R2,2*%
%TO.N,Net-(C1-Pad1)*%
%TA.AperFunction,SMDPad,CuDef*%
G36*
G01*
X173049999Y-109950000D02*
X173950001Y-109950000D01*
G75*
G02*
X174200000Y-110199999I0J-249999D01*
G01*
X174200000Y-110850001D01*
G75*
G02*
X173950001Y-111100000I-249999J0D01*
G01*
X173049999Y-111100000D01*
G75*
G02*
X172800000Y-110850001I0J249999D01*
G01*
X172800000Y-110199999D01*
G75*
G02*
X173049999Y-109950000I249999J0D01*
G01*
G37*
%TD.AperFunction*%
%TO.P,R2,1*%
%TO.N,Net-(R1-Pad2)*%
%TA.AperFunction,SMDPad,CuDef*%
G36*
G01*
X173049999Y-107900000D02*
X173950001Y-107900000D01*
G75*
G02*
X174200000Y-108149999I0J-249999D01*
G01*
X174200000Y-108800001D01*
G75*
G02*
X173950001Y-109050000I-249999J0D01*
G01*
X173049999Y-109050000D01*
G75*
G02*
X172800000Y-108800001I0J249999D01*
G01*
X172800000Y-108149999D01*
G75*
G02*
X173049999Y-107900000I249999J0D01*
G01*
G37*
%TD.AperFunction*%
%TD*%
%TO.P,R1,2*%
%TO.N,Net-(R1-Pad2)*%
%TA.AperFunction,SMDPad,CuDef*%
G36*
G01*
X173049999Y-105975000D02*
X173950001Y-105975000D01*
G75*
G02*
X174200000Y-106224999I0J-249999D01*
G01*
X174200000Y-106875001D01*
G75*
G02*
X173950001Y-107125000I-249999J0D01*
G01*
X173049999Y-107125000D01*
G75*
G02*
X172800000Y-106875001I0J249999D01*
G01*
X172800000Y-106224999D01*
G75*
G02*
X173049999Y-105975000I249999J0D01*
G01*
G37*
%TD.AperFunction*%
%TO.P,R1,1*%
%TO.N,Net-(BT1-Pad1)*%
%TA.AperFunction,SMDPad,CuDef*%
G36*
G01*
X173049999Y-103925000D02*
X173950001Y-103925000D01*
G75*
G02*
X174200000Y-104174999I0J-249999D01*
G01*
X174200000Y-104825001D01*
G75*
G02*
X173950001Y-105075000I-249999J0D01*
G01*
X173049999Y-105075000D01*
G75*
G02*
X172800000Y-104825001I0J249999D01*
G01*
X172800000Y-104174999D01*
G75*
G02*
X173049999Y-103925000I249999J0D01*
G01*
G37*
%TD.AperFunction*%
%TD*%
%TO.P,D1,2*%
%TO.N,Net-(D1-Pad2)*%
%TA.AperFunction,SMDPad,CuDef*%
G36*
G01*
X160950001Y-112075000D02*
X160049999Y-112075000D01*
G75*
G02*
X159800000Y-111825001I0J249999D01*
G01*
X159800000Y-111174999D01*
G75*
G02*
X160049999Y-110925000I249999J0D01*
G01*
X160950001Y-110925000D01*
G75*
G02*
X161200000Y-111174999I0J-249999D01*
G01*
X161200000Y-111825001D01*
G75*
G02*
X160950001Y-112075000I-249999J0D01*
G01*
G37*
%TD.AperFunction*%
%TO.P,D1,1*%
%TO.N,GND*%
%TA.AperFunction,SMDPad,CuDef*%
G36*
G01*
X160950001Y-114125000D02*
X160049999Y-114125000D01*
G75*
G02*
X159800000Y-113875001I0J249999D01*
G01*
X159800000Y-113224999D01*
G75*
G02*
X160049999Y-112975000I249999J0D01*
G01*
X160950001Y-112975000D01*
G75*
G02*
X161200000Y-113224999I0J-249999D01*
G01*
X161200000Y-113875001D01*
G75*
G02*
X160950001Y-114125000I-249999J0D01*
G01*
G37*
%TD.AperFunction*%
%TD*%
%TO.P,C1,2*%
%TO.N,GND*%
%TA.AperFunction,SMDPad,CuDef*%
G36*
G01*
X160950001Y-104050000D02*
X160049999Y-104050000D01*
G75*
G02*
X159800000Y-103800001I0J249999D01*
G01*
X159800000Y-103149999D01*
G75*
G02*
X160049999Y-102900000I249999J0D01*
G01*
X160950001Y-102900000D01*
G75*
G02*
X161200000Y-103149999I0J-249999D01*
G01*
X161200000Y-103800001D01*
G75*
G02*
X160950001Y-104050000I-249999J0D01*
G01*
G37*
%TD.AperFunction*%
%TO.P,C1,1*%
%TO.N,Net-(C1-Pad1)*%
%TA.AperFunction,SMDPad,CuDef*%
G36*
G01*
X160950001Y-106100000D02*
X160049999Y-106100000D01*
G75*
G02*
X159800000Y-105850001I0J249999D01*
G01*
X159800000Y-105199999D01*
G75*
G02*
X160049999Y-104950000I249999J0D01*
G01*
X160950001Y-104950000D01*
G75*
G02*
X161200000Y-105199999I0J-249999D01*
G01*
X161200000Y-105850001D01*
G75*
G02*
X160950001Y-106100000I-249999J0D01*
G01*
G37*
%TD.AperFunction*%
%TD*%
D10*
%TO.N,Net-(BT1-Pad1)*%
X154300000Y-100500000D03*
X179700000Y-100300000D03*
%TO.N,GND*%
X161000000Y-116000000D03*
X161000000Y-100000000D03*
X165000000Y-101000000D03*
%TD*%
D11*
%TO.N,Net-(BT1-Pad1)*%
X173405000Y-104595000D02*
X173500000Y-104500000D01*
X169475000Y-104595000D02*
X173405000Y-104595000D01*
%TO.N,GND*%
X160500000Y-113550000D02*
X160500000Y-115500000D01*
X160500000Y-115500000D02*
X161000000Y-116000000D01*
X160500000Y-103475000D02*
X160500000Y-100500000D01*
X160500000Y-100500000D02*
X161000000Y-100000000D01*
X164525000Y-104595000D02*
X164525000Y-101475000D01*
X164525000Y-101475000D02*
X165000000Y-101000000D01*
%TO.N,Net-(C1-Pad1)*%
X160500000Y-105525000D02*
X161725000Y-105525000D01*
X162065000Y-105865000D02*
X164525000Y-105865000D01*
X161725000Y-105525000D02*
X162065000Y-105865000D01*
X173500000Y-110185000D02*
X173500000Y-110525000D01*
X170450000Y-107135000D02*
X173500000Y-110185000D01*
X169475000Y-107135000D02*
X170450000Y-107135000D01*
X166770000Y-107135000D02*
X169475000Y-107135000D01*
X165500000Y-105865000D02*
X166770000Y-107135000D01*
X164525000Y-105865000D02*
X165500000Y-105865000D01*
%TO.N,Net-(D1-Pad2)*%
X160500000Y-109525000D02*
X160500000Y-111500000D01*
%TO.N,Net-(R1-Pad2)*%
X172815000Y-105865000D02*
X173500000Y-106550000D01*
X169475000Y-105865000D02*
X172815000Y-105865000D01*
X173500000Y-106550000D02*
X173500000Y-108475000D01*
%TO.N,Net-(R3-Pad1)*%
X160500000Y-107475000D02*
X161575000Y-107475000D01*
X161915000Y-107135000D02*
X164525000Y-107135000D01*
X161575000Y-107475000D02*
X161915000Y-107135000D01*
%TD*%
%TO.N,Net-(BT1-Pad1)*%
G36*
X182600000Y-121100000D02*
G01*
X151400000Y-121100000D01*
X151400000Y-113224999D01*
X159423186Y-113224999D01*
X159423186Y-113875001D01*
X159435230Y-113997286D01*
X159470899Y-114114872D01*
X159528823Y-114223240D01*
X159606775Y-114318225D01*
X159701760Y-114396177D01*
X159810128Y-114454101D01*
X159927714Y-114489770D01*
X160000000Y-114496890D01*
X160000001Y-115475430D01*
X159997581Y-115500000D01*
X160007235Y-115598017D01*
X160035826Y-115692267D01*
X160082255Y-115779129D01*
X160144737Y-115855264D01*
X160163819Y-115870924D01*
X160225000Y-115932105D01*
X160225000Y-116076331D01*
X160254783Y-116226059D01*
X160313204Y-116367100D01*
X160398018Y-116494034D01*
X160505966Y-116601982D01*
X160632900Y-116686796D01*
X160773941Y-116745217D01*
X160923669Y-116775000D01*
X161076331Y-116775000D01*
X161226059Y-116745217D01*
X161367100Y-116686796D01*
X161494034Y-116601982D01*
X161601982Y-116494034D01*
X161686796Y-116367100D01*
X161745217Y-116226059D01*
X161775000Y-116076331D01*
X161775000Y-115923669D01*
X161745217Y-115773941D01*
X161686796Y-115632900D01*
X161601982Y-115505966D01*
X161494034Y-115398018D01*
X161367100Y-115313204D01*
X161226059Y-115254783D01*
X161076331Y-115225000D01*
X161000000Y-115225000D01*
X161000000Y-114496890D01*
X161072286Y-114489770D01*
X161189872Y-114454101D01*
X161298240Y-114396177D01*
X161393225Y-114318225D01*
X161471177Y-114223240D01*
X161529101Y-114114872D01*
X161564770Y-113997286D01*
X161576814Y-113875001D01*
X161576814Y-113224999D01*
X161564770Y-113102714D01*
X161529101Y-112985128D01*
X161471177Y-112876760D01*
X161393225Y-112781775D01*
X161298240Y-112703823D01*
X161189872Y-112645899D01*
X161072286Y-112610230D01*
X160950001Y-112598186D01*
X160049999Y-112598186D01*
X159927714Y-112610230D01*
X159810128Y-112645899D01*
X159701760Y-112703823D01*
X159606775Y-112781775D01*
X159528823Y-112876760D01*
X159470899Y-112985128D01*
X159435230Y-113102714D01*
X159423186Y-113224999D01*
X151400000Y-113224999D01*
X151400000Y-109199999D01*
X159423186Y-109199999D01*
X159423186Y-109850001D01*
X159435230Y-109972286D01*
X159470899Y-110089872D01*
X159528823Y-110198240D01*
X159606775Y-110293225D01*
X159701760Y-110371177D01*
X159810128Y-110429101D01*
X159927714Y-110464770D01*
X160000000Y-110471890D01*
X160000001Y-110553110D01*
X159927714Y-110560230D01*
X159810128Y-110595899D01*
X159701760Y-110653823D01*
X159606775Y-110731775D01*
X159528823Y-110826760D01*
X159470899Y-110935128D01*
X159435230Y-111052714D01*
X159423186Y-111174999D01*
X159423186Y-111825001D01*
X159435230Y-111947286D01*
X159470899Y-112064872D01*
X159528823Y-112173240D01*
X159606775Y-112268225D01*
X159701760Y-112346177D01*
X159810128Y-112404101D01*
X159927714Y-112439770D01*
X160049999Y-112451814D01*
X160950001Y-112451814D01*
X161072286Y-112439770D01*
X161189872Y-112404101D01*
X161298240Y-112346177D01*
X161393225Y-112268225D01*
X161471177Y-112173240D01*
X161529101Y-112064872D01*
X161564770Y-111947286D01*
X161576814Y-111825001D01*
X161576814Y-111174999D01*
X161564770Y-111052714D01*
X161529101Y-110935128D01*
X161471177Y-110826760D01*
X161393225Y-110731775D01*
X161298240Y-110653823D01*
X161189872Y-110595899D01*
X161072286Y-110560230D01*
X161000000Y-110553110D01*
X161000000Y-110471890D01*
X161072286Y-110464770D01*
X161189872Y-110429101D01*
X161298240Y-110371177D01*
X161393225Y-110293225D01*
X161471177Y-110198240D01*
X161529101Y-110089872D01*
X161564770Y-109972286D01*
X161576814Y-109850001D01*
X161576814Y-109199999D01*
X161564770Y-109077714D01*
X161529101Y-108960128D01*
X161471177Y-108851760D01*
X161393225Y-108756775D01*
X161330137Y-108705000D01*
X163122944Y-108705000D01*
X163131150Y-108788314D01*
X163155452Y-108868427D01*
X163194916Y-108942260D01*
X163248026Y-109006974D01*
X163312740Y-109060084D01*
X163386573Y-109099548D01*
X163466686Y-109123850D01*
X163550000Y-109132056D01*
X164243750Y-109130000D01*
X164350000Y-109023750D01*
X164350000Y-108580000D01*
X164700000Y-108580000D01*
X164700000Y-109023750D01*
X164806250Y-109130000D01*
X165500000Y-109132056D01*
X165583314Y-109123850D01*
X165663427Y-109099548D01*
X165737260Y-109060084D01*
X165801974Y-109006974D01*
X165855084Y-108942260D01*
X165894548Y-108868427D01*
X165918850Y-108788314D01*
X165927056Y-108705000D01*
X165925000Y-108686250D01*
X165818750Y-108580000D01*
X164700000Y-108580000D01*
X164350000Y-108580000D01*
X163231250Y-108580000D01*
X163125000Y-108686250D01*
X163122944Y-108705000D01*
X161330137Y-108705000D01*
X161298240Y-108678823D01*
X161189872Y-108620899D01*
X161072286Y-108585230D01*
X160950001Y-108573186D01*
X160049999Y-108573186D01*
X159927714Y-108585230D01*
X159810128Y-108620899D01*
X159701760Y-108678823D01*
X159606775Y-108756775D01*
X159528823Y-108851760D01*
X159470899Y-108960128D01*
X159435230Y-109077714D01*
X159423186Y-109199999D01*
X151400000Y-109199999D01*
X151400000Y-105199999D01*
X159423186Y-105199999D01*
X159423186Y-105850001D01*
X159435230Y-105972286D01*
X159470899Y-106089872D01*
X159528823Y-106198240D01*
X159606775Y-106293225D01*
X159701760Y-106371177D01*
X159810128Y-106429101D01*
X159927714Y-106464770D01*
X160049999Y-106476814D01*
X160950001Y-106476814D01*
X161072286Y-106464770D01*
X161189872Y-106429101D01*
X161298240Y-106371177D01*
X161393225Y-106293225D01*
X161471177Y-106198240D01*
X161529101Y-106089872D01*
X161541591Y-106048697D01*
X161694079Y-106201186D01*
X161709736Y-106220264D01*
X161785871Y-106282746D01*
X161872733Y-106329175D01*
X161966871Y-106357731D01*
X161966983Y-106357765D01*
X162065000Y-106367419D01*
X162089560Y-106365000D01*
X163309009Y-106365000D01*
X163327486Y-106387514D01*
X163407318Y-106453030D01*
X163495192Y-106500000D01*
X163407318Y-106546970D01*
X163327486Y-106612486D01*
X163309009Y-106635000D01*
X161939560Y-106635000D01*
X161915000Y-106632581D01*
X161890440Y-106635000D01*
X161816983Y-106642235D01*
X161722733Y-106670825D01*
X161635871Y-106717254D01*
X161559736Y-106779736D01*
X161544081Y-106798812D01*
X161495545Y-106847349D01*
X161471177Y-106801760D01*
X161393225Y-106706775D01*
X161298240Y-106628823D01*
X161189872Y-106570899D01*
X161072286Y-106535230D01*
X160950001Y-106523186D01*
X160049999Y-106523186D01*
X159927714Y-106535230D01*
X159810128Y-106570899D01*
X159701760Y-106628823D01*
X159606775Y-106706775D01*
X159528823Y-106801760D01*
X159470899Y-106910128D01*
X159435230Y-107027714D01*
X159423186Y-107149999D01*
X159423186Y-107800001D01*
X159435230Y-107922286D01*
X159470899Y-108039872D01*
X159528823Y-108148240D01*
X159606775Y-108243225D01*
X159701760Y-108321177D01*
X159810128Y-108379101D01*
X159927714Y-108414770D01*
X160049999Y-108426814D01*
X160950001Y-108426814D01*
X161072286Y-108414770D01*
X161189872Y-108379101D01*
X161298240Y-108321177D01*
X161393225Y-108243225D01*
X161471177Y-108148240D01*
X161529101Y-108039872D01*
X161548780Y-107975000D01*
X161550440Y-107975000D01*
X161575000Y-107977419D01*
X161599560Y-107975000D01*
X161673017Y-107967765D01*
X161767267Y-107939175D01*
X161854129Y-107892746D01*
X161930264Y-107830264D01*
X161945928Y-107811177D01*
X162122106Y-107635000D01*
X163309009Y-107635000D01*
X163327486Y-107657514D01*
X163390529Y-107709252D01*
X163386573Y-107710452D01*
X163312740Y-107749916D01*
X163248026Y-107803026D01*
X163194916Y-107867740D01*
X163155452Y-107941573D01*
X163131150Y-108021686D01*
X163122944Y-108105000D01*
X163125000Y-108123750D01*
X163231250Y-108230000D01*
X164350000Y-108230000D01*
X164350000Y-108210000D01*
X164700000Y-108210000D01*
X164700000Y-108230000D01*
X165818750Y-108230000D01*
X165925000Y-108123750D01*
X165927056Y-108105000D01*
X165918850Y-108021686D01*
X165894548Y-107941573D01*
X165855084Y-107867740D01*
X165801974Y-107803026D01*
X165737260Y-107749916D01*
X165663427Y-107710452D01*
X165659471Y-107709252D01*
X165722514Y-107657514D01*
X165788030Y-107577682D01*
X165836713Y-107486603D01*
X165866691Y-107387776D01*
X165876814Y-107285000D01*
X165876814Y-106985000D01*
X165872872Y-106944978D01*
X166399079Y-107471186D01*
X166414736Y-107490264D01*
X166490871Y-107552746D01*
X166577733Y-107599175D01*
X166671983Y-107627765D01*
X166745440Y-107635000D01*
X166745441Y-107635000D01*
X166769999Y-107637419D01*
X166794557Y-107635000D01*
X168259009Y-107635000D01*
X168277486Y-107657514D01*
X168357318Y-107723030D01*
X168445192Y-107770000D01*
X168357318Y-107816970D01*
X168277486Y-107882486D01*
X168211970Y-107962318D01*
X168163287Y-108053397D01*
X168133309Y-108152224D01*
X168123186Y-108255000D01*
X168123186Y-108555000D01*
X168133309Y-108657776D01*
X168163287Y-108756603D01*
X168211970Y-108847682D01*
X168277486Y-108927514D01*
X168357318Y-108993030D01*
X168448397Y-109041713D01*
X168547224Y-109071691D01*
X168650000Y-109081814D01*
X170300000Y-109081814D01*
X170402776Y-109071691D01*
X170501603Y-109041713D01*
X170592682Y-108993030D01*
X170672514Y-108927514D01*
X170738030Y-108847682D01*
X170786713Y-108756603D01*
X170816691Y-108657776D01*
X170826814Y-108555000D01*
X170826814Y-108255000D01*
X170822872Y-108214977D01*
X172504729Y-109896836D01*
X172470899Y-109960128D01*
X172435230Y-110077714D01*
X172423186Y-110199999D01*
X172423186Y-110850001D01*
X172435230Y-110972286D01*
X172470899Y-111089872D01*
X172528823Y-111198240D01*
X172606775Y-111293225D01*
X172701760Y-111371177D01*
X172810128Y-111429101D01*
X172927714Y-111464770D01*
X173049999Y-111476814D01*
X173950001Y-111476814D01*
X174072286Y-111464770D01*
X174189872Y-111429101D01*
X174298240Y-111371177D01*
X174393225Y-111293225D01*
X174471177Y-111198240D01*
X174529101Y-111089872D01*
X174564770Y-110972286D01*
X174576814Y-110850001D01*
X174576814Y-110199999D01*
X174564770Y-110077714D01*
X174529101Y-109960128D01*
X174471177Y-109851760D01*
X174393225Y-109756775D01*
X174298240Y-109678823D01*
X174189872Y-109620899D01*
X174072286Y-109585230D01*
X173950001Y-109573186D01*
X173595293Y-109573186D01*
X173448921Y-109426814D01*
X173950001Y-109426814D01*
X174072286Y-109414770D01*
X174189872Y-109379101D01*
X174298240Y-109321177D01*
X174393225Y-109243225D01*
X174471177Y-109148240D01*
X174529101Y-109039872D01*
X174564770Y-108922286D01*
X174576814Y-108800001D01*
X174576814Y-108149999D01*
X174564770Y-108027714D01*
X174529101Y-107910128D01*
X174471177Y-107801760D01*
X174393225Y-107706775D01*
X174298240Y-107628823D01*
X174189872Y-107570899D01*
X174072286Y-107535230D01*
X174000000Y-107528110D01*
X174000000Y-107496890D01*
X174072286Y-107489770D01*
X174189872Y-107454101D01*
X174298240Y-107396177D01*
X174393225Y-107318225D01*
X174471177Y-107223240D01*
X174529101Y-107114872D01*
X174564770Y-106997286D01*
X174576814Y-106875001D01*
X174576814Y-106224999D01*
X174564770Y-106102714D01*
X174529101Y-105985128D01*
X174471177Y-105876760D01*
X174393225Y-105781775D01*
X174298240Y-105703823D01*
X174189872Y-105645899D01*
X174072286Y-105610230D01*
X173950001Y-105598186D01*
X173255291Y-105598186D01*
X173185929Y-105528824D01*
X173170264Y-105509736D01*
X173158759Y-105500295D01*
X173218750Y-105500000D01*
X173325000Y-105393750D01*
X173325000Y-104675000D01*
X173675000Y-104675000D01*
X173675000Y-105393750D01*
X173781250Y-105500000D01*
X174200000Y-105502056D01*
X174283314Y-105493850D01*
X174363427Y-105469548D01*
X174437260Y-105430084D01*
X174501974Y-105376974D01*
X174555084Y-105312260D01*
X174594548Y-105238427D01*
X174618850Y-105158314D01*
X174627056Y-105075000D01*
X174625000Y-104781250D01*
X174518750Y-104675000D01*
X173675000Y-104675000D01*
X173325000Y-104675000D01*
X172481250Y-104675000D01*
X172375000Y-104781250D01*
X172372944Y-105075000D01*
X172381150Y-105158314D01*
X172405452Y-105238427D01*
X172444916Y-105312260D01*
X172488199Y-105365000D01*
X170690991Y-105365000D01*
X170672514Y-105342486D01*
X170609471Y-105290748D01*
X170613427Y-105289548D01*
X170687260Y-105250084D01*
X170751974Y-105196974D01*
X170805084Y-105132260D01*
X170844548Y-105058427D01*
X170868850Y-104978314D01*
X170877056Y-104895000D01*
X170875000Y-104876250D01*
X170768750Y-104770000D01*
X169650000Y-104770000D01*
X169650000Y-104790000D01*
X169300000Y-104790000D01*
X169300000Y-104770000D01*
X168181250Y-104770000D01*
X168075000Y-104876250D01*
X168072944Y-104895000D01*
X168081150Y-104978314D01*
X168105452Y-105058427D01*
X168144916Y-105132260D01*
X168198026Y-105196974D01*
X168262740Y-105250084D01*
X168336573Y-105289548D01*
X168340529Y-105290748D01*
X168277486Y-105342486D01*
X168211970Y-105422318D01*
X168163287Y-105513397D01*
X168133309Y-105612224D01*
X168123186Y-105715000D01*
X168123186Y-106015000D01*
X168133309Y-106117776D01*
X168163287Y-106216603D01*
X168211970Y-106307682D01*
X168277486Y-106387514D01*
X168357318Y-106453030D01*
X168445192Y-106500000D01*
X168357318Y-106546970D01*
X168277486Y-106612486D01*
X168259009Y-106635000D01*
X166977107Y-106635000D01*
X165870929Y-105528824D01*
X165855264Y-105509736D01*
X165818730Y-105479754D01*
X165788030Y-105422318D01*
X165722514Y-105342486D01*
X165642682Y-105276970D01*
X165554808Y-105230000D01*
X165642682Y-105183030D01*
X165722514Y-105117514D01*
X165788030Y-105037682D01*
X165836713Y-104946603D01*
X165866691Y-104847776D01*
X165876814Y-104745000D01*
X165876814Y-104445000D01*
X165866691Y-104342224D01*
X165852367Y-104295000D01*
X168072944Y-104295000D01*
X168075000Y-104313750D01*
X168181250Y-104420000D01*
X169300000Y-104420000D01*
X169300000Y-103976250D01*
X169650000Y-103976250D01*
X169650000Y-104420000D01*
X170768750Y-104420000D01*
X170875000Y-104313750D01*
X170877056Y-104295000D01*
X170868850Y-104211686D01*
X170844548Y-104131573D01*
X170805084Y-104057740D01*
X170751974Y-103993026D01*
X170687260Y-103939916D01*
X170659354Y-103925000D01*
X172372944Y-103925000D01*
X172375000Y-104218750D01*
X172481250Y-104325000D01*
X173325000Y-104325000D01*
X173325000Y-103606250D01*
X173675000Y-103606250D01*
X173675000Y-104325000D01*
X174518750Y-104325000D01*
X174625000Y-104218750D01*
X174627056Y-103925000D01*
X174618850Y-103841686D01*
X174594548Y-103761573D01*
X174555084Y-103687740D01*
X174501974Y-103623026D01*
X174437260Y-103569916D01*
X174363427Y-103530452D01*
X174283314Y-103506150D01*
X174200000Y-103497944D01*
X173781250Y-103500000D01*
X173675000Y-103606250D01*
X173325000Y-103606250D01*
X173218750Y-103500000D01*
X172800000Y-103497944D01*
X172716686Y-103506150D01*
X172636573Y-103530452D01*
X172562740Y-103569916D01*
X172498026Y-103623026D01*
X172444916Y-103687740D01*
X172405452Y-103761573D01*
X172381150Y-103841686D01*
X172372944Y-103925000D01*
X170659354Y-103925000D01*
X170613427Y-103900452D01*
X170533314Y-103876150D01*
X170450000Y-103867944D01*
X169756250Y-103870000D01*
X169650000Y-103976250D01*
X169300000Y-103976250D01*
X169193750Y-103870000D01*
X168500000Y-103867944D01*
X168416686Y-103876150D01*
X168336573Y-103900452D01*
X168262740Y-103939916D01*
X168198026Y-103993026D01*
X168144916Y-104057740D01*
X168105452Y-104131573D01*
X168081150Y-104211686D01*
X168072944Y-104295000D01*
X165852367Y-104295000D01*
X165836713Y-104243397D01*
X165788030Y-104152318D01*
X165722514Y-104072486D01*
X165642682Y-104006970D01*
X165551603Y-103958287D01*
X165452776Y-103928309D01*
X165350000Y-103918186D01*
X165025000Y-103918186D01*
X165025000Y-101775000D01*
X165076331Y-101775000D01*
X165226059Y-101745217D01*
X165367100Y-101686796D01*
X165494034Y-101601982D01*
X165601982Y-101494034D01*
X165686796Y-101367100D01*
X165745217Y-101226059D01*
X165775000Y-101076331D01*
X165775000Y-100923669D01*
X165745217Y-100773941D01*
X165686796Y-100632900D01*
X165601982Y-100505966D01*
X165494034Y-100398018D01*
X165367100Y-100313204D01*
X165226059Y-100254783D01*
X165076331Y-100225000D01*
X164923669Y-100225000D01*
X164773941Y-100254783D01*
X164632900Y-100313204D01*
X164505966Y-100398018D01*
X164398018Y-100505966D01*
X164313204Y-100632900D01*
X164254783Y-100773941D01*
X164225000Y-100923669D01*
X164225000Y-101067895D01*
X164188819Y-101104076D01*
X164169737Y-101119736D01*
X164107255Y-101195871D01*
X164091119Y-101226059D01*
X164060826Y-101282733D01*
X164032235Y-101376983D01*
X164022581Y-101475000D01*
X164025001Y-101499570D01*
X164025000Y-103918186D01*
X163700000Y-103918186D01*
X163597224Y-103928309D01*
X163498397Y-103958287D01*
X163407318Y-104006970D01*
X163327486Y-104072486D01*
X163261970Y-104152318D01*
X163213287Y-104243397D01*
X163183309Y-104342224D01*
X163173186Y-104445000D01*
X163173186Y-104745000D01*
X163183309Y-104847776D01*
X163213287Y-104946603D01*
X163261970Y-105037682D01*
X163327486Y-105117514D01*
X163407318Y-105183030D01*
X163495192Y-105230000D01*
X163407318Y-105276970D01*
X163327486Y-105342486D01*
X163309009Y-105365000D01*
X162272106Y-105365000D01*
X162095928Y-105188823D01*
X162080264Y-105169736D01*
X162004129Y-105107254D01*
X161917267Y-105060825D01*
X161823017Y-105032235D01*
X161749560Y-105025000D01*
X161725000Y-105022581D01*
X161700440Y-105025000D01*
X161548780Y-105025000D01*
X161529101Y-104960128D01*
X161471177Y-104851760D01*
X161393225Y-104756775D01*
X161298240Y-104678823D01*
X161189872Y-104620899D01*
X161072286Y-104585230D01*
X160950001Y-104573186D01*
X160049999Y-104573186D01*
X159927714Y-104585230D01*
X159810128Y-104620899D01*
X159701760Y-104678823D01*
X159606775Y-104756775D01*
X159528823Y-104851760D01*
X159470899Y-104960128D01*
X159435230Y-105077714D01*
X159423186Y-105199999D01*
X151400000Y-105199999D01*
X151400000Y-103149999D01*
X159423186Y-103149999D01*
X159423186Y-103800001D01*
X159435230Y-103922286D01*
X159470899Y-104039872D01*
X159528823Y-104148240D01*
X159606775Y-104243225D01*
X159701760Y-104321177D01*
X159810128Y-104379101D01*
X159927714Y-104414770D01*
X160049999Y-104426814D01*
X160950001Y-104426814D01*
X161072286Y-104414770D01*
X161189872Y-104379101D01*
X161298240Y-104321177D01*
X161393225Y-104243225D01*
X161471177Y-104148240D01*
X161529101Y-104039872D01*
X161564770Y-103922286D01*
X161576814Y-103800001D01*
X161576814Y-103149999D01*
X161564770Y-103027714D01*
X161529101Y-102910128D01*
X161471177Y-102801760D01*
X161393225Y-102706775D01*
X161298240Y-102628823D01*
X161189872Y-102570899D01*
X161072286Y-102535230D01*
X161000000Y-102528110D01*
X161000000Y-100775000D01*
X161076331Y-100775000D01*
X161226059Y-100745217D01*
X161367100Y-100686796D01*
X161494034Y-100601982D01*
X161601982Y-100494034D01*
X161686796Y-100367100D01*
X161745217Y-100226059D01*
X161775000Y-100076331D01*
X161775000Y-99923669D01*
X161745217Y-99773941D01*
X161686796Y-99632900D01*
X161601982Y-99505966D01*
X161494034Y-99398018D01*
X161367100Y-99313204D01*
X161226059Y-99254783D01*
X161076331Y-99225000D01*
X160923669Y-99225000D01*
X160773941Y-99254783D01*
X160632900Y-99313204D01*
X160505966Y-99398018D01*
X160398018Y-99505966D01*
X160313204Y-99632900D01*
X160254783Y-99773941D01*
X160225000Y-99923669D01*
X160225000Y-100067895D01*
X160163819Y-100129076D01*
X160144737Y-100144736D01*
X160082255Y-100220871D01*
X160080048Y-100225000D01*
X160035826Y-100307733D01*
X160007235Y-100401983D01*
X159997581Y-100500000D01*
X160000001Y-100524570D01*
X160000000Y-102528110D01*
X159927714Y-102535230D01*
X159810128Y-102570899D01*
X159701760Y-102628823D01*
X159606775Y-102706775D01*
X159528823Y-102801760D01*
X159470899Y-102910128D01*
X159435230Y-103027714D01*
X159423186Y-103149999D01*
X151400000Y-103149999D01*
X151400000Y-91900000D01*
X182600001Y-91900000D01*
X182600000Y-121100000D01*
G37*
X182600000Y-121100000D02*
X151400000Y-121100000D01*
X151400000Y-113224999D01*
X159423186Y-113224999D01*
X159423186Y-113875001D01*
X159435230Y-113997286D01*
X159470899Y-114114872D01*
X159528823Y-114223240D01*
X159606775Y-114318225D01*
X159701760Y-114396177D01*
X159810128Y-114454101D01*
X159927714Y-114489770D01*
X160000000Y-114496890D01*
X160000001Y-115475430D01*
X159997581Y-115500000D01*
X160007235Y-115598017D01*
X160035826Y-115692267D01*
X160082255Y-115779129D01*
X160144737Y-115855264D01*
X160163819Y-115870924D01*
X160225000Y-115932105D01*
X160225000Y-116076331D01*
X160254783Y-116226059D01*
X160313204Y-116367100D01*
X160398018Y-116494034D01*
X160505966Y-116601982D01*
X160632900Y-116686796D01*
X160773941Y-116745217D01*
X160923669Y-116775000D01*
X161076331Y-116775000D01*
X161226059Y-116745217D01*
X161367100Y-116686796D01*
X161494034Y-116601982D01*
X161601982Y-116494034D01*
X161686796Y-116367100D01*
X161745217Y-116226059D01*
X161775000Y-116076331D01*
X161775000Y-115923669D01*
X161745217Y-115773941D01*
X161686796Y-115632900D01*
X161601982Y-115505966D01*
X161494034Y-115398018D01*
X161367100Y-115313204D01*
X161226059Y-115254783D01*
X161076331Y-115225000D01*
X161000000Y-115225000D01*
X161000000Y-114496890D01*
X161072286Y-114489770D01*
X161189872Y-114454101D01*
X161298240Y-114396177D01*
X161393225Y-114318225D01*
X161471177Y-114223240D01*
X161529101Y-114114872D01*
X161564770Y-113997286D01*
X161576814Y-113875001D01*
X161576814Y-113224999D01*
X161564770Y-113102714D01*
X161529101Y-112985128D01*
X161471177Y-112876760D01*
X161393225Y-112781775D01*
X161298240Y-112703823D01*
X161189872Y-112645899D01*
X161072286Y-112610230D01*
X160950001Y-112598186D01*
X160049999Y-112598186D01*
X159927714Y-112610230D01*
X159810128Y-112645899D01*
X159701760Y-112703823D01*
X159606775Y-112781775D01*
X159528823Y-112876760D01*
X159470899Y-112985128D01*
X159435230Y-113102714D01*
X159423186Y-113224999D01*
X151400000Y-113224999D01*
X151400000Y-109199999D01*
X159423186Y-109199999D01*
X159423186Y-109850001D01*
X159435230Y-109972286D01*
X159470899Y-110089872D01*
X159528823Y-110198240D01*
X159606775Y-110293225D01*
X159701760Y-110371177D01*
X159810128Y-110429101D01*
X159927714Y-110464770D01*
X160000000Y-110471890D01*
X160000001Y-110553110D01*
X159927714Y-110560230D01*
X159810128Y-110595899D01*
X159701760Y-110653823D01*
X159606775Y-110731775D01*
X159528823Y-110826760D01*
X159470899Y-110935128D01*
X159435230Y-111052714D01*
X159423186Y-111174999D01*
X159423186Y-111825001D01*
X159435230Y-111947286D01*
X159470899Y-112064872D01*
X159528823Y-112173240D01*
X159606775Y-112268225D01*
X159701760Y-112346177D01*
X159810128Y-112404101D01*
X159927714Y-112439770D01*
X160049999Y-112451814D01*
X160950001Y-112451814D01*
X161072286Y-112439770D01*
X161189872Y-112404101D01*
X161298240Y-112346177D01*
X161393225Y-112268225D01*
X161471177Y-112173240D01*
X161529101Y-112064872D01*
X161564770Y-111947286D01*
X161576814Y-111825001D01*
X161576814Y-111174999D01*
X161564770Y-111052714D01*
X161529101Y-110935128D01*
X161471177Y-110826760D01*
X161393225Y-110731775D01*
X161298240Y-110653823D01*
X161189872Y-110595899D01*
X161072286Y-110560230D01*
X161000000Y-110553110D01*
X161000000Y-110471890D01*
X161072286Y-110464770D01*
X161189872Y-110429101D01*
X161298240Y-110371177D01*
X161393225Y-110293225D01*
X161471177Y-110198240D01*
X161529101Y-110089872D01*
X161564770Y-109972286D01*
X161576814Y-109850001D01*
X161576814Y-109199999D01*
X161564770Y-109077714D01*
X161529101Y-108960128D01*
X161471177Y-108851760D01*
X161393225Y-108756775D01*
X161330137Y-108705000D01*
X163122944Y-108705000D01*
X163131150Y-108788314D01*
X163155452Y-108868427D01*
X163194916Y-108942260D01*
X163248026Y-109006974D01*
X163312740Y-109060084D01*
X163386573Y-109099548D01*
X163466686Y-109123850D01*
X163550000Y-109132056D01*
X164243750Y-109130000D01*
X164350000Y-109023750D01*
X164350000Y-108580000D01*
X164700000Y-108580000D01*
X164700000Y-109023750D01*
X164806250Y-109130000D01*
X165500000Y-109132056D01*
X165583314Y-109123850D01*
X165663427Y-109099548D01*
X165737260Y-109060084D01*
X165801974Y-109006974D01*
X165855084Y-108942260D01*
X165894548Y-108868427D01*
X165918850Y-108788314D01*
X165927056Y-108705000D01*
X165925000Y-108686250D01*
X165818750Y-108580000D01*
X164700000Y-108580000D01*
X164350000Y-108580000D01*
X163231250Y-108580000D01*
X163125000Y-108686250D01*
X163122944Y-108705000D01*
X161330137Y-108705000D01*
X161298240Y-108678823D01*
X161189872Y-108620899D01*
X161072286Y-108585230D01*
X160950001Y-108573186D01*
X160049999Y-108573186D01*
X159927714Y-108585230D01*
X159810128Y-108620899D01*
X159701760Y-108678823D01*
X159606775Y-108756775D01*
X159528823Y-108851760D01*
X159470899Y-108960128D01*
X159435230Y-109077714D01*
X159423186Y-109199999D01*
X151400000Y-109199999D01*
X151400000Y-105199999D01*
X159423186Y-105199999D01*
X159423186Y-105850001D01*
X159435230Y-105972286D01*
X159470899Y-106089872D01*
X159528823Y-106198240D01*
X159606775Y-106293225D01*
X159701760Y-106371177D01*
X159810128Y-106429101D01*
X159927714Y-106464770D01*
X160049999Y-106476814D01*
X160950001Y-106476814D01*
X161072286Y-106464770D01*
X161189872Y-106429101D01*
X161298240Y-106371177D01*
X161393225Y-106293225D01*
X161471177Y-106198240D01*
X161529101Y-106089872D01*
X161541591Y-106048697D01*
X161694079Y-106201186D01*
X161709736Y-106220264D01*
X161785871Y-106282746D01*
X161872733Y-106329175D01*
X161966871Y-106357731D01*
X161966983Y-106357765D01*
X162065000Y-106367419D01*
X162089560Y-106365000D01*
X163309009Y-106365000D01*
X163327486Y-106387514D01*
X163407318Y-106453030D01*
X163495192Y-106500000D01*
X163407318Y-106546970D01*
X163327486Y-106612486D01*
X163309009Y-106635000D01*
X161939560Y-106635000D01*
X161915000Y-106632581D01*
X161890440Y-106635000D01*
X161816983Y-106642235D01*
X161722733Y-106670825D01*
X161635871Y-106717254D01*
X161559736Y-106779736D01*
X161544081Y-106798812D01*
X161495545Y-106847349D01*
X161471177Y-106801760D01*
X161393225Y-106706775D01*
X161298240Y-106628823D01*
X161189872Y-106570899D01*
X161072286Y-106535230D01*
X160950001Y-106523186D01*
X160049999Y-106523186D01*
X159927714Y-106535230D01*
X159810128Y-106570899D01*
X159701760Y-106628823D01*
X159606775Y-106706775D01*
X159528823Y-106801760D01*
X159470899Y-106910128D01*
X159435230Y-107027714D01*
X159423186Y-107149999D01*
X159423186Y-107800001D01*
X159435230Y-107922286D01*
X159470899Y-108039872D01*
X159528823Y-108148240D01*
X159606775Y-108243225D01*
X159701760Y-108321177D01*
X159810128Y-108379101D01*
X159927714Y-108414770D01*
X160049999Y-108426814D01*
X160950001Y-108426814D01*
X161072286Y-108414770D01*
X161189872Y-108379101D01*
X161298240Y-108321177D01*
X161393225Y-108243225D01*
X161471177Y-108148240D01*
X161529101Y-108039872D01*
X161548780Y-107975000D01*
X161550440Y-107975000D01*
X161575000Y-107977419D01*
X161599560Y-107975000D01*
X161673017Y-107967765D01*
X161767267Y-107939175D01*
X161854129Y-107892746D01*
X161930264Y-107830264D01*
X161945928Y-107811177D01*
X162122106Y-107635000D01*
X163309009Y-107635000D01*
X163327486Y-107657514D01*
X163390529Y-107709252D01*
X163386573Y-107710452D01*
X163312740Y-107749916D01*
X163248026Y-107803026D01*
X163194916Y-107867740D01*
X163155452Y-107941573D01*
X163131150Y-108021686D01*
X163122944Y-108105000D01*
X163125000Y-108123750D01*
X163231250Y-108230000D01*
X164350000Y-108230000D01*
X164350000Y-108210000D01*
X164700000Y-108210000D01*
X164700000Y-108230000D01*
X165818750Y-108230000D01*
X165925000Y-108123750D01*
X165927056Y-108105000D01*
X165918850Y-108021686D01*
X165894548Y-107941573D01*
X165855084Y-107867740D01*
X165801974Y-107803026D01*
X165737260Y-107749916D01*
X165663427Y-107710452D01*
X165659471Y-107709252D01*
X165722514Y-107657514D01*
X165788030Y-107577682D01*
X165836713Y-107486603D01*
X165866691Y-107387776D01*
X165876814Y-107285000D01*
X165876814Y-106985000D01*
X165872872Y-106944978D01*
X166399079Y-107471186D01*
X166414736Y-107490264D01*
X166490871Y-107552746D01*
X166577733Y-107599175D01*
X166671983Y-107627765D01*
X166745440Y-107635000D01*
X166745441Y-107635000D01*
X166769999Y-107637419D01*
X166794557Y-107635000D01*
X168259009Y-107635000D01*
X168277486Y-107657514D01*
X168357318Y-107723030D01*
X168445192Y-107770000D01*
X168357318Y-107816970D01*
X168277486Y-107882486D01*
X168211970Y-107962318D01*
X168163287Y-108053397D01*
X168133309Y-108152224D01*
X168123186Y-108255000D01*
X168123186Y-108555000D01*
X168133309Y-108657776D01*
X168163287Y-108756603D01*
X168211970Y-108847682D01*
X168277486Y-108927514D01*
X168357318Y-108993030D01*
X168448397Y-109041713D01*
X168547224Y-109071691D01*
X168650000Y-109081814D01*
X170300000Y-109081814D01*
X170402776Y-109071691D01*
X170501603Y-109041713D01*
X170592682Y-108993030D01*
X170672514Y-108927514D01*
X170738030Y-108847682D01*
X170786713Y-108756603D01*
X170816691Y-108657776D01*
X170826814Y-108555000D01*
X170826814Y-108255000D01*
X170822872Y-108214977D01*
X172504729Y-109896836D01*
X172470899Y-109960128D01*
X172435230Y-110077714D01*
X172423186Y-110199999D01*
X172423186Y-110850001D01*
X172435230Y-110972286D01*
X172470899Y-111089872D01*
X172528823Y-111198240D01*
X172606775Y-111293225D01*
X172701760Y-111371177D01*
X172810128Y-111429101D01*
X172927714Y-111464770D01*
X173049999Y-111476814D01*
X173950001Y-111476814D01*
X174072286Y-111464770D01*
X174189872Y-111429101D01*
X174298240Y-111371177D01*
X174393225Y-111293225D01*
X174471177Y-111198240D01*
X174529101Y-111089872D01*
X174564770Y-110972286D01*
X174576814Y-110850001D01*
X174576814Y-110199999D01*
X174564770Y-110077714D01*
X174529101Y-109960128D01*
X174471177Y-109851760D01*
X174393225Y-109756775D01*
X174298240Y-109678823D01*
X174189872Y-109620899D01*
X174072286Y-109585230D01*
X173950001Y-109573186D01*
X173595293Y-109573186D01*
X173448921Y-109426814D01*
X173950001Y-109426814D01*
X174072286Y-109414770D01*
X174189872Y-109379101D01*
X174298240Y-109321177D01*
X174393225Y-109243225D01*
X174471177Y-109148240D01*
X174529101Y-109039872D01*
X174564770Y-108922286D01*
X174576814Y-108800001D01*
X174576814Y-108149999D01*
X174564770Y-108027714D01*
X174529101Y-107910128D01*
X174471177Y-107801760D01*
X174393225Y-107706775D01*
X174298240Y-107628823D01*
X174189872Y-107570899D01*
X174072286Y-107535230D01*
X174000000Y-107528110D01*
X174000000Y-107496890D01*
X174072286Y-107489770D01*
X174189872Y-107454101D01*
X174298240Y-107396177D01*
X174393225Y-107318225D01*
X174471177Y-107223240D01*
X174529101Y-107114872D01*
X174564770Y-106997286D01*
X174576814Y-106875001D01*
X174576814Y-106224999D01*
X174564770Y-106102714D01*
X174529101Y-105985128D01*
X174471177Y-105876760D01*
X174393225Y-105781775D01*
X174298240Y-105703823D01*
X174189872Y-105645899D01*
X174072286Y-105610230D01*
X173950001Y-105598186D01*
X173255291Y-105598186D01*
X173185929Y-105528824D01*
X173170264Y-105509736D01*
X173158759Y-105500295D01*
X173218750Y-105500000D01*
X173325000Y-105393750D01*
X173325000Y-104675000D01*
X173675000Y-104675000D01*
X173675000Y-105393750D01*
X173781250Y-105500000D01*
X174200000Y-105502056D01*
X174283314Y-105493850D01*
X174363427Y-105469548D01*
X174437260Y-105430084D01*
X174501974Y-105376974D01*
X174555084Y-105312260D01*
X174594548Y-105238427D01*
X174618850Y-105158314D01*
X174627056Y-105075000D01*
X174625000Y-104781250D01*
X174518750Y-104675000D01*
X173675000Y-104675000D01*
X173325000Y-104675000D01*
X172481250Y-104675000D01*
X172375000Y-104781250D01*
X172372944Y-105075000D01*
X172381150Y-105158314D01*
X172405452Y-105238427D01*
X172444916Y-105312260D01*
X172488199Y-105365000D01*
X170690991Y-105365000D01*
X170672514Y-105342486D01*
X170609471Y-105290748D01*
X170613427Y-105289548D01*
X170687260Y-105250084D01*
X170751974Y-105196974D01*
X170805084Y-105132260D01*
X170844548Y-105058427D01*
X170868850Y-104978314D01*
X170877056Y-104895000D01*
X170875000Y-104876250D01*
X170768750Y-104770000D01*
X169650000Y-104770000D01*
X169650000Y-104790000D01*
X169300000Y-104790000D01*
X169300000Y-104770000D01*
X168181250Y-104770000D01*
X168075000Y-104876250D01*
X168072944Y-104895000D01*
X168081150Y-104978314D01*
X168105452Y-105058427D01*
X168144916Y-105132260D01*
X168198026Y-105196974D01*
X168262740Y-105250084D01*
X168336573Y-105289548D01*
X168340529Y-105290748D01*
X168277486Y-105342486D01*
X168211970Y-105422318D01*
X168163287Y-105513397D01*
X168133309Y-105612224D01*
X168123186Y-105715000D01*
X168123186Y-106015000D01*
X168133309Y-106117776D01*
X168163287Y-106216603D01*
X168211970Y-106307682D01*
X168277486Y-106387514D01*
X168357318Y-106453030D01*
X168445192Y-106500000D01*
X168357318Y-106546970D01*
X168277486Y-106612486D01*
X168259009Y-106635000D01*
X166977107Y-106635000D01*
X165870929Y-105528824D01*
X165855264Y-105509736D01*
X165818730Y-105479754D01*
X165788030Y-105422318D01*
X165722514Y-105342486D01*
X165642682Y-105276970D01*
X165554808Y-105230000D01*
X165642682Y-105183030D01*
X165722514Y-105117514D01*
X165788030Y-105037682D01*
X165836713Y-104946603D01*
X165866691Y-104847776D01*
X165876814Y-104745000D01*
X165876814Y-104445000D01*
X165866691Y-104342224D01*
X165852367Y-104295000D01*
X168072944Y-104295000D01*
X168075000Y-104313750D01*
X168181250Y-104420000D01*
X169300000Y-104420000D01*
X169300000Y-103976250D01*
X169650000Y-103976250D01*
X169650000Y-104420000D01*
X170768750Y-104420000D01*
X170875000Y-104313750D01*
X170877056Y-104295000D01*
X170868850Y-104211686D01*
X170844548Y-104131573D01*
X170805084Y-104057740D01*
X170751974Y-103993026D01*
X170687260Y-103939916D01*
X170659354Y-103925000D01*
X172372944Y-103925000D01*
X172375000Y-104218750D01*
X172481250Y-104325000D01*
X173325000Y-104325000D01*
X173325000Y-103606250D01*
X173675000Y-103606250D01*
X173675000Y-104325000D01*
X174518750Y-104325000D01*
X174625000Y-104218750D01*
X174627056Y-103925000D01*
X174618850Y-103841686D01*
X174594548Y-103761573D01*
X174555084Y-103687740D01*
X174501974Y-103623026D01*
X174437260Y-103569916D01*
X174363427Y-103530452D01*
X174283314Y-103506150D01*
X174200000Y-103497944D01*
X173781250Y-103500000D01*
X173675000Y-103606250D01*
X173325000Y-103606250D01*
X173218750Y-103500000D01*
X172800000Y-103497944D01*
X172716686Y-103506150D01*
X172636573Y-103530452D01*
X172562740Y-103569916D01*
X172498026Y-103623026D01*
X172444916Y-103687740D01*
X172405452Y-103761573D01*
X172381150Y-103841686D01*
X172372944Y-103925000D01*
X170659354Y-103925000D01*
X170613427Y-103900452D01*
X170533314Y-103876150D01*
X170450000Y-103867944D01*
X169756250Y-103870000D01*
X169650000Y-103976250D01*
X169300000Y-103976250D01*
X169193750Y-103870000D01*
X168500000Y-103867944D01*
X168416686Y-103876150D01*
X168336573Y-103900452D01*
X168262740Y-103939916D01*
X168198026Y-103993026D01*
X168144916Y-104057740D01*
X168105452Y-104131573D01*
X168081150Y-104211686D01*
X168072944Y-104295000D01*
X165852367Y-104295000D01*
X165836713Y-104243397D01*
X165788030Y-104152318D01*
X165722514Y-104072486D01*
X165642682Y-104006970D01*
X165551603Y-103958287D01*
X165452776Y-103928309D01*
X165350000Y-103918186D01*
X165025000Y-103918186D01*
X165025000Y-101775000D01*
X165076331Y-101775000D01*
X165226059Y-101745217D01*
X165367100Y-101686796D01*
X165494034Y-101601982D01*
X165601982Y-101494034D01*
X165686796Y-101367100D01*
X165745217Y-101226059D01*
X165775000Y-101076331D01*
X165775000Y-100923669D01*
X165745217Y-100773941D01*
X165686796Y-100632900D01*
X165601982Y-100505966D01*
X165494034Y-100398018D01*
X165367100Y-100313204D01*
X165226059Y-100254783D01*
X165076331Y-100225000D01*
X164923669Y-100225000D01*
X164773941Y-100254783D01*
X164632900Y-100313204D01*
X164505966Y-100398018D01*
X164398018Y-100505966D01*
X164313204Y-100632900D01*
X164254783Y-100773941D01*
X164225000Y-100923669D01*
X164225000Y-101067895D01*
X164188819Y-101104076D01*
X164169737Y-101119736D01*
X164107255Y-101195871D01*
X164091119Y-101226059D01*
X164060826Y-101282733D01*
X164032235Y-101376983D01*
X164022581Y-101475000D01*
X164025001Y-101499570D01*
X164025000Y-103918186D01*
X163700000Y-103918186D01*
X163597224Y-103928309D01*
X163498397Y-103958287D01*
X163407318Y-104006970D01*
X163327486Y-104072486D01*
X163261970Y-104152318D01*
X163213287Y-104243397D01*
X163183309Y-104342224D01*
X163173186Y-104445000D01*
X163173186Y-104745000D01*
X163183309Y-104847776D01*
X163213287Y-104946603D01*
X163261970Y-105037682D01*
X163327486Y-105117514D01*
X163407318Y-105183030D01*
X163495192Y-105230000D01*
X163407318Y-105276970D01*
X163327486Y-105342486D01*
X163309009Y-105365000D01*
X162272106Y-105365000D01*
X162095928Y-105188823D01*
X162080264Y-105169736D01*
X162004129Y-105107254D01*
X161917267Y-105060825D01*
X161823017Y-105032235D01*
X161749560Y-105025000D01*
X161725000Y-105022581D01*
X161700440Y-105025000D01*
X161548780Y-105025000D01*
X161529101Y-104960128D01*
X161471177Y-104851760D01*
X161393225Y-104756775D01*
X161298240Y-104678823D01*
X161189872Y-104620899D01*
X161072286Y-104585230D01*
X160950001Y-104573186D01*
X160049999Y-104573186D01*
X159927714Y-104585230D01*
X159810128Y-104620899D01*
X159701760Y-104678823D01*
X159606775Y-104756775D01*
X159528823Y-104851760D01*
X159470899Y-104960128D01*
X159435230Y-105077714D01*
X159423186Y-105199999D01*
X151400000Y-105199999D01*
X151400000Y-103149999D01*
X159423186Y-103149999D01*
X159423186Y-103800001D01*
X159435230Y-103922286D01*
X159470899Y-104039872D01*
X159528823Y-104148240D01*
X159606775Y-104243225D01*
X159701760Y-104321177D01*
X159810128Y-104379101D01*
X159927714Y-104414770D01*
X160049999Y-104426814D01*
X160950001Y-104426814D01*
X161072286Y-104414770D01*
X161189872Y-104379101D01*
X161298240Y-104321177D01*
X161393225Y-104243225D01*
X161471177Y-104148240D01*
X161529101Y-104039872D01*
X161564770Y-103922286D01*
X161576814Y-103800001D01*
X161576814Y-103149999D01*
X161564770Y-103027714D01*
X161529101Y-102910128D01*
X161471177Y-102801760D01*
X161393225Y-102706775D01*
X161298240Y-102628823D01*
X161189872Y-102570899D01*
X161072286Y-102535230D01*
X161000000Y-102528110D01*
X161000000Y-100775000D01*
X161076331Y-100775000D01*
X161226059Y-100745217D01*
X161367100Y-100686796D01*
X161494034Y-100601982D01*
X161601982Y-100494034D01*
X161686796Y-100367100D01*
X161745217Y-100226059D01*
X161775000Y-100076331D01*
X161775000Y-99923669D01*
X161745217Y-99773941D01*
X161686796Y-99632900D01*
X161601982Y-99505966D01*
X161494034Y-99398018D01*
X161367100Y-99313204D01*
X161226059Y-99254783D01*
X161076331Y-99225000D01*
X160923669Y-99225000D01*
X160773941Y-99254783D01*
X160632900Y-99313204D01*
X160505966Y-99398018D01*
X160398018Y-99505966D01*
X160313204Y-99632900D01*
X160254783Y-99773941D01*
X160225000Y-99923669D01*
X160225000Y-100067895D01*
X160163819Y-100129076D01*
X160144737Y-100144736D01*
X160082255Y-100220871D01*
X160080048Y-100225000D01*
X160035826Y-100307733D01*
X160007235Y-100401983D01*
X159997581Y-100500000D01*
X160000001Y-100524570D01*
X160000000Y-102528110D01*
X159927714Y-102535230D01*
X159810128Y-102570899D01*
X159701760Y-102628823D01*
X159606775Y-102706775D01*
X159528823Y-102801760D01*
X159470899Y-102910128D01*
X159435230Y-103027714D01*
X159423186Y-103149999D01*
X151400000Y-103149999D01*
X151400000Y-91900000D01*
X182600001Y-91900000D01*
X182600000Y-121100000D01*
%TD*%
M02*
