%TF.GenerationSoftware,KiCad,Pcbnew,(5.1.6)-1*%
%TF.CreationDate,2020-09-29T23:00:00+05:30*%
%TF.ProjectId,GettingToBlinky5.0,47657474-696e-4675-946f-426c696e6b79,rev?*%
%TF.SameCoordinates,Original*%
%TF.FileFunction,Soldermask,Top*%
%TF.FilePolarity,Negative*%
%FSLAX46Y46*%
G04 Gerber Fmt 4.6, Leading zero omitted, Abs format (unit mm)*
G04 Created by KiCad (PCBNEW (5.1.6)-1) date 2020-09-29 23:00:00*
%MOMM*%
%LPD*%
G01*
G04 APERTURE LIST*
G04 APERTURE END LIST*
%TO.C,U1*%
G36*
G01*
X163500000Y-104770000D02*
X163500000Y-104420000D01*
G75*
G02*
X163675000Y-104245000I175000J0D01*
G01*
X165375000Y-104245000D01*
G75*
G02*
X165550000Y-104420000I0J-175000D01*
G01*
X165550000Y-104770000D01*
G75*
G02*
X165375000Y-104945000I-175000J0D01*
G01*
X163675000Y-104945000D01*
G75*
G02*
X163500000Y-104770000I0J175000D01*
G01*
G37*
G36*
G01*
X163500000Y-106040000D02*
X163500000Y-105690000D01*
G75*
G02*
X163675000Y-105515000I175000J0D01*
G01*
X165375000Y-105515000D01*
G75*
G02*
X165550000Y-105690000I0J-175000D01*
G01*
X165550000Y-106040000D01*
G75*
G02*
X165375000Y-106215000I-175000J0D01*
G01*
X163675000Y-106215000D01*
G75*
G02*
X163500000Y-106040000I0J175000D01*
G01*
G37*
G36*
G01*
X163500000Y-107310000D02*
X163500000Y-106960000D01*
G75*
G02*
X163675000Y-106785000I175000J0D01*
G01*
X165375000Y-106785000D01*
G75*
G02*
X165550000Y-106960000I0J-175000D01*
G01*
X165550000Y-107310000D01*
G75*
G02*
X165375000Y-107485000I-175000J0D01*
G01*
X163675000Y-107485000D01*
G75*
G02*
X163500000Y-107310000I0J175000D01*
G01*
G37*
G36*
G01*
X163500000Y-108580000D02*
X163500000Y-108230000D01*
G75*
G02*
X163675000Y-108055000I175000J0D01*
G01*
X165375000Y-108055000D01*
G75*
G02*
X165550000Y-108230000I0J-175000D01*
G01*
X165550000Y-108580000D01*
G75*
G02*
X165375000Y-108755000I-175000J0D01*
G01*
X163675000Y-108755000D01*
G75*
G02*
X163500000Y-108580000I0J175000D01*
G01*
G37*
G36*
G01*
X168450000Y-108580000D02*
X168450000Y-108230000D01*
G75*
G02*
X168625000Y-108055000I175000J0D01*
G01*
X170325000Y-108055000D01*
G75*
G02*
X170500000Y-108230000I0J-175000D01*
G01*
X170500000Y-108580000D01*
G75*
G02*
X170325000Y-108755000I-175000J0D01*
G01*
X168625000Y-108755000D01*
G75*
G02*
X168450000Y-108580000I0J175000D01*
G01*
G37*
G36*
G01*
X168450000Y-107310000D02*
X168450000Y-106960000D01*
G75*
G02*
X168625000Y-106785000I175000J0D01*
G01*
X170325000Y-106785000D01*
G75*
G02*
X170500000Y-106960000I0J-175000D01*
G01*
X170500000Y-107310000D01*
G75*
G02*
X170325000Y-107485000I-175000J0D01*
G01*
X168625000Y-107485000D01*
G75*
G02*
X168450000Y-107310000I0J175000D01*
G01*
G37*
G36*
G01*
X168450000Y-106040000D02*
X168450000Y-105690000D01*
G75*
G02*
X168625000Y-105515000I175000J0D01*
G01*
X170325000Y-105515000D01*
G75*
G02*
X170500000Y-105690000I0J-175000D01*
G01*
X170500000Y-106040000D01*
G75*
G02*
X170325000Y-106215000I-175000J0D01*
G01*
X168625000Y-106215000D01*
G75*
G02*
X168450000Y-106040000I0J175000D01*
G01*
G37*
G36*
G01*
X168450000Y-104770000D02*
X168450000Y-104420000D01*
G75*
G02*
X168625000Y-104245000I175000J0D01*
G01*
X170325000Y-104245000D01*
G75*
G02*
X170500000Y-104420000I0J-175000D01*
G01*
X170500000Y-104770000D01*
G75*
G02*
X170325000Y-104945000I-175000J0D01*
G01*
X168625000Y-104945000D01*
G75*
G02*
X168450000Y-104770000I0J175000D01*
G01*
G37*
%TD*%
%TO.C,R3*%
G36*
G01*
X160021738Y-108900000D02*
X160978262Y-108900000D01*
G75*
G02*
X161250000Y-109171738I0J-271738D01*
G01*
X161250000Y-109878262D01*
G75*
G02*
X160978262Y-110150000I-271738J0D01*
G01*
X160021738Y-110150000D01*
G75*
G02*
X159750000Y-109878262I0J271738D01*
G01*
X159750000Y-109171738D01*
G75*
G02*
X160021738Y-108900000I271738J0D01*
G01*
G37*
G36*
G01*
X160021738Y-106850000D02*
X160978262Y-106850000D01*
G75*
G02*
X161250000Y-107121738I0J-271738D01*
G01*
X161250000Y-107828262D01*
G75*
G02*
X160978262Y-108100000I-271738J0D01*
G01*
X160021738Y-108100000D01*
G75*
G02*
X159750000Y-107828262I0J271738D01*
G01*
X159750000Y-107121738D01*
G75*
G02*
X160021738Y-106850000I271738J0D01*
G01*
G37*
%TD*%
%TO.C,R2*%
G36*
G01*
X173021738Y-109900000D02*
X173978262Y-109900000D01*
G75*
G02*
X174250000Y-110171738I0J-271738D01*
G01*
X174250000Y-110878262D01*
G75*
G02*
X173978262Y-111150000I-271738J0D01*
G01*
X173021738Y-111150000D01*
G75*
G02*
X172750000Y-110878262I0J271738D01*
G01*
X172750000Y-110171738D01*
G75*
G02*
X173021738Y-109900000I271738J0D01*
G01*
G37*
G36*
G01*
X173021738Y-107850000D02*
X173978262Y-107850000D01*
G75*
G02*
X174250000Y-108121738I0J-271738D01*
G01*
X174250000Y-108828262D01*
G75*
G02*
X173978262Y-109100000I-271738J0D01*
G01*
X173021738Y-109100000D01*
G75*
G02*
X172750000Y-108828262I0J271738D01*
G01*
X172750000Y-108121738D01*
G75*
G02*
X173021738Y-107850000I271738J0D01*
G01*
G37*
%TD*%
%TO.C,R1*%
G36*
G01*
X173021738Y-105925000D02*
X173978262Y-105925000D01*
G75*
G02*
X174250000Y-106196738I0J-271738D01*
G01*
X174250000Y-106903262D01*
G75*
G02*
X173978262Y-107175000I-271738J0D01*
G01*
X173021738Y-107175000D01*
G75*
G02*
X172750000Y-106903262I0J271738D01*
G01*
X172750000Y-106196738D01*
G75*
G02*
X173021738Y-105925000I271738J0D01*
G01*
G37*
G36*
G01*
X173021738Y-103875000D02*
X173978262Y-103875000D01*
G75*
G02*
X174250000Y-104146738I0J-271738D01*
G01*
X174250000Y-104853262D01*
G75*
G02*
X173978262Y-105125000I-271738J0D01*
G01*
X173021738Y-105125000D01*
G75*
G02*
X172750000Y-104853262I0J271738D01*
G01*
X172750000Y-104146738D01*
G75*
G02*
X173021738Y-103875000I271738J0D01*
G01*
G37*
%TD*%
%TO.C,D1*%
G36*
G01*
X160978262Y-112125000D02*
X160021738Y-112125000D01*
G75*
G02*
X159750000Y-111853262I0J271738D01*
G01*
X159750000Y-111146738D01*
G75*
G02*
X160021738Y-110875000I271738J0D01*
G01*
X160978262Y-110875000D01*
G75*
G02*
X161250000Y-111146738I0J-271738D01*
G01*
X161250000Y-111853262D01*
G75*
G02*
X160978262Y-112125000I-271738J0D01*
G01*
G37*
G36*
G01*
X160978262Y-114175000D02*
X160021738Y-114175000D01*
G75*
G02*
X159750000Y-113903262I0J271738D01*
G01*
X159750000Y-113196738D01*
G75*
G02*
X160021738Y-112925000I271738J0D01*
G01*
X160978262Y-112925000D01*
G75*
G02*
X161250000Y-113196738I0J-271738D01*
G01*
X161250000Y-113903262D01*
G75*
G02*
X160978262Y-114175000I-271738J0D01*
G01*
G37*
%TD*%
%TO.C,C1*%
G36*
G01*
X160978262Y-104100000D02*
X160021738Y-104100000D01*
G75*
G02*
X159750000Y-103828262I0J271738D01*
G01*
X159750000Y-103121738D01*
G75*
G02*
X160021738Y-102850000I271738J0D01*
G01*
X160978262Y-102850000D01*
G75*
G02*
X161250000Y-103121738I0J-271738D01*
G01*
X161250000Y-103828262D01*
G75*
G02*
X160978262Y-104100000I-271738J0D01*
G01*
G37*
G36*
G01*
X160978262Y-106150000D02*
X160021738Y-106150000D01*
G75*
G02*
X159750000Y-105878262I0J271738D01*
G01*
X159750000Y-105171738D01*
G75*
G02*
X160021738Y-104900000I271738J0D01*
G01*
X160978262Y-104900000D01*
G75*
G02*
X161250000Y-105171738I0J-271738D01*
G01*
X161250000Y-105878262D01*
G75*
G02*
X160978262Y-106150000I-271738J0D01*
G01*
G37*
%TD*%
M02*
