%TF.GenerationSoftware,KiCad,Pcbnew,(5.1.6)-1*%
%TF.CreationDate,2020-09-29T22:59:59+05:30*%
%TF.ProjectId,GettingToBlinky5.0,47657474-696e-4675-946f-426c696e6b79,rev?*%
%TF.SameCoordinates,Original*%
%TF.FileFunction,Paste,Top*%
%TF.FilePolarity,Positive*%
%FSLAX46Y46*%
G04 Gerber Fmt 4.6, Leading zero omitted, Abs format (unit mm)*
G04 Created by KiCad (PCBNEW (5.1.6)-1) date 2020-09-29 22:59:59*
%MOMM*%
%LPD*%
G01*
G04 APERTURE LIST*
G04 APERTURE END LIST*
%TO.C,U1*%
G36*
G01*
X163550000Y-104745000D02*
X163550000Y-104445000D01*
G75*
G02*
X163700000Y-104295000I150000J0D01*
G01*
X165350000Y-104295000D01*
G75*
G02*
X165500000Y-104445000I0J-150000D01*
G01*
X165500000Y-104745000D01*
G75*
G02*
X165350000Y-104895000I-150000J0D01*
G01*
X163700000Y-104895000D01*
G75*
G02*
X163550000Y-104745000I0J150000D01*
G01*
G37*
G36*
G01*
X163550000Y-106015000D02*
X163550000Y-105715000D01*
G75*
G02*
X163700000Y-105565000I150000J0D01*
G01*
X165350000Y-105565000D01*
G75*
G02*
X165500000Y-105715000I0J-150000D01*
G01*
X165500000Y-106015000D01*
G75*
G02*
X165350000Y-106165000I-150000J0D01*
G01*
X163700000Y-106165000D01*
G75*
G02*
X163550000Y-106015000I0J150000D01*
G01*
G37*
G36*
G01*
X163550000Y-107285000D02*
X163550000Y-106985000D01*
G75*
G02*
X163700000Y-106835000I150000J0D01*
G01*
X165350000Y-106835000D01*
G75*
G02*
X165500000Y-106985000I0J-150000D01*
G01*
X165500000Y-107285000D01*
G75*
G02*
X165350000Y-107435000I-150000J0D01*
G01*
X163700000Y-107435000D01*
G75*
G02*
X163550000Y-107285000I0J150000D01*
G01*
G37*
G36*
G01*
X163550000Y-108555000D02*
X163550000Y-108255000D01*
G75*
G02*
X163700000Y-108105000I150000J0D01*
G01*
X165350000Y-108105000D01*
G75*
G02*
X165500000Y-108255000I0J-150000D01*
G01*
X165500000Y-108555000D01*
G75*
G02*
X165350000Y-108705000I-150000J0D01*
G01*
X163700000Y-108705000D01*
G75*
G02*
X163550000Y-108555000I0J150000D01*
G01*
G37*
G36*
G01*
X168500000Y-108555000D02*
X168500000Y-108255000D01*
G75*
G02*
X168650000Y-108105000I150000J0D01*
G01*
X170300000Y-108105000D01*
G75*
G02*
X170450000Y-108255000I0J-150000D01*
G01*
X170450000Y-108555000D01*
G75*
G02*
X170300000Y-108705000I-150000J0D01*
G01*
X168650000Y-108705000D01*
G75*
G02*
X168500000Y-108555000I0J150000D01*
G01*
G37*
G36*
G01*
X168500000Y-107285000D02*
X168500000Y-106985000D01*
G75*
G02*
X168650000Y-106835000I150000J0D01*
G01*
X170300000Y-106835000D01*
G75*
G02*
X170450000Y-106985000I0J-150000D01*
G01*
X170450000Y-107285000D01*
G75*
G02*
X170300000Y-107435000I-150000J0D01*
G01*
X168650000Y-107435000D01*
G75*
G02*
X168500000Y-107285000I0J150000D01*
G01*
G37*
G36*
G01*
X168500000Y-106015000D02*
X168500000Y-105715000D01*
G75*
G02*
X168650000Y-105565000I150000J0D01*
G01*
X170300000Y-105565000D01*
G75*
G02*
X170450000Y-105715000I0J-150000D01*
G01*
X170450000Y-106015000D01*
G75*
G02*
X170300000Y-106165000I-150000J0D01*
G01*
X168650000Y-106165000D01*
G75*
G02*
X168500000Y-106015000I0J150000D01*
G01*
G37*
G36*
G01*
X168500000Y-104745000D02*
X168500000Y-104445000D01*
G75*
G02*
X168650000Y-104295000I150000J0D01*
G01*
X170300000Y-104295000D01*
G75*
G02*
X170450000Y-104445000I0J-150000D01*
G01*
X170450000Y-104745000D01*
G75*
G02*
X170300000Y-104895000I-150000J0D01*
G01*
X168650000Y-104895000D01*
G75*
G02*
X168500000Y-104745000I0J150000D01*
G01*
G37*
%TD*%
%TO.C,R3*%
G36*
G01*
X160049999Y-108950000D02*
X160950001Y-108950000D01*
G75*
G02*
X161200000Y-109199999I0J-249999D01*
G01*
X161200000Y-109850001D01*
G75*
G02*
X160950001Y-110100000I-249999J0D01*
G01*
X160049999Y-110100000D01*
G75*
G02*
X159800000Y-109850001I0J249999D01*
G01*
X159800000Y-109199999D01*
G75*
G02*
X160049999Y-108950000I249999J0D01*
G01*
G37*
G36*
G01*
X160049999Y-106900000D02*
X160950001Y-106900000D01*
G75*
G02*
X161200000Y-107149999I0J-249999D01*
G01*
X161200000Y-107800001D01*
G75*
G02*
X160950001Y-108050000I-249999J0D01*
G01*
X160049999Y-108050000D01*
G75*
G02*
X159800000Y-107800001I0J249999D01*
G01*
X159800000Y-107149999D01*
G75*
G02*
X160049999Y-106900000I249999J0D01*
G01*
G37*
%TD*%
%TO.C,R2*%
G36*
G01*
X173049999Y-109950000D02*
X173950001Y-109950000D01*
G75*
G02*
X174200000Y-110199999I0J-249999D01*
G01*
X174200000Y-110850001D01*
G75*
G02*
X173950001Y-111100000I-249999J0D01*
G01*
X173049999Y-111100000D01*
G75*
G02*
X172800000Y-110850001I0J249999D01*
G01*
X172800000Y-110199999D01*
G75*
G02*
X173049999Y-109950000I249999J0D01*
G01*
G37*
G36*
G01*
X173049999Y-107900000D02*
X173950001Y-107900000D01*
G75*
G02*
X174200000Y-108149999I0J-249999D01*
G01*
X174200000Y-108800001D01*
G75*
G02*
X173950001Y-109050000I-249999J0D01*
G01*
X173049999Y-109050000D01*
G75*
G02*
X172800000Y-108800001I0J249999D01*
G01*
X172800000Y-108149999D01*
G75*
G02*
X173049999Y-107900000I249999J0D01*
G01*
G37*
%TD*%
%TO.C,R1*%
G36*
G01*
X173049999Y-105975000D02*
X173950001Y-105975000D01*
G75*
G02*
X174200000Y-106224999I0J-249999D01*
G01*
X174200000Y-106875001D01*
G75*
G02*
X173950001Y-107125000I-249999J0D01*
G01*
X173049999Y-107125000D01*
G75*
G02*
X172800000Y-106875001I0J249999D01*
G01*
X172800000Y-106224999D01*
G75*
G02*
X173049999Y-105975000I249999J0D01*
G01*
G37*
G36*
G01*
X173049999Y-103925000D02*
X173950001Y-103925000D01*
G75*
G02*
X174200000Y-104174999I0J-249999D01*
G01*
X174200000Y-104825001D01*
G75*
G02*
X173950001Y-105075000I-249999J0D01*
G01*
X173049999Y-105075000D01*
G75*
G02*
X172800000Y-104825001I0J249999D01*
G01*
X172800000Y-104174999D01*
G75*
G02*
X173049999Y-103925000I249999J0D01*
G01*
G37*
%TD*%
%TO.C,D1*%
G36*
G01*
X160950001Y-112075000D02*
X160049999Y-112075000D01*
G75*
G02*
X159800000Y-111825001I0J249999D01*
G01*
X159800000Y-111174999D01*
G75*
G02*
X160049999Y-110925000I249999J0D01*
G01*
X160950001Y-110925000D01*
G75*
G02*
X161200000Y-111174999I0J-249999D01*
G01*
X161200000Y-111825001D01*
G75*
G02*
X160950001Y-112075000I-249999J0D01*
G01*
G37*
G36*
G01*
X160950001Y-114125000D02*
X160049999Y-114125000D01*
G75*
G02*
X159800000Y-113875001I0J249999D01*
G01*
X159800000Y-113224999D01*
G75*
G02*
X160049999Y-112975000I249999J0D01*
G01*
X160950001Y-112975000D01*
G75*
G02*
X161200000Y-113224999I0J-249999D01*
G01*
X161200000Y-113875001D01*
G75*
G02*
X160950001Y-114125000I-249999J0D01*
G01*
G37*
%TD*%
%TO.C,C1*%
G36*
G01*
X160950001Y-104050000D02*
X160049999Y-104050000D01*
G75*
G02*
X159800000Y-103800001I0J249999D01*
G01*
X159800000Y-103149999D01*
G75*
G02*
X160049999Y-102900000I249999J0D01*
G01*
X160950001Y-102900000D01*
G75*
G02*
X161200000Y-103149999I0J-249999D01*
G01*
X161200000Y-103800001D01*
G75*
G02*
X160950001Y-104050000I-249999J0D01*
G01*
G37*
G36*
G01*
X160950001Y-106100000D02*
X160049999Y-106100000D01*
G75*
G02*
X159800000Y-105850001I0J249999D01*
G01*
X159800000Y-105199999D01*
G75*
G02*
X160049999Y-104950000I249999J0D01*
G01*
X160950001Y-104950000D01*
G75*
G02*
X161200000Y-105199999I0J-249999D01*
G01*
X161200000Y-105850001D01*
G75*
G02*
X160950001Y-106100000I-249999J0D01*
G01*
G37*
%TD*%
M02*
