%TF.GenerationSoftware,KiCad,Pcbnew,(5.1.6)-1*%
%TF.CreationDate,2020-09-22T06:28:04-04:00*%
%TF.ProjectId,Tutorial,5475746f-7269-4616-9c2e-6b696361645f,rev?*%
%TF.SameCoordinates,Original*%
%TF.FileFunction,Copper,L2,Bot*%
%TF.FilePolarity,Positive*%
%FSLAX46Y46*%
G04 Gerber Fmt 4.6, Leading zero omitted, Abs format (unit mm)*
G04 Created by KiCad (PCBNEW (5.1.6)-1) date 2020-09-22 06:28:04*
%MOMM*%
%LPD*%
G01*
G04 APERTURE LIST*
%TA.AperFunction,SMDPad,CuDef*%
%ADD10R,5.500000X5.500000*%
%TD*%
%TA.AperFunction,SMDPad,CuDef*%
%ADD11R,4.000000X4.000000*%
%TD*%
%TA.AperFunction,ViaPad*%
%ADD12C,0.800000*%
%TD*%
%TA.AperFunction,Conductor*%
%ADD13C,0.250000*%
%TD*%
%TA.AperFunction,Conductor*%
%ADD14C,0.254000*%
%TD*%
G04 APERTURE END LIST*
D10*
%TO.P,BT1,1*%
%TO.N,/VDD*%
X173800000Y-87000000D03*
X148200000Y-87000000D03*
D11*
%TO.P,BT1,2*%
%TO.N,GND*%
X161000000Y-87000000D03*
%TD*%
D12*
%TO.N,GND*%
X154000000Y-97000000D03*
X154000000Y-81000000D03*
X158900000Y-83700000D03*
%TO.N,/VDD*%
X148300000Y-81300000D03*
X173900000Y-81800000D03*
%TD*%
D13*
%TO.N,/VDD*%
X148200000Y-87000000D02*
X148200000Y-81400000D01*
X148200000Y-81400000D02*
X148300000Y-81300000D01*
X173800000Y-87000000D02*
X173700000Y-87100000D01*
X173800000Y-87000000D02*
X173800000Y-81900000D01*
X173800000Y-81900000D02*
X173900000Y-81800000D01*
%TD*%
D14*
%TO.N,GND*%
G36*
X176340001Y-83611928D02*
G01*
X174560000Y-83611928D01*
X174560000Y-82603711D01*
X174703937Y-82459774D01*
X174817205Y-82290256D01*
X174895226Y-82101898D01*
X174935000Y-81901939D01*
X174935000Y-81698061D01*
X174895226Y-81498102D01*
X174817205Y-81309744D01*
X174703937Y-81140226D01*
X174559774Y-80996063D01*
X174390256Y-80882795D01*
X174201898Y-80804774D01*
X174001939Y-80765000D01*
X173798061Y-80765000D01*
X173598102Y-80804774D01*
X173409744Y-80882795D01*
X173240226Y-80996063D01*
X173096063Y-81140226D01*
X172982795Y-81309744D01*
X172904774Y-81498102D01*
X172865000Y-81698061D01*
X172865000Y-81901939D01*
X172904774Y-82101898D01*
X172982795Y-82290256D01*
X173040001Y-82375871D01*
X173040001Y-83611928D01*
X171050000Y-83611928D01*
X170925518Y-83624188D01*
X170805820Y-83660498D01*
X170695506Y-83719463D01*
X170598815Y-83798815D01*
X170519463Y-83895506D01*
X170460498Y-84005820D01*
X170424188Y-84125518D01*
X170411928Y-84250000D01*
X170411928Y-89750000D01*
X170424188Y-89874482D01*
X170460498Y-89994180D01*
X170519463Y-90104494D01*
X170598815Y-90201185D01*
X170695506Y-90280537D01*
X170805820Y-90339502D01*
X170925518Y-90375812D01*
X171050000Y-90388072D01*
X176340000Y-90388072D01*
X176340000Y-101340000D01*
X145660000Y-101340000D01*
X145660000Y-90388072D01*
X150950000Y-90388072D01*
X151074482Y-90375812D01*
X151194180Y-90339502D01*
X151304494Y-90280537D01*
X151401185Y-90201185D01*
X151480537Y-90104494D01*
X151539502Y-89994180D01*
X151575812Y-89874482D01*
X151588072Y-89750000D01*
X151588072Y-89000000D01*
X158361928Y-89000000D01*
X158374188Y-89124482D01*
X158410498Y-89244180D01*
X158469463Y-89354494D01*
X158548815Y-89451185D01*
X158645506Y-89530537D01*
X158755820Y-89589502D01*
X158875518Y-89625812D01*
X159000000Y-89638072D01*
X160714250Y-89635000D01*
X160873000Y-89476250D01*
X160873000Y-87127000D01*
X161127000Y-87127000D01*
X161127000Y-89476250D01*
X161285750Y-89635000D01*
X163000000Y-89638072D01*
X163124482Y-89625812D01*
X163244180Y-89589502D01*
X163354494Y-89530537D01*
X163451185Y-89451185D01*
X163530537Y-89354494D01*
X163589502Y-89244180D01*
X163625812Y-89124482D01*
X163638072Y-89000000D01*
X163635000Y-87285750D01*
X163476250Y-87127000D01*
X161127000Y-87127000D01*
X160873000Y-87127000D01*
X158523750Y-87127000D01*
X158365000Y-87285750D01*
X158361928Y-89000000D01*
X151588072Y-89000000D01*
X151588072Y-85000000D01*
X158361928Y-85000000D01*
X158365000Y-86714250D01*
X158523750Y-86873000D01*
X160873000Y-86873000D01*
X160873000Y-84523750D01*
X161127000Y-84523750D01*
X161127000Y-86873000D01*
X163476250Y-86873000D01*
X163635000Y-86714250D01*
X163638072Y-85000000D01*
X163625812Y-84875518D01*
X163589502Y-84755820D01*
X163530537Y-84645506D01*
X163451185Y-84548815D01*
X163354494Y-84469463D01*
X163244180Y-84410498D01*
X163124482Y-84374188D01*
X163000000Y-84361928D01*
X161285750Y-84365000D01*
X161127000Y-84523750D01*
X160873000Y-84523750D01*
X160714250Y-84365000D01*
X159000000Y-84361928D01*
X158875518Y-84374188D01*
X158755820Y-84410498D01*
X158645506Y-84469463D01*
X158548815Y-84548815D01*
X158469463Y-84645506D01*
X158410498Y-84755820D01*
X158374188Y-84875518D01*
X158361928Y-85000000D01*
X151588072Y-85000000D01*
X151588072Y-84250000D01*
X151575812Y-84125518D01*
X151539502Y-84005820D01*
X151480537Y-83895506D01*
X151401185Y-83798815D01*
X151304494Y-83719463D01*
X151194180Y-83660498D01*
X151074482Y-83624188D01*
X150950000Y-83611928D01*
X148960000Y-83611928D01*
X148960000Y-82103711D01*
X149103937Y-81959774D01*
X149217205Y-81790256D01*
X149295226Y-81601898D01*
X149335000Y-81401939D01*
X149335000Y-81198061D01*
X149295226Y-80998102D01*
X149217205Y-80809744D01*
X149103937Y-80640226D01*
X148959774Y-80496063D01*
X148790256Y-80382795D01*
X148601898Y-80304774D01*
X148401939Y-80265000D01*
X148198061Y-80265000D01*
X147998102Y-80304774D01*
X147809744Y-80382795D01*
X147640226Y-80496063D01*
X147496063Y-80640226D01*
X147382795Y-80809744D01*
X147304774Y-80998102D01*
X147265000Y-81198061D01*
X147265000Y-81401939D01*
X147304774Y-81601898D01*
X147382795Y-81790256D01*
X147440001Y-81875871D01*
X147440001Y-83611928D01*
X145660000Y-83611928D01*
X145660000Y-72660000D01*
X176340001Y-72660000D01*
X176340001Y-83611928D01*
G37*
X176340001Y-83611928D02*
X174560000Y-83611928D01*
X174560000Y-82603711D01*
X174703937Y-82459774D01*
X174817205Y-82290256D01*
X174895226Y-82101898D01*
X174935000Y-81901939D01*
X174935000Y-81698061D01*
X174895226Y-81498102D01*
X174817205Y-81309744D01*
X174703937Y-81140226D01*
X174559774Y-80996063D01*
X174390256Y-80882795D01*
X174201898Y-80804774D01*
X174001939Y-80765000D01*
X173798061Y-80765000D01*
X173598102Y-80804774D01*
X173409744Y-80882795D01*
X173240226Y-80996063D01*
X173096063Y-81140226D01*
X172982795Y-81309744D01*
X172904774Y-81498102D01*
X172865000Y-81698061D01*
X172865000Y-81901939D01*
X172904774Y-82101898D01*
X172982795Y-82290256D01*
X173040001Y-82375871D01*
X173040001Y-83611928D01*
X171050000Y-83611928D01*
X170925518Y-83624188D01*
X170805820Y-83660498D01*
X170695506Y-83719463D01*
X170598815Y-83798815D01*
X170519463Y-83895506D01*
X170460498Y-84005820D01*
X170424188Y-84125518D01*
X170411928Y-84250000D01*
X170411928Y-89750000D01*
X170424188Y-89874482D01*
X170460498Y-89994180D01*
X170519463Y-90104494D01*
X170598815Y-90201185D01*
X170695506Y-90280537D01*
X170805820Y-90339502D01*
X170925518Y-90375812D01*
X171050000Y-90388072D01*
X176340000Y-90388072D01*
X176340000Y-101340000D01*
X145660000Y-101340000D01*
X145660000Y-90388072D01*
X150950000Y-90388072D01*
X151074482Y-90375812D01*
X151194180Y-90339502D01*
X151304494Y-90280537D01*
X151401185Y-90201185D01*
X151480537Y-90104494D01*
X151539502Y-89994180D01*
X151575812Y-89874482D01*
X151588072Y-89750000D01*
X151588072Y-89000000D01*
X158361928Y-89000000D01*
X158374188Y-89124482D01*
X158410498Y-89244180D01*
X158469463Y-89354494D01*
X158548815Y-89451185D01*
X158645506Y-89530537D01*
X158755820Y-89589502D01*
X158875518Y-89625812D01*
X159000000Y-89638072D01*
X160714250Y-89635000D01*
X160873000Y-89476250D01*
X160873000Y-87127000D01*
X161127000Y-87127000D01*
X161127000Y-89476250D01*
X161285750Y-89635000D01*
X163000000Y-89638072D01*
X163124482Y-89625812D01*
X163244180Y-89589502D01*
X163354494Y-89530537D01*
X163451185Y-89451185D01*
X163530537Y-89354494D01*
X163589502Y-89244180D01*
X163625812Y-89124482D01*
X163638072Y-89000000D01*
X163635000Y-87285750D01*
X163476250Y-87127000D01*
X161127000Y-87127000D01*
X160873000Y-87127000D01*
X158523750Y-87127000D01*
X158365000Y-87285750D01*
X158361928Y-89000000D01*
X151588072Y-89000000D01*
X151588072Y-85000000D01*
X158361928Y-85000000D01*
X158365000Y-86714250D01*
X158523750Y-86873000D01*
X160873000Y-86873000D01*
X160873000Y-84523750D01*
X161127000Y-84523750D01*
X161127000Y-86873000D01*
X163476250Y-86873000D01*
X163635000Y-86714250D01*
X163638072Y-85000000D01*
X163625812Y-84875518D01*
X163589502Y-84755820D01*
X163530537Y-84645506D01*
X163451185Y-84548815D01*
X163354494Y-84469463D01*
X163244180Y-84410498D01*
X163124482Y-84374188D01*
X163000000Y-84361928D01*
X161285750Y-84365000D01*
X161127000Y-84523750D01*
X160873000Y-84523750D01*
X160714250Y-84365000D01*
X159000000Y-84361928D01*
X158875518Y-84374188D01*
X158755820Y-84410498D01*
X158645506Y-84469463D01*
X158548815Y-84548815D01*
X158469463Y-84645506D01*
X158410498Y-84755820D01*
X158374188Y-84875518D01*
X158361928Y-85000000D01*
X151588072Y-85000000D01*
X151588072Y-84250000D01*
X151575812Y-84125518D01*
X151539502Y-84005820D01*
X151480537Y-83895506D01*
X151401185Y-83798815D01*
X151304494Y-83719463D01*
X151194180Y-83660498D01*
X151074482Y-83624188D01*
X150950000Y-83611928D01*
X148960000Y-83611928D01*
X148960000Y-82103711D01*
X149103937Y-81959774D01*
X149217205Y-81790256D01*
X149295226Y-81601898D01*
X149335000Y-81401939D01*
X149335000Y-81198061D01*
X149295226Y-80998102D01*
X149217205Y-80809744D01*
X149103937Y-80640226D01*
X148959774Y-80496063D01*
X148790256Y-80382795D01*
X148601898Y-80304774D01*
X148401939Y-80265000D01*
X148198061Y-80265000D01*
X147998102Y-80304774D01*
X147809744Y-80382795D01*
X147640226Y-80496063D01*
X147496063Y-80640226D01*
X147382795Y-80809744D01*
X147304774Y-80998102D01*
X147265000Y-81198061D01*
X147265000Y-81401939D01*
X147304774Y-81601898D01*
X147382795Y-81790256D01*
X147440001Y-81875871D01*
X147440001Y-83611928D01*
X145660000Y-83611928D01*
X145660000Y-72660000D01*
X176340001Y-72660000D01*
X176340001Y-83611928D01*
%TD*%
M02*
