%TF.GenerationSoftware,KiCad,Pcbnew,(5.1.6)-1*%
%TF.CreationDate,2020-09-22T06:28:04-04:00*%
%TF.ProjectId,Tutorial,5475746f-7269-4616-9c2e-6b696361645f,rev?*%
%TF.SameCoordinates,Original*%
%TF.FileFunction,Copper,L1,Top*%
%TF.FilePolarity,Positive*%
%FSLAX46Y46*%
G04 Gerber Fmt 4.6, Leading zero omitted, Abs format (unit mm)*
G04 Created by KiCad (PCBNEW (5.1.6)-1) date 2020-09-22 06:28:04*
%MOMM*%
%LPD*%
G01*
G04 APERTURE LIST*
%TA.AperFunction,ViaPad*%
%ADD10C,0.800000*%
%TD*%
%TA.AperFunction,Conductor*%
%ADD11C,0.250000*%
%TD*%
%TA.AperFunction,Conductor*%
%ADD12C,0.254000*%
%TD*%
G04 APERTURE END LIST*
%TO.P,U1,8*%
%TO.N,/VDD*%
%TA.AperFunction,SMDPad,CuDef*%
G36*
G01*
X162300000Y-86125000D02*
X162300000Y-85925000D01*
G75*
G02*
X162400000Y-85825000I100000J0D01*
G01*
X163825000Y-85825000D01*
G75*
G02*
X163925000Y-85925000I0J-100000D01*
G01*
X163925000Y-86125000D01*
G75*
G02*
X163825000Y-86225000I-100000J0D01*
G01*
X162400000Y-86225000D01*
G75*
G02*
X162300000Y-86125000I0J100000D01*
G01*
G37*
%TD.AperFunction*%
%TO.P,U1,7*%
%TO.N,Net-(R1-Pad2)*%
%TA.AperFunction,SMDPad,CuDef*%
G36*
G01*
X162300000Y-86775000D02*
X162300000Y-86575000D01*
G75*
G02*
X162400000Y-86475000I100000J0D01*
G01*
X163825000Y-86475000D01*
G75*
G02*
X163925000Y-86575000I0J-100000D01*
G01*
X163925000Y-86775000D01*
G75*
G02*
X163825000Y-86875000I-100000J0D01*
G01*
X162400000Y-86875000D01*
G75*
G02*
X162300000Y-86775000I0J100000D01*
G01*
G37*
%TD.AperFunction*%
%TO.P,U1,6*%
%TO.N,Net-(C1-Pad1)*%
%TA.AperFunction,SMDPad,CuDef*%
G36*
G01*
X162300000Y-87425000D02*
X162300000Y-87225000D01*
G75*
G02*
X162400000Y-87125000I100000J0D01*
G01*
X163825000Y-87125000D01*
G75*
G02*
X163925000Y-87225000I0J-100000D01*
G01*
X163925000Y-87425000D01*
G75*
G02*
X163825000Y-87525000I-100000J0D01*
G01*
X162400000Y-87525000D01*
G75*
G02*
X162300000Y-87425000I0J100000D01*
G01*
G37*
%TD.AperFunction*%
%TO.P,U1,5*%
%TO.N,N/C*%
%TA.AperFunction,SMDPad,CuDef*%
G36*
G01*
X162300000Y-88075000D02*
X162300000Y-87875000D01*
G75*
G02*
X162400000Y-87775000I100000J0D01*
G01*
X163825000Y-87775000D01*
G75*
G02*
X163925000Y-87875000I0J-100000D01*
G01*
X163925000Y-88075000D01*
G75*
G02*
X163825000Y-88175000I-100000J0D01*
G01*
X162400000Y-88175000D01*
G75*
G02*
X162300000Y-88075000I0J100000D01*
G01*
G37*
%TD.AperFunction*%
%TO.P,U1,4*%
%TO.N,/VDD*%
%TA.AperFunction,SMDPad,CuDef*%
G36*
G01*
X158075000Y-88075000D02*
X158075000Y-87875000D01*
G75*
G02*
X158175000Y-87775000I100000J0D01*
G01*
X159600000Y-87775000D01*
G75*
G02*
X159700000Y-87875000I0J-100000D01*
G01*
X159700000Y-88075000D01*
G75*
G02*
X159600000Y-88175000I-100000J0D01*
G01*
X158175000Y-88175000D01*
G75*
G02*
X158075000Y-88075000I0J100000D01*
G01*
G37*
%TD.AperFunction*%
%TO.P,U1,3*%
%TO.N,Net-(R3-Pad1)*%
%TA.AperFunction,SMDPad,CuDef*%
G36*
G01*
X158075000Y-87425000D02*
X158075000Y-87225000D01*
G75*
G02*
X158175000Y-87125000I100000J0D01*
G01*
X159600000Y-87125000D01*
G75*
G02*
X159700000Y-87225000I0J-100000D01*
G01*
X159700000Y-87425000D01*
G75*
G02*
X159600000Y-87525000I-100000J0D01*
G01*
X158175000Y-87525000D01*
G75*
G02*
X158075000Y-87425000I0J100000D01*
G01*
G37*
%TD.AperFunction*%
%TO.P,U1,2*%
%TO.N,Net-(C1-Pad1)*%
%TA.AperFunction,SMDPad,CuDef*%
G36*
G01*
X158075000Y-86775000D02*
X158075000Y-86575000D01*
G75*
G02*
X158175000Y-86475000I100000J0D01*
G01*
X159600000Y-86475000D01*
G75*
G02*
X159700000Y-86575000I0J-100000D01*
G01*
X159700000Y-86775000D01*
G75*
G02*
X159600000Y-86875000I-100000J0D01*
G01*
X158175000Y-86875000D01*
G75*
G02*
X158075000Y-86775000I0J100000D01*
G01*
G37*
%TD.AperFunction*%
%TO.P,U1,1*%
%TO.N,GND*%
%TA.AperFunction,SMDPad,CuDef*%
G36*
G01*
X158075000Y-86125000D02*
X158075000Y-85925000D01*
G75*
G02*
X158175000Y-85825000I100000J0D01*
G01*
X159600000Y-85825000D01*
G75*
G02*
X159700000Y-85925000I0J-100000D01*
G01*
X159700000Y-86125000D01*
G75*
G02*
X159600000Y-86225000I-100000J0D01*
G01*
X158175000Y-86225000D01*
G75*
G02*
X158075000Y-86125000I0J100000D01*
G01*
G37*
%TD.AperFunction*%
%TD*%
%TO.P,R3,2*%
%TO.N,Net-(D1-Pad2)*%
%TA.AperFunction,SMDPad,CuDef*%
G36*
G01*
X153549999Y-89475000D02*
X154450001Y-89475000D01*
G75*
G02*
X154700000Y-89724999I0J-249999D01*
G01*
X154700000Y-90375001D01*
G75*
G02*
X154450001Y-90625000I-249999J0D01*
G01*
X153549999Y-90625000D01*
G75*
G02*
X153300000Y-90375001I0J249999D01*
G01*
X153300000Y-89724999D01*
G75*
G02*
X153549999Y-89475000I249999J0D01*
G01*
G37*
%TD.AperFunction*%
%TO.P,R3,1*%
%TO.N,Net-(R3-Pad1)*%
%TA.AperFunction,SMDPad,CuDef*%
G36*
G01*
X153549999Y-87425000D02*
X154450001Y-87425000D01*
G75*
G02*
X154700000Y-87674999I0J-249999D01*
G01*
X154700000Y-88325001D01*
G75*
G02*
X154450001Y-88575000I-249999J0D01*
G01*
X153549999Y-88575000D01*
G75*
G02*
X153300000Y-88325001I0J249999D01*
G01*
X153300000Y-87674999D01*
G75*
G02*
X153549999Y-87425000I249999J0D01*
G01*
G37*
%TD.AperFunction*%
%TD*%
%TO.P,R2,2*%
%TO.N,Net-(C1-Pad1)*%
%TA.AperFunction,SMDPad,CuDef*%
G36*
G01*
X167549999Y-90475000D02*
X168450001Y-90475000D01*
G75*
G02*
X168700000Y-90724999I0J-249999D01*
G01*
X168700000Y-91375001D01*
G75*
G02*
X168450001Y-91625000I-249999J0D01*
G01*
X167549999Y-91625000D01*
G75*
G02*
X167300000Y-91375001I0J249999D01*
G01*
X167300000Y-90724999D01*
G75*
G02*
X167549999Y-90475000I249999J0D01*
G01*
G37*
%TD.AperFunction*%
%TO.P,R2,1*%
%TO.N,Net-(R1-Pad2)*%
%TA.AperFunction,SMDPad,CuDef*%
G36*
G01*
X167549999Y-88425000D02*
X168450001Y-88425000D01*
G75*
G02*
X168700000Y-88674999I0J-249999D01*
G01*
X168700000Y-89325001D01*
G75*
G02*
X168450001Y-89575000I-249999J0D01*
G01*
X167549999Y-89575000D01*
G75*
G02*
X167300000Y-89325001I0J249999D01*
G01*
X167300000Y-88674999D01*
G75*
G02*
X167549999Y-88425000I249999J0D01*
G01*
G37*
%TD.AperFunction*%
%TD*%
%TO.P,R1,2*%
%TO.N,Net-(R1-Pad2)*%
%TA.AperFunction,SMDPad,CuDef*%
G36*
G01*
X167549999Y-84450000D02*
X168450001Y-84450000D01*
G75*
G02*
X168700000Y-84699999I0J-249999D01*
G01*
X168700000Y-85350001D01*
G75*
G02*
X168450001Y-85600000I-249999J0D01*
G01*
X167549999Y-85600000D01*
G75*
G02*
X167300000Y-85350001I0J249999D01*
G01*
X167300000Y-84699999D01*
G75*
G02*
X167549999Y-84450000I249999J0D01*
G01*
G37*
%TD.AperFunction*%
%TO.P,R1,1*%
%TO.N,/VDD*%
%TA.AperFunction,SMDPad,CuDef*%
G36*
G01*
X167549999Y-82400000D02*
X168450001Y-82400000D01*
G75*
G02*
X168700000Y-82649999I0J-249999D01*
G01*
X168700000Y-83300001D01*
G75*
G02*
X168450001Y-83550000I-249999J0D01*
G01*
X167549999Y-83550000D01*
G75*
G02*
X167300000Y-83300001I0J249999D01*
G01*
X167300000Y-82649999D01*
G75*
G02*
X167549999Y-82400000I249999J0D01*
G01*
G37*
%TD.AperFunction*%
%TD*%
%TO.P,D1,2*%
%TO.N,Net-(D1-Pad2)*%
%TA.AperFunction,SMDPad,CuDef*%
G36*
G01*
X154450001Y-93575000D02*
X153549999Y-93575000D01*
G75*
G02*
X153300000Y-93325001I0J249999D01*
G01*
X153300000Y-92674999D01*
G75*
G02*
X153549999Y-92425000I249999J0D01*
G01*
X154450001Y-92425000D01*
G75*
G02*
X154700000Y-92674999I0J-249999D01*
G01*
X154700000Y-93325001D01*
G75*
G02*
X154450001Y-93575000I-249999J0D01*
G01*
G37*
%TD.AperFunction*%
%TO.P,D1,1*%
%TO.N,GND*%
%TA.AperFunction,SMDPad,CuDef*%
G36*
G01*
X154450001Y-95625000D02*
X153549999Y-95625000D01*
G75*
G02*
X153300000Y-95375001I0J249999D01*
G01*
X153300000Y-94724999D01*
G75*
G02*
X153549999Y-94475000I249999J0D01*
G01*
X154450001Y-94475000D01*
G75*
G02*
X154700000Y-94724999I0J-249999D01*
G01*
X154700000Y-95375001D01*
G75*
G02*
X154450001Y-95625000I-249999J0D01*
G01*
G37*
%TD.AperFunction*%
%TD*%
%TO.P,C1,2*%
%TO.N,GND*%
%TA.AperFunction,SMDPad,CuDef*%
G36*
G01*
X154450001Y-83575000D02*
X153549999Y-83575000D01*
G75*
G02*
X153300000Y-83325001I0J249999D01*
G01*
X153300000Y-82674999D01*
G75*
G02*
X153549999Y-82425000I249999J0D01*
G01*
X154450001Y-82425000D01*
G75*
G02*
X154700000Y-82674999I0J-249999D01*
G01*
X154700000Y-83325001D01*
G75*
G02*
X154450001Y-83575000I-249999J0D01*
G01*
G37*
%TD.AperFunction*%
%TO.P,C1,1*%
%TO.N,Net-(C1-Pad1)*%
%TA.AperFunction,SMDPad,CuDef*%
G36*
G01*
X154450001Y-85625000D02*
X153549999Y-85625000D01*
G75*
G02*
X153300000Y-85375001I0J249999D01*
G01*
X153300000Y-84724999D01*
G75*
G02*
X153549999Y-84475000I249999J0D01*
G01*
X154450001Y-84475000D01*
G75*
G02*
X154700000Y-84724999I0J-249999D01*
G01*
X154700000Y-85375001D01*
G75*
G02*
X154450001Y-85625000I-249999J0D01*
G01*
G37*
%TD.AperFunction*%
%TD*%
D10*
%TO.N,GND*%
X154000000Y-97000000D03*
X154000000Y-81000000D03*
X158900000Y-83700000D03*
%TO.N,/VDD*%
X148300000Y-81300000D03*
X173900000Y-81800000D03*
%TD*%
D11*
%TO.N,GND*%
X154000000Y-95050000D02*
X154000000Y-97000000D01*
X154000000Y-83000000D02*
X154000000Y-81000000D01*
X158887500Y-86025000D02*
X158887500Y-83712500D01*
X158887500Y-83712500D02*
X158900000Y-83700000D01*
%TO.N,Net-(C1-Pad1)*%
X155625000Y-86675000D02*
X158887500Y-86675000D01*
X154000000Y-85050000D02*
X155625000Y-86675000D01*
X164275000Y-87325000D02*
X163112500Y-87325000D01*
X168000000Y-91050000D02*
X164275000Y-87325000D01*
X159651058Y-86675000D02*
X158887500Y-86675000D01*
X160301058Y-87325000D02*
X159651058Y-86675000D01*
X163112500Y-87325000D02*
X160301058Y-87325000D01*
%TO.N,Net-(D1-Pad2)*%
X154000000Y-93000000D02*
X154000000Y-90050000D01*
%TO.N,Net-(R1-Pad2)*%
X168000000Y-85025000D02*
X168000000Y-89000000D01*
X166350000Y-86675000D02*
X163112500Y-86675000D01*
X168000000Y-85025000D02*
X166350000Y-86675000D01*
%TO.N,Net-(R3-Pad1)*%
X154675000Y-87325000D02*
X158887500Y-87325000D01*
X154000000Y-88000000D02*
X154675000Y-87325000D01*
%TO.N,/VDD*%
X166162500Y-82975000D02*
X163112500Y-86025000D01*
X168000000Y-82975000D02*
X166162500Y-82975000D01*
%TD*%
D12*
%TO.N,/VDD*%
G36*
X176340000Y-101340000D02*
G01*
X145660000Y-101340000D01*
X145660000Y-82674999D01*
X152661928Y-82674999D01*
X152661928Y-83325001D01*
X152678992Y-83498255D01*
X152729528Y-83664851D01*
X152811595Y-83818387D01*
X152922038Y-83952962D01*
X153009816Y-84025000D01*
X152922038Y-84097038D01*
X152811595Y-84231613D01*
X152729528Y-84385149D01*
X152678992Y-84551745D01*
X152661928Y-84724999D01*
X152661928Y-85375001D01*
X152678992Y-85548255D01*
X152729528Y-85714851D01*
X152811595Y-85868387D01*
X152922038Y-86002962D01*
X153056613Y-86113405D01*
X153210149Y-86195472D01*
X153376745Y-86246008D01*
X153549999Y-86263072D01*
X154138271Y-86263072D01*
X154468609Y-86593410D01*
X154409581Y-86611316D01*
X154382753Y-86619454D01*
X154250723Y-86690026D01*
X154234788Y-86703104D01*
X154134999Y-86784999D01*
X154133416Y-86786928D01*
X153549999Y-86786928D01*
X153376745Y-86803992D01*
X153210149Y-86854528D01*
X153056613Y-86936595D01*
X152922038Y-87047038D01*
X152811595Y-87181613D01*
X152729528Y-87335149D01*
X152678992Y-87501745D01*
X152661928Y-87674999D01*
X152661928Y-88325001D01*
X152678992Y-88498255D01*
X152729528Y-88664851D01*
X152811595Y-88818387D01*
X152922038Y-88952962D01*
X153009816Y-89025000D01*
X152922038Y-89097038D01*
X152811595Y-89231613D01*
X152729528Y-89385149D01*
X152678992Y-89551745D01*
X152661928Y-89724999D01*
X152661928Y-90375001D01*
X152678992Y-90548255D01*
X152729528Y-90714851D01*
X152811595Y-90868387D01*
X152922038Y-91002962D01*
X153056613Y-91113405D01*
X153210149Y-91195472D01*
X153240001Y-91204527D01*
X153240000Y-91845473D01*
X153210149Y-91854528D01*
X153056613Y-91936595D01*
X152922038Y-92047038D01*
X152811595Y-92181613D01*
X152729528Y-92335149D01*
X152678992Y-92501745D01*
X152661928Y-92674999D01*
X152661928Y-93325001D01*
X152678992Y-93498255D01*
X152729528Y-93664851D01*
X152811595Y-93818387D01*
X152922038Y-93952962D01*
X153009816Y-94025000D01*
X152922038Y-94097038D01*
X152811595Y-94231613D01*
X152729528Y-94385149D01*
X152678992Y-94551745D01*
X152661928Y-94724999D01*
X152661928Y-95375001D01*
X152678992Y-95548255D01*
X152729528Y-95714851D01*
X152811595Y-95868387D01*
X152922038Y-96002962D01*
X153056613Y-96113405D01*
X153210149Y-96195472D01*
X153240001Y-96204527D01*
X153240001Y-96296288D01*
X153196063Y-96340226D01*
X153082795Y-96509744D01*
X153004774Y-96698102D01*
X152965000Y-96898061D01*
X152965000Y-97101939D01*
X153004774Y-97301898D01*
X153082795Y-97490256D01*
X153196063Y-97659774D01*
X153340226Y-97803937D01*
X153509744Y-97917205D01*
X153698102Y-97995226D01*
X153898061Y-98035000D01*
X154101939Y-98035000D01*
X154301898Y-97995226D01*
X154490256Y-97917205D01*
X154659774Y-97803937D01*
X154803937Y-97659774D01*
X154917205Y-97490256D01*
X154995226Y-97301898D01*
X155035000Y-97101939D01*
X155035000Y-96898061D01*
X154995226Y-96698102D01*
X154917205Y-96509744D01*
X154803937Y-96340226D01*
X154760000Y-96296289D01*
X154760000Y-96204527D01*
X154789851Y-96195472D01*
X154943387Y-96113405D01*
X155077962Y-96002962D01*
X155188405Y-95868387D01*
X155270472Y-95714851D01*
X155321008Y-95548255D01*
X155338072Y-95375001D01*
X155338072Y-94724999D01*
X155321008Y-94551745D01*
X155270472Y-94385149D01*
X155188405Y-94231613D01*
X155077962Y-94097038D01*
X154990184Y-94025000D01*
X155077962Y-93952962D01*
X155188405Y-93818387D01*
X155270472Y-93664851D01*
X155321008Y-93498255D01*
X155338072Y-93325001D01*
X155338072Y-92674999D01*
X155321008Y-92501745D01*
X155270472Y-92335149D01*
X155188405Y-92181613D01*
X155077962Y-92047038D01*
X154943387Y-91936595D01*
X154789851Y-91854528D01*
X154760000Y-91845473D01*
X154760000Y-91204527D01*
X154789851Y-91195472D01*
X154943387Y-91113405D01*
X155077962Y-91002962D01*
X155188405Y-90868387D01*
X155270472Y-90714851D01*
X155321008Y-90548255D01*
X155338072Y-90375001D01*
X155338072Y-89724999D01*
X155321008Y-89551745D01*
X155270472Y-89385149D01*
X155188405Y-89231613D01*
X155077962Y-89097038D01*
X154990184Y-89025000D01*
X155077962Y-88952962D01*
X155188405Y-88818387D01*
X155270472Y-88664851D01*
X155321008Y-88498255D01*
X155338072Y-88325001D01*
X155338072Y-88085000D01*
X157440000Y-88085000D01*
X157440000Y-88102002D01*
X157544748Y-88102002D01*
X157440000Y-88206750D01*
X157450999Y-88308260D01*
X157488987Y-88427436D01*
X157549495Y-88536911D01*
X157630197Y-88632478D01*
X157727994Y-88710465D01*
X157839125Y-88767874D01*
X157959322Y-88802499D01*
X158083963Y-88813009D01*
X158601750Y-88810000D01*
X158760500Y-88651250D01*
X158760500Y-88163072D01*
X159014500Y-88163072D01*
X159014500Y-88651250D01*
X159173250Y-88810000D01*
X159691037Y-88813009D01*
X159815678Y-88802499D01*
X159935875Y-88767874D01*
X160047006Y-88710465D01*
X160144803Y-88632478D01*
X160225505Y-88536911D01*
X160286013Y-88427436D01*
X160324001Y-88308260D01*
X160335000Y-88206750D01*
X160230252Y-88102002D01*
X160335000Y-88102002D01*
X160335000Y-88085333D01*
X160338381Y-88085000D01*
X161662913Y-88085000D01*
X161676110Y-88218991D01*
X161718110Y-88357448D01*
X161786316Y-88485051D01*
X161878104Y-88596896D01*
X161989949Y-88688684D01*
X162117552Y-88756890D01*
X162256009Y-88798890D01*
X162400000Y-88813072D01*
X163825000Y-88813072D01*
X163968991Y-88798890D01*
X164107448Y-88756890D01*
X164235051Y-88688684D01*
X164346896Y-88596896D01*
X164403330Y-88528131D01*
X166661928Y-90786730D01*
X166661928Y-91375001D01*
X166678992Y-91548255D01*
X166729528Y-91714851D01*
X166811595Y-91868387D01*
X166922038Y-92002962D01*
X167056613Y-92113405D01*
X167210149Y-92195472D01*
X167376745Y-92246008D01*
X167549999Y-92263072D01*
X168450001Y-92263072D01*
X168623255Y-92246008D01*
X168789851Y-92195472D01*
X168943387Y-92113405D01*
X169077962Y-92002962D01*
X169188405Y-91868387D01*
X169270472Y-91714851D01*
X169321008Y-91548255D01*
X169338072Y-91375001D01*
X169338072Y-90724999D01*
X169321008Y-90551745D01*
X169270472Y-90385149D01*
X169188405Y-90231613D01*
X169077962Y-90097038D01*
X168990184Y-90025000D01*
X169077962Y-89952962D01*
X169188405Y-89818387D01*
X169270472Y-89664851D01*
X169321008Y-89498255D01*
X169338072Y-89325001D01*
X169338072Y-88674999D01*
X169321008Y-88501745D01*
X169270472Y-88335149D01*
X169188405Y-88181613D01*
X169077962Y-88047038D01*
X168943387Y-87936595D01*
X168789851Y-87854528D01*
X168760000Y-87845473D01*
X168760000Y-86179527D01*
X168789851Y-86170472D01*
X168943387Y-86088405D01*
X169077962Y-85977962D01*
X169188405Y-85843387D01*
X169270472Y-85689851D01*
X169321008Y-85523255D01*
X169338072Y-85350001D01*
X169338072Y-84699999D01*
X169321008Y-84526745D01*
X169270472Y-84360149D01*
X169188405Y-84206613D01*
X169077962Y-84072038D01*
X169071406Y-84066658D01*
X169151185Y-84001185D01*
X169230537Y-83904494D01*
X169289502Y-83794180D01*
X169325812Y-83674482D01*
X169338072Y-83550000D01*
X169335000Y-83260750D01*
X169176250Y-83102000D01*
X168127000Y-83102000D01*
X168127000Y-83122000D01*
X167873000Y-83122000D01*
X167873000Y-83102000D01*
X166823750Y-83102000D01*
X166665000Y-83260750D01*
X166661928Y-83550000D01*
X166674188Y-83674482D01*
X166710498Y-83794180D01*
X166769463Y-83904494D01*
X166848815Y-84001185D01*
X166928594Y-84066658D01*
X166922038Y-84072038D01*
X166811595Y-84206613D01*
X166729528Y-84360149D01*
X166678992Y-84526745D01*
X166661928Y-84699999D01*
X166661928Y-85288270D01*
X166035199Y-85915000D01*
X164560000Y-85915000D01*
X164560000Y-85897998D01*
X164455252Y-85897998D01*
X164560000Y-85793250D01*
X164549001Y-85691740D01*
X164511013Y-85572564D01*
X164450505Y-85463089D01*
X164369803Y-85367522D01*
X164272006Y-85289535D01*
X164160875Y-85232126D01*
X164040678Y-85197501D01*
X163916037Y-85186991D01*
X163398250Y-85190000D01*
X163239500Y-85348750D01*
X163239500Y-85836928D01*
X162985500Y-85836928D01*
X162985500Y-85348750D01*
X162826750Y-85190000D01*
X162308963Y-85186991D01*
X162184322Y-85197501D01*
X162064125Y-85232126D01*
X161952994Y-85289535D01*
X161855197Y-85367522D01*
X161774495Y-85463089D01*
X161713987Y-85572564D01*
X161675999Y-85691740D01*
X161665000Y-85793250D01*
X161823750Y-85952000D01*
X162007378Y-85952000D01*
X161989949Y-85961316D01*
X161878104Y-86053104D01*
X161841259Y-86098000D01*
X161823750Y-86098000D01*
X161665000Y-86256750D01*
X161675999Y-86358260D01*
X161687363Y-86393912D01*
X161676110Y-86431009D01*
X161662913Y-86565000D01*
X160615860Y-86565000D01*
X160322950Y-86272091D01*
X160323890Y-86268991D01*
X160338072Y-86125000D01*
X160338072Y-85925000D01*
X160323890Y-85781009D01*
X160281890Y-85642552D01*
X160213684Y-85514949D01*
X160121896Y-85403104D01*
X160010051Y-85311316D01*
X159882448Y-85243110D01*
X159743991Y-85201110D01*
X159647500Y-85191606D01*
X159647500Y-84416211D01*
X159703937Y-84359774D01*
X159817205Y-84190256D01*
X159895226Y-84001898D01*
X159935000Y-83801939D01*
X159935000Y-83598061D01*
X159895226Y-83398102D01*
X159817205Y-83209744D01*
X159703937Y-83040226D01*
X159559774Y-82896063D01*
X159390256Y-82782795D01*
X159201898Y-82704774D01*
X159001939Y-82665000D01*
X158798061Y-82665000D01*
X158598102Y-82704774D01*
X158409744Y-82782795D01*
X158240226Y-82896063D01*
X158096063Y-83040226D01*
X157982795Y-83209744D01*
X157904774Y-83398102D01*
X157865000Y-83598061D01*
X157865000Y-83801939D01*
X157904774Y-84001898D01*
X157982795Y-84190256D01*
X158096063Y-84359774D01*
X158127501Y-84391212D01*
X158127500Y-85191606D01*
X158031009Y-85201110D01*
X157892552Y-85243110D01*
X157764949Y-85311316D01*
X157653104Y-85403104D01*
X157561316Y-85514949D01*
X157493110Y-85642552D01*
X157451110Y-85781009D01*
X157437913Y-85915000D01*
X155939802Y-85915000D01*
X155338072Y-85313271D01*
X155338072Y-84724999D01*
X155321008Y-84551745D01*
X155270472Y-84385149D01*
X155188405Y-84231613D01*
X155077962Y-84097038D01*
X154990184Y-84025000D01*
X155077962Y-83952962D01*
X155188405Y-83818387D01*
X155270472Y-83664851D01*
X155321008Y-83498255D01*
X155338072Y-83325001D01*
X155338072Y-82674999D01*
X155321008Y-82501745D01*
X155290145Y-82400000D01*
X166661928Y-82400000D01*
X166665000Y-82689250D01*
X166823750Y-82848000D01*
X167873000Y-82848000D01*
X167873000Y-81923750D01*
X168127000Y-81923750D01*
X168127000Y-82848000D01*
X169176250Y-82848000D01*
X169335000Y-82689250D01*
X169338072Y-82400000D01*
X169325812Y-82275518D01*
X169289502Y-82155820D01*
X169230537Y-82045506D01*
X169151185Y-81948815D01*
X169054494Y-81869463D01*
X168944180Y-81810498D01*
X168824482Y-81774188D01*
X168700000Y-81761928D01*
X168285750Y-81765000D01*
X168127000Y-81923750D01*
X167873000Y-81923750D01*
X167714250Y-81765000D01*
X167300000Y-81761928D01*
X167175518Y-81774188D01*
X167055820Y-81810498D01*
X166945506Y-81869463D01*
X166848815Y-81948815D01*
X166769463Y-82045506D01*
X166710498Y-82155820D01*
X166674188Y-82275518D01*
X166661928Y-82400000D01*
X155290145Y-82400000D01*
X155270472Y-82335149D01*
X155188405Y-82181613D01*
X155077962Y-82047038D01*
X154943387Y-81936595D01*
X154789851Y-81854528D01*
X154760000Y-81845473D01*
X154760000Y-81703711D01*
X154803937Y-81659774D01*
X154917205Y-81490256D01*
X154995226Y-81301898D01*
X155035000Y-81101939D01*
X155035000Y-80898061D01*
X154995226Y-80698102D01*
X154917205Y-80509744D01*
X154803937Y-80340226D01*
X154659774Y-80196063D01*
X154490256Y-80082795D01*
X154301898Y-80004774D01*
X154101939Y-79965000D01*
X153898061Y-79965000D01*
X153698102Y-80004774D01*
X153509744Y-80082795D01*
X153340226Y-80196063D01*
X153196063Y-80340226D01*
X153082795Y-80509744D01*
X153004774Y-80698102D01*
X152965000Y-80898061D01*
X152965000Y-81101939D01*
X153004774Y-81301898D01*
X153082795Y-81490256D01*
X153196063Y-81659774D01*
X153240001Y-81703712D01*
X153240001Y-81845473D01*
X153210149Y-81854528D01*
X153056613Y-81936595D01*
X152922038Y-82047038D01*
X152811595Y-82181613D01*
X152729528Y-82335149D01*
X152678992Y-82501745D01*
X152661928Y-82674999D01*
X145660000Y-82674999D01*
X145660000Y-72660000D01*
X176340001Y-72660000D01*
X176340000Y-101340000D01*
G37*
X176340000Y-101340000D02*
X145660000Y-101340000D01*
X145660000Y-82674999D01*
X152661928Y-82674999D01*
X152661928Y-83325001D01*
X152678992Y-83498255D01*
X152729528Y-83664851D01*
X152811595Y-83818387D01*
X152922038Y-83952962D01*
X153009816Y-84025000D01*
X152922038Y-84097038D01*
X152811595Y-84231613D01*
X152729528Y-84385149D01*
X152678992Y-84551745D01*
X152661928Y-84724999D01*
X152661928Y-85375001D01*
X152678992Y-85548255D01*
X152729528Y-85714851D01*
X152811595Y-85868387D01*
X152922038Y-86002962D01*
X153056613Y-86113405D01*
X153210149Y-86195472D01*
X153376745Y-86246008D01*
X153549999Y-86263072D01*
X154138271Y-86263072D01*
X154468609Y-86593410D01*
X154409581Y-86611316D01*
X154382753Y-86619454D01*
X154250723Y-86690026D01*
X154234788Y-86703104D01*
X154134999Y-86784999D01*
X154133416Y-86786928D01*
X153549999Y-86786928D01*
X153376745Y-86803992D01*
X153210149Y-86854528D01*
X153056613Y-86936595D01*
X152922038Y-87047038D01*
X152811595Y-87181613D01*
X152729528Y-87335149D01*
X152678992Y-87501745D01*
X152661928Y-87674999D01*
X152661928Y-88325001D01*
X152678992Y-88498255D01*
X152729528Y-88664851D01*
X152811595Y-88818387D01*
X152922038Y-88952962D01*
X153009816Y-89025000D01*
X152922038Y-89097038D01*
X152811595Y-89231613D01*
X152729528Y-89385149D01*
X152678992Y-89551745D01*
X152661928Y-89724999D01*
X152661928Y-90375001D01*
X152678992Y-90548255D01*
X152729528Y-90714851D01*
X152811595Y-90868387D01*
X152922038Y-91002962D01*
X153056613Y-91113405D01*
X153210149Y-91195472D01*
X153240001Y-91204527D01*
X153240000Y-91845473D01*
X153210149Y-91854528D01*
X153056613Y-91936595D01*
X152922038Y-92047038D01*
X152811595Y-92181613D01*
X152729528Y-92335149D01*
X152678992Y-92501745D01*
X152661928Y-92674999D01*
X152661928Y-93325001D01*
X152678992Y-93498255D01*
X152729528Y-93664851D01*
X152811595Y-93818387D01*
X152922038Y-93952962D01*
X153009816Y-94025000D01*
X152922038Y-94097038D01*
X152811595Y-94231613D01*
X152729528Y-94385149D01*
X152678992Y-94551745D01*
X152661928Y-94724999D01*
X152661928Y-95375001D01*
X152678992Y-95548255D01*
X152729528Y-95714851D01*
X152811595Y-95868387D01*
X152922038Y-96002962D01*
X153056613Y-96113405D01*
X153210149Y-96195472D01*
X153240001Y-96204527D01*
X153240001Y-96296288D01*
X153196063Y-96340226D01*
X153082795Y-96509744D01*
X153004774Y-96698102D01*
X152965000Y-96898061D01*
X152965000Y-97101939D01*
X153004774Y-97301898D01*
X153082795Y-97490256D01*
X153196063Y-97659774D01*
X153340226Y-97803937D01*
X153509744Y-97917205D01*
X153698102Y-97995226D01*
X153898061Y-98035000D01*
X154101939Y-98035000D01*
X154301898Y-97995226D01*
X154490256Y-97917205D01*
X154659774Y-97803937D01*
X154803937Y-97659774D01*
X154917205Y-97490256D01*
X154995226Y-97301898D01*
X155035000Y-97101939D01*
X155035000Y-96898061D01*
X154995226Y-96698102D01*
X154917205Y-96509744D01*
X154803937Y-96340226D01*
X154760000Y-96296289D01*
X154760000Y-96204527D01*
X154789851Y-96195472D01*
X154943387Y-96113405D01*
X155077962Y-96002962D01*
X155188405Y-95868387D01*
X155270472Y-95714851D01*
X155321008Y-95548255D01*
X155338072Y-95375001D01*
X155338072Y-94724999D01*
X155321008Y-94551745D01*
X155270472Y-94385149D01*
X155188405Y-94231613D01*
X155077962Y-94097038D01*
X154990184Y-94025000D01*
X155077962Y-93952962D01*
X155188405Y-93818387D01*
X155270472Y-93664851D01*
X155321008Y-93498255D01*
X155338072Y-93325001D01*
X155338072Y-92674999D01*
X155321008Y-92501745D01*
X155270472Y-92335149D01*
X155188405Y-92181613D01*
X155077962Y-92047038D01*
X154943387Y-91936595D01*
X154789851Y-91854528D01*
X154760000Y-91845473D01*
X154760000Y-91204527D01*
X154789851Y-91195472D01*
X154943387Y-91113405D01*
X155077962Y-91002962D01*
X155188405Y-90868387D01*
X155270472Y-90714851D01*
X155321008Y-90548255D01*
X155338072Y-90375001D01*
X155338072Y-89724999D01*
X155321008Y-89551745D01*
X155270472Y-89385149D01*
X155188405Y-89231613D01*
X155077962Y-89097038D01*
X154990184Y-89025000D01*
X155077962Y-88952962D01*
X155188405Y-88818387D01*
X155270472Y-88664851D01*
X155321008Y-88498255D01*
X155338072Y-88325001D01*
X155338072Y-88085000D01*
X157440000Y-88085000D01*
X157440000Y-88102002D01*
X157544748Y-88102002D01*
X157440000Y-88206750D01*
X157450999Y-88308260D01*
X157488987Y-88427436D01*
X157549495Y-88536911D01*
X157630197Y-88632478D01*
X157727994Y-88710465D01*
X157839125Y-88767874D01*
X157959322Y-88802499D01*
X158083963Y-88813009D01*
X158601750Y-88810000D01*
X158760500Y-88651250D01*
X158760500Y-88163072D01*
X159014500Y-88163072D01*
X159014500Y-88651250D01*
X159173250Y-88810000D01*
X159691037Y-88813009D01*
X159815678Y-88802499D01*
X159935875Y-88767874D01*
X160047006Y-88710465D01*
X160144803Y-88632478D01*
X160225505Y-88536911D01*
X160286013Y-88427436D01*
X160324001Y-88308260D01*
X160335000Y-88206750D01*
X160230252Y-88102002D01*
X160335000Y-88102002D01*
X160335000Y-88085333D01*
X160338381Y-88085000D01*
X161662913Y-88085000D01*
X161676110Y-88218991D01*
X161718110Y-88357448D01*
X161786316Y-88485051D01*
X161878104Y-88596896D01*
X161989949Y-88688684D01*
X162117552Y-88756890D01*
X162256009Y-88798890D01*
X162400000Y-88813072D01*
X163825000Y-88813072D01*
X163968991Y-88798890D01*
X164107448Y-88756890D01*
X164235051Y-88688684D01*
X164346896Y-88596896D01*
X164403330Y-88528131D01*
X166661928Y-90786730D01*
X166661928Y-91375001D01*
X166678992Y-91548255D01*
X166729528Y-91714851D01*
X166811595Y-91868387D01*
X166922038Y-92002962D01*
X167056613Y-92113405D01*
X167210149Y-92195472D01*
X167376745Y-92246008D01*
X167549999Y-92263072D01*
X168450001Y-92263072D01*
X168623255Y-92246008D01*
X168789851Y-92195472D01*
X168943387Y-92113405D01*
X169077962Y-92002962D01*
X169188405Y-91868387D01*
X169270472Y-91714851D01*
X169321008Y-91548255D01*
X169338072Y-91375001D01*
X169338072Y-90724999D01*
X169321008Y-90551745D01*
X169270472Y-90385149D01*
X169188405Y-90231613D01*
X169077962Y-90097038D01*
X168990184Y-90025000D01*
X169077962Y-89952962D01*
X169188405Y-89818387D01*
X169270472Y-89664851D01*
X169321008Y-89498255D01*
X169338072Y-89325001D01*
X169338072Y-88674999D01*
X169321008Y-88501745D01*
X169270472Y-88335149D01*
X169188405Y-88181613D01*
X169077962Y-88047038D01*
X168943387Y-87936595D01*
X168789851Y-87854528D01*
X168760000Y-87845473D01*
X168760000Y-86179527D01*
X168789851Y-86170472D01*
X168943387Y-86088405D01*
X169077962Y-85977962D01*
X169188405Y-85843387D01*
X169270472Y-85689851D01*
X169321008Y-85523255D01*
X169338072Y-85350001D01*
X169338072Y-84699999D01*
X169321008Y-84526745D01*
X169270472Y-84360149D01*
X169188405Y-84206613D01*
X169077962Y-84072038D01*
X169071406Y-84066658D01*
X169151185Y-84001185D01*
X169230537Y-83904494D01*
X169289502Y-83794180D01*
X169325812Y-83674482D01*
X169338072Y-83550000D01*
X169335000Y-83260750D01*
X169176250Y-83102000D01*
X168127000Y-83102000D01*
X168127000Y-83122000D01*
X167873000Y-83122000D01*
X167873000Y-83102000D01*
X166823750Y-83102000D01*
X166665000Y-83260750D01*
X166661928Y-83550000D01*
X166674188Y-83674482D01*
X166710498Y-83794180D01*
X166769463Y-83904494D01*
X166848815Y-84001185D01*
X166928594Y-84066658D01*
X166922038Y-84072038D01*
X166811595Y-84206613D01*
X166729528Y-84360149D01*
X166678992Y-84526745D01*
X166661928Y-84699999D01*
X166661928Y-85288270D01*
X166035199Y-85915000D01*
X164560000Y-85915000D01*
X164560000Y-85897998D01*
X164455252Y-85897998D01*
X164560000Y-85793250D01*
X164549001Y-85691740D01*
X164511013Y-85572564D01*
X164450505Y-85463089D01*
X164369803Y-85367522D01*
X164272006Y-85289535D01*
X164160875Y-85232126D01*
X164040678Y-85197501D01*
X163916037Y-85186991D01*
X163398250Y-85190000D01*
X163239500Y-85348750D01*
X163239500Y-85836928D01*
X162985500Y-85836928D01*
X162985500Y-85348750D01*
X162826750Y-85190000D01*
X162308963Y-85186991D01*
X162184322Y-85197501D01*
X162064125Y-85232126D01*
X161952994Y-85289535D01*
X161855197Y-85367522D01*
X161774495Y-85463089D01*
X161713987Y-85572564D01*
X161675999Y-85691740D01*
X161665000Y-85793250D01*
X161823750Y-85952000D01*
X162007378Y-85952000D01*
X161989949Y-85961316D01*
X161878104Y-86053104D01*
X161841259Y-86098000D01*
X161823750Y-86098000D01*
X161665000Y-86256750D01*
X161675999Y-86358260D01*
X161687363Y-86393912D01*
X161676110Y-86431009D01*
X161662913Y-86565000D01*
X160615860Y-86565000D01*
X160322950Y-86272091D01*
X160323890Y-86268991D01*
X160338072Y-86125000D01*
X160338072Y-85925000D01*
X160323890Y-85781009D01*
X160281890Y-85642552D01*
X160213684Y-85514949D01*
X160121896Y-85403104D01*
X160010051Y-85311316D01*
X159882448Y-85243110D01*
X159743991Y-85201110D01*
X159647500Y-85191606D01*
X159647500Y-84416211D01*
X159703937Y-84359774D01*
X159817205Y-84190256D01*
X159895226Y-84001898D01*
X159935000Y-83801939D01*
X159935000Y-83598061D01*
X159895226Y-83398102D01*
X159817205Y-83209744D01*
X159703937Y-83040226D01*
X159559774Y-82896063D01*
X159390256Y-82782795D01*
X159201898Y-82704774D01*
X159001939Y-82665000D01*
X158798061Y-82665000D01*
X158598102Y-82704774D01*
X158409744Y-82782795D01*
X158240226Y-82896063D01*
X158096063Y-83040226D01*
X157982795Y-83209744D01*
X157904774Y-83398102D01*
X157865000Y-83598061D01*
X157865000Y-83801939D01*
X157904774Y-84001898D01*
X157982795Y-84190256D01*
X158096063Y-84359774D01*
X158127501Y-84391212D01*
X158127500Y-85191606D01*
X158031009Y-85201110D01*
X157892552Y-85243110D01*
X157764949Y-85311316D01*
X157653104Y-85403104D01*
X157561316Y-85514949D01*
X157493110Y-85642552D01*
X157451110Y-85781009D01*
X157437913Y-85915000D01*
X155939802Y-85915000D01*
X155338072Y-85313271D01*
X155338072Y-84724999D01*
X155321008Y-84551745D01*
X155270472Y-84385149D01*
X155188405Y-84231613D01*
X155077962Y-84097038D01*
X154990184Y-84025000D01*
X155077962Y-83952962D01*
X155188405Y-83818387D01*
X155270472Y-83664851D01*
X155321008Y-83498255D01*
X155338072Y-83325001D01*
X155338072Y-82674999D01*
X155321008Y-82501745D01*
X155290145Y-82400000D01*
X166661928Y-82400000D01*
X166665000Y-82689250D01*
X166823750Y-82848000D01*
X167873000Y-82848000D01*
X167873000Y-81923750D01*
X168127000Y-81923750D01*
X168127000Y-82848000D01*
X169176250Y-82848000D01*
X169335000Y-82689250D01*
X169338072Y-82400000D01*
X169325812Y-82275518D01*
X169289502Y-82155820D01*
X169230537Y-82045506D01*
X169151185Y-81948815D01*
X169054494Y-81869463D01*
X168944180Y-81810498D01*
X168824482Y-81774188D01*
X168700000Y-81761928D01*
X168285750Y-81765000D01*
X168127000Y-81923750D01*
X167873000Y-81923750D01*
X167714250Y-81765000D01*
X167300000Y-81761928D01*
X167175518Y-81774188D01*
X167055820Y-81810498D01*
X166945506Y-81869463D01*
X166848815Y-81948815D01*
X166769463Y-82045506D01*
X166710498Y-82155820D01*
X166674188Y-82275518D01*
X166661928Y-82400000D01*
X155290145Y-82400000D01*
X155270472Y-82335149D01*
X155188405Y-82181613D01*
X155077962Y-82047038D01*
X154943387Y-81936595D01*
X154789851Y-81854528D01*
X154760000Y-81845473D01*
X154760000Y-81703711D01*
X154803937Y-81659774D01*
X154917205Y-81490256D01*
X154995226Y-81301898D01*
X155035000Y-81101939D01*
X155035000Y-80898061D01*
X154995226Y-80698102D01*
X154917205Y-80509744D01*
X154803937Y-80340226D01*
X154659774Y-80196063D01*
X154490256Y-80082795D01*
X154301898Y-80004774D01*
X154101939Y-79965000D01*
X153898061Y-79965000D01*
X153698102Y-80004774D01*
X153509744Y-80082795D01*
X153340226Y-80196063D01*
X153196063Y-80340226D01*
X153082795Y-80509744D01*
X153004774Y-80698102D01*
X152965000Y-80898061D01*
X152965000Y-81101939D01*
X153004774Y-81301898D01*
X153082795Y-81490256D01*
X153196063Y-81659774D01*
X153240001Y-81703712D01*
X153240001Y-81845473D01*
X153210149Y-81854528D01*
X153056613Y-81936595D01*
X152922038Y-82047038D01*
X152811595Y-82181613D01*
X152729528Y-82335149D01*
X152678992Y-82501745D01*
X152661928Y-82674999D01*
X145660000Y-82674999D01*
X145660000Y-72660000D01*
X176340001Y-72660000D01*
X176340000Y-101340000D01*
%TD*%
M02*
