G04 #@! TF.GenerationSoftware,KiCad,Pcbnew,(5.1.7)-1*
G04 #@! TF.CreationDate,2021-10-23T14:10:48-04:00*
G04 #@! TF.ProjectId,PCB_2020,5043425f-3230-4323-902e-6b696361645f,rev?*
G04 #@! TF.SameCoordinates,Original*
G04 #@! TF.FileFunction,Legend,Top*
G04 #@! TF.FilePolarity,Positive*
%FSLAX46Y46*%
G04 Gerber Fmt 4.6, Leading zero omitted, Abs format (unit mm)*
G04 Created by KiCad (PCBNEW (5.1.7)-1) date 2021-10-23 14:10:48*
%MOMM*%
%LPD*%
G01*
G04 APERTURE LIST*
%ADD10C,0.120000*%
%ADD11C,0.152400*%
%ADD12C,0.150000*%
G04 APERTURE END LIST*
D10*
X140350000Y-125575000D02*
G75*
G03*
X140350000Y-129095000I0J-1760000D01*
G01*
X153950000Y-129095000D02*
G75*
G03*
X153950000Y-125575000I0J1760000D01*
G01*
X153950000Y-129095000D02*
X152060000Y-129095000D01*
X153950000Y-125575000D02*
X152060000Y-125575000D01*
X140350000Y-129095000D02*
X142240000Y-129095000D01*
X140350000Y-125575000D02*
X142240000Y-125575000D01*
X147150000Y-134735000D02*
X152060000Y-134735000D01*
X152060000Y-134735000D02*
X152060000Y-124915000D01*
X152060000Y-124915000D02*
X148960000Y-124915000D01*
X148960000Y-124915000D02*
X148960000Y-123515000D01*
X148960000Y-123515000D02*
X147150000Y-123515000D01*
X147150000Y-134735000D02*
X142240000Y-134735000D01*
X142240000Y-134735000D02*
X142240000Y-124915000D01*
X142240000Y-124915000D02*
X145340000Y-124915000D01*
X145340000Y-124915000D02*
X145340000Y-123515000D01*
X145340000Y-123515000D02*
X147150000Y-123515000D01*
X149450000Y-134975000D02*
X152300000Y-134975000D01*
X152300000Y-134975000D02*
X152300000Y-132125000D01*
X130660000Y-77860000D02*
X130660000Y-79780000D01*
X132810000Y-77860000D02*
X130660000Y-77860000D01*
X128100000Y-85200000D02*
X128100000Y-82490000D01*
X130960000Y-85200000D02*
X128100000Y-85200000D01*
X130960000Y-86820000D02*
X130960000Y-85200000D01*
X134660000Y-86820000D02*
X130960000Y-86820000D01*
X134660000Y-82490000D02*
X134660000Y-86820000D01*
X128100000Y-79780000D02*
X128100000Y-82490000D01*
X130960000Y-79780000D02*
X128100000Y-79780000D01*
X130960000Y-78160000D02*
X130960000Y-79780000D01*
X134660000Y-78160000D02*
X130960000Y-78160000D01*
X134660000Y-82490000D02*
X134660000Y-78160000D01*
X162480000Y-104859000D02*
X163990000Y-104859000D01*
X162480000Y-108560000D02*
X163990000Y-108560000D01*
X163990000Y-111830000D02*
X163990000Y-101590000D01*
X162480000Y-101590000D02*
X167121000Y-101590000D01*
X162480000Y-111830000D02*
X167121000Y-111830000D01*
X167121000Y-111830000D02*
X167121000Y-101590000D01*
X162480000Y-111830000D02*
X162480000Y-101590000D01*
X222710000Y-113380000D02*
X225560000Y-113380000D01*
X222710000Y-110530000D02*
X222710000Y-113380000D01*
X234170000Y-100120000D02*
X234170000Y-101930000D01*
X232770000Y-100120000D02*
X234170000Y-100120000D01*
X232770000Y-90720000D02*
X232770000Y-100120000D01*
X222950000Y-90720000D02*
X232770000Y-90720000D01*
X222950000Y-101930000D02*
X222950000Y-90720000D01*
X234170000Y-103740000D02*
X234170000Y-101930000D01*
X232770000Y-103740000D02*
X234170000Y-103740000D01*
X232770000Y-113140000D02*
X232770000Y-103740000D01*
X222950000Y-113140000D02*
X232770000Y-113140000D01*
X222950000Y-101930000D02*
X222950000Y-113140000D01*
X232110000Y-88830000D02*
X232110000Y-90720000D01*
X228590000Y-88830000D02*
X228590000Y-90720000D01*
X232110000Y-115030000D02*
X232110000Y-113140000D01*
X228590000Y-115030000D02*
X228590000Y-113140000D01*
X232110000Y-88830000D02*
G75*
G03*
X228590000Y-88830000I-1760000J0D01*
G01*
X228590000Y-115030000D02*
G75*
G03*
X232110000Y-115030000I1760000J0D01*
G01*
X166930000Y-86510000D02*
X166930000Y-84670000D01*
X166930000Y-84670000D02*
X163090000Y-84670000D01*
X163090000Y-84670000D02*
X163090000Y-86510000D01*
X163090000Y-86510000D02*
X166930000Y-86510000D01*
X167880000Y-85590000D02*
X166930000Y-85590000D01*
X162140000Y-85590000D02*
X163090000Y-85590000D01*
X156860000Y-88610000D02*
X156860000Y-86770000D01*
X156860000Y-86770000D02*
X153020000Y-86770000D01*
X153020000Y-86770000D02*
X153020000Y-88610000D01*
X153020000Y-88610000D02*
X156860000Y-88610000D01*
X157810000Y-87690000D02*
X156860000Y-87690000D01*
X152070000Y-87690000D02*
X153020000Y-87690000D01*
X157100000Y-74880000D02*
X158940000Y-74880000D01*
X158940000Y-74880000D02*
X158940000Y-71040000D01*
X158940000Y-71040000D02*
X157100000Y-71040000D01*
X157100000Y-71040000D02*
X157100000Y-74880000D01*
X158020000Y-75830000D02*
X158020000Y-74880000D01*
X158020000Y-70090000D02*
X158020000Y-71040000D01*
X156030000Y-118070000D02*
X156030000Y-116230000D01*
X156030000Y-116230000D02*
X152190000Y-116230000D01*
X152190000Y-116230000D02*
X152190000Y-118070000D01*
X152190000Y-118070000D02*
X156030000Y-118070000D01*
X156980000Y-117150000D02*
X156030000Y-117150000D01*
X151240000Y-117150000D02*
X152190000Y-117150000D01*
X150080000Y-71210000D02*
X151920000Y-71210000D01*
X151920000Y-71210000D02*
X151920000Y-67370000D01*
X151920000Y-67370000D02*
X150080000Y-67370000D01*
X150080000Y-67370000D02*
X150080000Y-71210000D01*
X151000000Y-72160000D02*
X151000000Y-71210000D01*
X151000000Y-66420000D02*
X151000000Y-67370000D01*
X152650000Y-53340000D02*
X150810000Y-53340000D01*
X150810000Y-53340000D02*
X150810000Y-57180000D01*
X150810000Y-57180000D02*
X152650000Y-57180000D01*
X152650000Y-57180000D02*
X152650000Y-53340000D01*
X151730000Y-52390000D02*
X151730000Y-53340000D01*
X151730000Y-58130000D02*
X151730000Y-57180000D01*
X169700000Y-61140000D02*
X167860000Y-61140000D01*
X167860000Y-61140000D02*
X167860000Y-64980000D01*
X167860000Y-64980000D02*
X169700000Y-64980000D01*
X169700000Y-64980000D02*
X169700000Y-61140000D01*
X168780000Y-60190000D02*
X168780000Y-61140000D01*
X168780000Y-65930000D02*
X168780000Y-64980000D01*
X133150000Y-69530000D02*
G75*
G03*
X133150000Y-69530000I-2120000J0D01*
G01*
X131030000Y-70370000D02*
X131030000Y-71610000D01*
X131030000Y-67450000D02*
X131030000Y-68690000D01*
X131070000Y-70370000D02*
X131070000Y-71610000D01*
X131070000Y-67450000D02*
X131070000Y-68690000D01*
X131110000Y-70370000D02*
X131110000Y-71609000D01*
X131110000Y-67451000D02*
X131110000Y-68690000D01*
X131150000Y-67453000D02*
X131150000Y-68690000D01*
X131150000Y-70370000D02*
X131150000Y-71607000D01*
X131190000Y-67456000D02*
X131190000Y-68690000D01*
X131190000Y-70370000D02*
X131190000Y-71604000D01*
X131230000Y-67459000D02*
X131230000Y-68690000D01*
X131230000Y-70370000D02*
X131230000Y-71601000D01*
X131270000Y-67463000D02*
X131270000Y-68690000D01*
X131270000Y-70370000D02*
X131270000Y-71597000D01*
X131310000Y-67468000D02*
X131310000Y-68690000D01*
X131310000Y-70370000D02*
X131310000Y-71592000D01*
X131350000Y-67474000D02*
X131350000Y-68690000D01*
X131350000Y-70370000D02*
X131350000Y-71586000D01*
X131390000Y-67480000D02*
X131390000Y-68690000D01*
X131390000Y-70370000D02*
X131390000Y-71580000D01*
X131430000Y-67488000D02*
X131430000Y-68690000D01*
X131430000Y-70370000D02*
X131430000Y-71572000D01*
X131470000Y-67496000D02*
X131470000Y-68690000D01*
X131470000Y-70370000D02*
X131470000Y-71564000D01*
X131510000Y-67505000D02*
X131510000Y-68690000D01*
X131510000Y-70370000D02*
X131510000Y-71555000D01*
X131550000Y-67514000D02*
X131550000Y-68690000D01*
X131550000Y-70370000D02*
X131550000Y-71546000D01*
X131590000Y-67525000D02*
X131590000Y-68690000D01*
X131590000Y-70370000D02*
X131590000Y-71535000D01*
X131630000Y-67536000D02*
X131630000Y-68690000D01*
X131630000Y-70370000D02*
X131630000Y-71524000D01*
X131670000Y-67548000D02*
X131670000Y-68690000D01*
X131670000Y-70370000D02*
X131670000Y-71512000D01*
X131710000Y-67562000D02*
X131710000Y-68690000D01*
X131710000Y-70370000D02*
X131710000Y-71498000D01*
X131751000Y-67576000D02*
X131751000Y-68690000D01*
X131751000Y-70370000D02*
X131751000Y-71484000D01*
X131791000Y-67590000D02*
X131791000Y-68690000D01*
X131791000Y-70370000D02*
X131791000Y-71470000D01*
X131831000Y-67606000D02*
X131831000Y-68690000D01*
X131831000Y-70370000D02*
X131831000Y-71454000D01*
X131871000Y-67623000D02*
X131871000Y-68690000D01*
X131871000Y-70370000D02*
X131871000Y-71437000D01*
X131911000Y-67641000D02*
X131911000Y-68690000D01*
X131911000Y-70370000D02*
X131911000Y-71419000D01*
X131951000Y-67660000D02*
X131951000Y-68690000D01*
X131951000Y-70370000D02*
X131951000Y-71400000D01*
X131991000Y-67679000D02*
X131991000Y-68690000D01*
X131991000Y-70370000D02*
X131991000Y-71381000D01*
X132031000Y-67700000D02*
X132031000Y-68690000D01*
X132031000Y-70370000D02*
X132031000Y-71360000D01*
X132071000Y-67722000D02*
X132071000Y-68690000D01*
X132071000Y-70370000D02*
X132071000Y-71338000D01*
X132111000Y-67745000D02*
X132111000Y-68690000D01*
X132111000Y-70370000D02*
X132111000Y-71315000D01*
X132151000Y-67770000D02*
X132151000Y-68690000D01*
X132151000Y-70370000D02*
X132151000Y-71290000D01*
X132191000Y-67795000D02*
X132191000Y-68690000D01*
X132191000Y-70370000D02*
X132191000Y-71265000D01*
X132231000Y-67822000D02*
X132231000Y-68690000D01*
X132231000Y-70370000D02*
X132231000Y-71238000D01*
X132271000Y-67850000D02*
X132271000Y-68690000D01*
X132271000Y-70370000D02*
X132271000Y-71210000D01*
X132311000Y-67880000D02*
X132311000Y-68690000D01*
X132311000Y-70370000D02*
X132311000Y-71180000D01*
X132351000Y-67911000D02*
X132351000Y-68690000D01*
X132351000Y-70370000D02*
X132351000Y-71149000D01*
X132391000Y-67943000D02*
X132391000Y-68690000D01*
X132391000Y-70370000D02*
X132391000Y-71117000D01*
X132431000Y-67978000D02*
X132431000Y-68690000D01*
X132431000Y-70370000D02*
X132431000Y-71082000D01*
X132471000Y-68014000D02*
X132471000Y-68690000D01*
X132471000Y-70370000D02*
X132471000Y-71046000D01*
X132511000Y-68052000D02*
X132511000Y-68690000D01*
X132511000Y-70370000D02*
X132511000Y-71008000D01*
X132551000Y-68092000D02*
X132551000Y-68690000D01*
X132551000Y-70370000D02*
X132551000Y-70968000D01*
X132591000Y-68134000D02*
X132591000Y-68690000D01*
X132591000Y-70370000D02*
X132591000Y-70926000D01*
X132631000Y-68179000D02*
X132631000Y-70881000D01*
X132671000Y-68226000D02*
X132671000Y-70834000D01*
X132711000Y-68276000D02*
X132711000Y-70784000D01*
X132751000Y-68330000D02*
X132751000Y-70730000D01*
X132791000Y-68388000D02*
X132791000Y-70672000D01*
X132831000Y-68450000D02*
X132831000Y-70610000D01*
X132871000Y-68517000D02*
X132871000Y-70543000D01*
X132911000Y-68590000D02*
X132911000Y-70470000D01*
X132951000Y-68671000D02*
X132951000Y-70389000D01*
X132991000Y-68762000D02*
X132991000Y-70298000D01*
X133031000Y-68866000D02*
X133031000Y-70194000D01*
X133071000Y-68993000D02*
X133071000Y-70067000D01*
X133111000Y-69160000D02*
X133111000Y-69900000D01*
X128760199Y-68335000D02*
X129160199Y-68335000D01*
X128960199Y-68135000D02*
X128960199Y-68535000D01*
X160140000Y-81930000D02*
G75*
G03*
X160140000Y-81930000I-2120000J0D01*
G01*
X158020000Y-82770000D02*
X158020000Y-84010000D01*
X158020000Y-79850000D02*
X158020000Y-81090000D01*
X158060000Y-82770000D02*
X158060000Y-84010000D01*
X158060000Y-79850000D02*
X158060000Y-81090000D01*
X158100000Y-82770000D02*
X158100000Y-84009000D01*
X158100000Y-79851000D02*
X158100000Y-81090000D01*
X158140000Y-79853000D02*
X158140000Y-81090000D01*
X158140000Y-82770000D02*
X158140000Y-84007000D01*
X158180000Y-79856000D02*
X158180000Y-81090000D01*
X158180000Y-82770000D02*
X158180000Y-84004000D01*
X158220000Y-79859000D02*
X158220000Y-81090000D01*
X158220000Y-82770000D02*
X158220000Y-84001000D01*
X158260000Y-79863000D02*
X158260000Y-81090000D01*
X158260000Y-82770000D02*
X158260000Y-83997000D01*
X158300000Y-79868000D02*
X158300000Y-81090000D01*
X158300000Y-82770000D02*
X158300000Y-83992000D01*
X158340000Y-79874000D02*
X158340000Y-81090000D01*
X158340000Y-82770000D02*
X158340000Y-83986000D01*
X158380000Y-79880000D02*
X158380000Y-81090000D01*
X158380000Y-82770000D02*
X158380000Y-83980000D01*
X158420000Y-79888000D02*
X158420000Y-81090000D01*
X158420000Y-82770000D02*
X158420000Y-83972000D01*
X158460000Y-79896000D02*
X158460000Y-81090000D01*
X158460000Y-82770000D02*
X158460000Y-83964000D01*
X158500000Y-79905000D02*
X158500000Y-81090000D01*
X158500000Y-82770000D02*
X158500000Y-83955000D01*
X158540000Y-79914000D02*
X158540000Y-81090000D01*
X158540000Y-82770000D02*
X158540000Y-83946000D01*
X158580000Y-79925000D02*
X158580000Y-81090000D01*
X158580000Y-82770000D02*
X158580000Y-83935000D01*
X158620000Y-79936000D02*
X158620000Y-81090000D01*
X158620000Y-82770000D02*
X158620000Y-83924000D01*
X158660000Y-79948000D02*
X158660000Y-81090000D01*
X158660000Y-82770000D02*
X158660000Y-83912000D01*
X158700000Y-79962000D02*
X158700000Y-81090000D01*
X158700000Y-82770000D02*
X158700000Y-83898000D01*
X158741000Y-79976000D02*
X158741000Y-81090000D01*
X158741000Y-82770000D02*
X158741000Y-83884000D01*
X158781000Y-79990000D02*
X158781000Y-81090000D01*
X158781000Y-82770000D02*
X158781000Y-83870000D01*
X158821000Y-80006000D02*
X158821000Y-81090000D01*
X158821000Y-82770000D02*
X158821000Y-83854000D01*
X158861000Y-80023000D02*
X158861000Y-81090000D01*
X158861000Y-82770000D02*
X158861000Y-83837000D01*
X158901000Y-80041000D02*
X158901000Y-81090000D01*
X158901000Y-82770000D02*
X158901000Y-83819000D01*
X158941000Y-80060000D02*
X158941000Y-81090000D01*
X158941000Y-82770000D02*
X158941000Y-83800000D01*
X158981000Y-80079000D02*
X158981000Y-81090000D01*
X158981000Y-82770000D02*
X158981000Y-83781000D01*
X159021000Y-80100000D02*
X159021000Y-81090000D01*
X159021000Y-82770000D02*
X159021000Y-83760000D01*
X159061000Y-80122000D02*
X159061000Y-81090000D01*
X159061000Y-82770000D02*
X159061000Y-83738000D01*
X159101000Y-80145000D02*
X159101000Y-81090000D01*
X159101000Y-82770000D02*
X159101000Y-83715000D01*
X159141000Y-80170000D02*
X159141000Y-81090000D01*
X159141000Y-82770000D02*
X159141000Y-83690000D01*
X159181000Y-80195000D02*
X159181000Y-81090000D01*
X159181000Y-82770000D02*
X159181000Y-83665000D01*
X159221000Y-80222000D02*
X159221000Y-81090000D01*
X159221000Y-82770000D02*
X159221000Y-83638000D01*
X159261000Y-80250000D02*
X159261000Y-81090000D01*
X159261000Y-82770000D02*
X159261000Y-83610000D01*
X159301000Y-80280000D02*
X159301000Y-81090000D01*
X159301000Y-82770000D02*
X159301000Y-83580000D01*
X159341000Y-80311000D02*
X159341000Y-81090000D01*
X159341000Y-82770000D02*
X159341000Y-83549000D01*
X159381000Y-80343000D02*
X159381000Y-81090000D01*
X159381000Y-82770000D02*
X159381000Y-83517000D01*
X159421000Y-80378000D02*
X159421000Y-81090000D01*
X159421000Y-82770000D02*
X159421000Y-83482000D01*
X159461000Y-80414000D02*
X159461000Y-81090000D01*
X159461000Y-82770000D02*
X159461000Y-83446000D01*
X159501000Y-80452000D02*
X159501000Y-81090000D01*
X159501000Y-82770000D02*
X159501000Y-83408000D01*
X159541000Y-80492000D02*
X159541000Y-81090000D01*
X159541000Y-82770000D02*
X159541000Y-83368000D01*
X159581000Y-80534000D02*
X159581000Y-81090000D01*
X159581000Y-82770000D02*
X159581000Y-83326000D01*
X159621000Y-80579000D02*
X159621000Y-83281000D01*
X159661000Y-80626000D02*
X159661000Y-83234000D01*
X159701000Y-80676000D02*
X159701000Y-83184000D01*
X159741000Y-80730000D02*
X159741000Y-83130000D01*
X159781000Y-80788000D02*
X159781000Y-83072000D01*
X159821000Y-80850000D02*
X159821000Y-83010000D01*
X159861000Y-80917000D02*
X159861000Y-82943000D01*
X159901000Y-80990000D02*
X159901000Y-82870000D01*
X159941000Y-81071000D02*
X159941000Y-82789000D01*
X159981000Y-81162000D02*
X159981000Y-82698000D01*
X160021000Y-81266000D02*
X160021000Y-82594000D01*
X160061000Y-81393000D02*
X160061000Y-82467000D01*
X160101000Y-81560000D02*
X160101000Y-82300000D01*
X155750199Y-80735000D02*
X156150199Y-80735000D01*
X155950199Y-80535000D02*
X155950199Y-80935000D01*
X149900000Y-81340000D02*
G75*
G03*
X149900000Y-81340000I-2120000J0D01*
G01*
X147780000Y-82180000D02*
X147780000Y-83420000D01*
X147780000Y-79260000D02*
X147780000Y-80500000D01*
X147820000Y-82180000D02*
X147820000Y-83420000D01*
X147820000Y-79260000D02*
X147820000Y-80500000D01*
X147860000Y-82180000D02*
X147860000Y-83419000D01*
X147860000Y-79261000D02*
X147860000Y-80500000D01*
X147900000Y-79263000D02*
X147900000Y-80500000D01*
X147900000Y-82180000D02*
X147900000Y-83417000D01*
X147940000Y-79266000D02*
X147940000Y-80500000D01*
X147940000Y-82180000D02*
X147940000Y-83414000D01*
X147980000Y-79269000D02*
X147980000Y-80500000D01*
X147980000Y-82180000D02*
X147980000Y-83411000D01*
X148020000Y-79273000D02*
X148020000Y-80500000D01*
X148020000Y-82180000D02*
X148020000Y-83407000D01*
X148060000Y-79278000D02*
X148060000Y-80500000D01*
X148060000Y-82180000D02*
X148060000Y-83402000D01*
X148100000Y-79284000D02*
X148100000Y-80500000D01*
X148100000Y-82180000D02*
X148100000Y-83396000D01*
X148140000Y-79290000D02*
X148140000Y-80500000D01*
X148140000Y-82180000D02*
X148140000Y-83390000D01*
X148180000Y-79298000D02*
X148180000Y-80500000D01*
X148180000Y-82180000D02*
X148180000Y-83382000D01*
X148220000Y-79306000D02*
X148220000Y-80500000D01*
X148220000Y-82180000D02*
X148220000Y-83374000D01*
X148260000Y-79315000D02*
X148260000Y-80500000D01*
X148260000Y-82180000D02*
X148260000Y-83365000D01*
X148300000Y-79324000D02*
X148300000Y-80500000D01*
X148300000Y-82180000D02*
X148300000Y-83356000D01*
X148340000Y-79335000D02*
X148340000Y-80500000D01*
X148340000Y-82180000D02*
X148340000Y-83345000D01*
X148380000Y-79346000D02*
X148380000Y-80500000D01*
X148380000Y-82180000D02*
X148380000Y-83334000D01*
X148420000Y-79358000D02*
X148420000Y-80500000D01*
X148420000Y-82180000D02*
X148420000Y-83322000D01*
X148460000Y-79372000D02*
X148460000Y-80500000D01*
X148460000Y-82180000D02*
X148460000Y-83308000D01*
X148501000Y-79386000D02*
X148501000Y-80500000D01*
X148501000Y-82180000D02*
X148501000Y-83294000D01*
X148541000Y-79400000D02*
X148541000Y-80500000D01*
X148541000Y-82180000D02*
X148541000Y-83280000D01*
X148581000Y-79416000D02*
X148581000Y-80500000D01*
X148581000Y-82180000D02*
X148581000Y-83264000D01*
X148621000Y-79433000D02*
X148621000Y-80500000D01*
X148621000Y-82180000D02*
X148621000Y-83247000D01*
X148661000Y-79451000D02*
X148661000Y-80500000D01*
X148661000Y-82180000D02*
X148661000Y-83229000D01*
X148701000Y-79470000D02*
X148701000Y-80500000D01*
X148701000Y-82180000D02*
X148701000Y-83210000D01*
X148741000Y-79489000D02*
X148741000Y-80500000D01*
X148741000Y-82180000D02*
X148741000Y-83191000D01*
X148781000Y-79510000D02*
X148781000Y-80500000D01*
X148781000Y-82180000D02*
X148781000Y-83170000D01*
X148821000Y-79532000D02*
X148821000Y-80500000D01*
X148821000Y-82180000D02*
X148821000Y-83148000D01*
X148861000Y-79555000D02*
X148861000Y-80500000D01*
X148861000Y-82180000D02*
X148861000Y-83125000D01*
X148901000Y-79580000D02*
X148901000Y-80500000D01*
X148901000Y-82180000D02*
X148901000Y-83100000D01*
X148941000Y-79605000D02*
X148941000Y-80500000D01*
X148941000Y-82180000D02*
X148941000Y-83075000D01*
X148981000Y-79632000D02*
X148981000Y-80500000D01*
X148981000Y-82180000D02*
X148981000Y-83048000D01*
X149021000Y-79660000D02*
X149021000Y-80500000D01*
X149021000Y-82180000D02*
X149021000Y-83020000D01*
X149061000Y-79690000D02*
X149061000Y-80500000D01*
X149061000Y-82180000D02*
X149061000Y-82990000D01*
X149101000Y-79721000D02*
X149101000Y-80500000D01*
X149101000Y-82180000D02*
X149101000Y-82959000D01*
X149141000Y-79753000D02*
X149141000Y-80500000D01*
X149141000Y-82180000D02*
X149141000Y-82927000D01*
X149181000Y-79788000D02*
X149181000Y-80500000D01*
X149181000Y-82180000D02*
X149181000Y-82892000D01*
X149221000Y-79824000D02*
X149221000Y-80500000D01*
X149221000Y-82180000D02*
X149221000Y-82856000D01*
X149261000Y-79862000D02*
X149261000Y-80500000D01*
X149261000Y-82180000D02*
X149261000Y-82818000D01*
X149301000Y-79902000D02*
X149301000Y-80500000D01*
X149301000Y-82180000D02*
X149301000Y-82778000D01*
X149341000Y-79944000D02*
X149341000Y-80500000D01*
X149341000Y-82180000D02*
X149341000Y-82736000D01*
X149381000Y-79989000D02*
X149381000Y-82691000D01*
X149421000Y-80036000D02*
X149421000Y-82644000D01*
X149461000Y-80086000D02*
X149461000Y-82594000D01*
X149501000Y-80140000D02*
X149501000Y-82540000D01*
X149541000Y-80198000D02*
X149541000Y-82482000D01*
X149581000Y-80260000D02*
X149581000Y-82420000D01*
X149621000Y-80327000D02*
X149621000Y-82353000D01*
X149661000Y-80400000D02*
X149661000Y-82280000D01*
X149701000Y-80481000D02*
X149701000Y-82199000D01*
X149741000Y-80572000D02*
X149741000Y-82108000D01*
X149781000Y-80676000D02*
X149781000Y-82004000D01*
X149821000Y-80803000D02*
X149821000Y-81877000D01*
X149861000Y-80970000D02*
X149861000Y-81710000D01*
X145510199Y-80145000D02*
X145910199Y-80145000D01*
X145710199Y-79945000D02*
X145710199Y-80345000D01*
X160340000Y-54590000D02*
G75*
G03*
X160340000Y-54590000I-2120000J0D01*
G01*
X158220000Y-53750000D02*
X158220000Y-52510000D01*
X158220000Y-56670000D02*
X158220000Y-55430000D01*
X158180000Y-53750000D02*
X158180000Y-52510000D01*
X158180000Y-56670000D02*
X158180000Y-55430000D01*
X158140000Y-53750000D02*
X158140000Y-52511000D01*
X158140000Y-56669000D02*
X158140000Y-55430000D01*
X158100000Y-56667000D02*
X158100000Y-55430000D01*
X158100000Y-53750000D02*
X158100000Y-52513000D01*
X158060000Y-56664000D02*
X158060000Y-55430000D01*
X158060000Y-53750000D02*
X158060000Y-52516000D01*
X158020000Y-56661000D02*
X158020000Y-55430000D01*
X158020000Y-53750000D02*
X158020000Y-52519000D01*
X157980000Y-56657000D02*
X157980000Y-55430000D01*
X157980000Y-53750000D02*
X157980000Y-52523000D01*
X157940000Y-56652000D02*
X157940000Y-55430000D01*
X157940000Y-53750000D02*
X157940000Y-52528000D01*
X157900000Y-56646000D02*
X157900000Y-55430000D01*
X157900000Y-53750000D02*
X157900000Y-52534000D01*
X157860000Y-56640000D02*
X157860000Y-55430000D01*
X157860000Y-53750000D02*
X157860000Y-52540000D01*
X157820000Y-56632000D02*
X157820000Y-55430000D01*
X157820000Y-53750000D02*
X157820000Y-52548000D01*
X157780000Y-56624000D02*
X157780000Y-55430000D01*
X157780000Y-53750000D02*
X157780000Y-52556000D01*
X157740000Y-56615000D02*
X157740000Y-55430000D01*
X157740000Y-53750000D02*
X157740000Y-52565000D01*
X157700000Y-56606000D02*
X157700000Y-55430000D01*
X157700000Y-53750000D02*
X157700000Y-52574000D01*
X157660000Y-56595000D02*
X157660000Y-55430000D01*
X157660000Y-53750000D02*
X157660000Y-52585000D01*
X157620000Y-56584000D02*
X157620000Y-55430000D01*
X157620000Y-53750000D02*
X157620000Y-52596000D01*
X157580000Y-56572000D02*
X157580000Y-55430000D01*
X157580000Y-53750000D02*
X157580000Y-52608000D01*
X157540000Y-56558000D02*
X157540000Y-55430000D01*
X157540000Y-53750000D02*
X157540000Y-52622000D01*
X157499000Y-56544000D02*
X157499000Y-55430000D01*
X157499000Y-53750000D02*
X157499000Y-52636000D01*
X157459000Y-56530000D02*
X157459000Y-55430000D01*
X157459000Y-53750000D02*
X157459000Y-52650000D01*
X157419000Y-56514000D02*
X157419000Y-55430000D01*
X157419000Y-53750000D02*
X157419000Y-52666000D01*
X157379000Y-56497000D02*
X157379000Y-55430000D01*
X157379000Y-53750000D02*
X157379000Y-52683000D01*
X157339000Y-56479000D02*
X157339000Y-55430000D01*
X157339000Y-53750000D02*
X157339000Y-52701000D01*
X157299000Y-56460000D02*
X157299000Y-55430000D01*
X157299000Y-53750000D02*
X157299000Y-52720000D01*
X157259000Y-56441000D02*
X157259000Y-55430000D01*
X157259000Y-53750000D02*
X157259000Y-52739000D01*
X157219000Y-56420000D02*
X157219000Y-55430000D01*
X157219000Y-53750000D02*
X157219000Y-52760000D01*
X157179000Y-56398000D02*
X157179000Y-55430000D01*
X157179000Y-53750000D02*
X157179000Y-52782000D01*
X157139000Y-56375000D02*
X157139000Y-55430000D01*
X157139000Y-53750000D02*
X157139000Y-52805000D01*
X157099000Y-56350000D02*
X157099000Y-55430000D01*
X157099000Y-53750000D02*
X157099000Y-52830000D01*
X157059000Y-56325000D02*
X157059000Y-55430000D01*
X157059000Y-53750000D02*
X157059000Y-52855000D01*
X157019000Y-56298000D02*
X157019000Y-55430000D01*
X157019000Y-53750000D02*
X157019000Y-52882000D01*
X156979000Y-56270000D02*
X156979000Y-55430000D01*
X156979000Y-53750000D02*
X156979000Y-52910000D01*
X156939000Y-56240000D02*
X156939000Y-55430000D01*
X156939000Y-53750000D02*
X156939000Y-52940000D01*
X156899000Y-56209000D02*
X156899000Y-55430000D01*
X156899000Y-53750000D02*
X156899000Y-52971000D01*
X156859000Y-56177000D02*
X156859000Y-55430000D01*
X156859000Y-53750000D02*
X156859000Y-53003000D01*
X156819000Y-56142000D02*
X156819000Y-55430000D01*
X156819000Y-53750000D02*
X156819000Y-53038000D01*
X156779000Y-56106000D02*
X156779000Y-55430000D01*
X156779000Y-53750000D02*
X156779000Y-53074000D01*
X156739000Y-56068000D02*
X156739000Y-55430000D01*
X156739000Y-53750000D02*
X156739000Y-53112000D01*
X156699000Y-56028000D02*
X156699000Y-55430000D01*
X156699000Y-53750000D02*
X156699000Y-53152000D01*
X156659000Y-55986000D02*
X156659000Y-55430000D01*
X156659000Y-53750000D02*
X156659000Y-53194000D01*
X156619000Y-55941000D02*
X156619000Y-53239000D01*
X156579000Y-55894000D02*
X156579000Y-53286000D01*
X156539000Y-55844000D02*
X156539000Y-53336000D01*
X156499000Y-55790000D02*
X156499000Y-53390000D01*
X156459000Y-55732000D02*
X156459000Y-53448000D01*
X156419000Y-55670000D02*
X156419000Y-53510000D01*
X156379000Y-55603000D02*
X156379000Y-53577000D01*
X156339000Y-55530000D02*
X156339000Y-53650000D01*
X156299000Y-55449000D02*
X156299000Y-53731000D01*
X156259000Y-55358000D02*
X156259000Y-53822000D01*
X156219000Y-55254000D02*
X156219000Y-53926000D01*
X156179000Y-55127000D02*
X156179000Y-54053000D01*
X156139000Y-54960000D02*
X156139000Y-54220000D01*
X160489801Y-55785000D02*
X160089801Y-55785000D01*
X160289801Y-55985000D02*
X160289801Y-55585000D01*
X148510000Y-87270000D02*
G75*
G03*
X148510000Y-87270000I-2120000J0D01*
G01*
D11*
X139612899Y-90940000D02*
G75*
G03*
X139612899Y-90940000I-381000J0D01*
G01*
X161347826Y-90565104D02*
X161132172Y-90565104D01*
X162132169Y-95314904D02*
X165470099Y-95314904D01*
X159347825Y-90565104D02*
X159132173Y-90565104D01*
X160132170Y-95314904D02*
X160347829Y-95314904D01*
X157347826Y-90565104D02*
X157132172Y-90565104D01*
X158132169Y-95314904D02*
X158347830Y-95314904D01*
X155347825Y-90565104D02*
X155132173Y-90565104D01*
X156132171Y-95314904D02*
X156347829Y-95314904D01*
X153347827Y-90565104D02*
X153132172Y-90565104D01*
X154132170Y-95314904D02*
X154347830Y-95314904D01*
X151347826Y-90565104D02*
X151132174Y-90565104D01*
X152132169Y-95314904D02*
X152347829Y-95314904D01*
X149347827Y-90565104D02*
X149132173Y-90565104D01*
X150132170Y-95314904D02*
X150347828Y-95314904D01*
X147347826Y-90565104D02*
X147132172Y-90565104D01*
X148132169Y-95314904D02*
X148347830Y-95314904D01*
X145347825Y-90565104D02*
X145132173Y-90565104D01*
X146132170Y-95314904D02*
X146347829Y-95314904D01*
X143347826Y-90565104D02*
X141009899Y-90565104D01*
X141009899Y-90565104D02*
X141009899Y-95314904D01*
X165470099Y-90565104D02*
X163132173Y-90565104D01*
X165470099Y-95314904D02*
X165470099Y-90565104D01*
X141009899Y-95314904D02*
X144347830Y-95314904D01*
D10*
X129270000Y-89540000D02*
X129270000Y-92390000D01*
X132120000Y-89540000D02*
X129270000Y-89540000D01*
X134130000Y-101000000D02*
X132320000Y-101000000D01*
X134130000Y-99600000D02*
X134130000Y-101000000D01*
X135130000Y-99600000D02*
X134130000Y-99600000D01*
X135130000Y-89780000D02*
X135130000Y-99600000D01*
X132320000Y-89780000D02*
X135130000Y-89780000D01*
X130510000Y-101000000D02*
X132320000Y-101000000D01*
X130510000Y-99600000D02*
X130510000Y-101000000D01*
X129510000Y-99600000D02*
X130510000Y-99600000D01*
X129510000Y-89780000D02*
X129510000Y-99600000D01*
X132320000Y-89780000D02*
X129510000Y-89780000D01*
X147060000Y-59375000D02*
X147060000Y-50265000D01*
X147060000Y-50265000D02*
X137240000Y-50265000D01*
X137240000Y-50265000D02*
X137240000Y-57565000D01*
X137240000Y-57565000D02*
X135840000Y-57565000D01*
X135840000Y-57565000D02*
X135840000Y-59375000D01*
X147060000Y-59375000D02*
X147060000Y-68485000D01*
X147060000Y-68485000D02*
X137240000Y-68485000D01*
X137240000Y-68485000D02*
X137240000Y-61185000D01*
X137240000Y-61185000D02*
X135840000Y-61185000D01*
X135840000Y-61185000D02*
X135840000Y-59375000D01*
X147300000Y-52875000D02*
X147300000Y-50025000D01*
X147300000Y-50025000D02*
X144450000Y-50025000D01*
X154160000Y-107299000D02*
X155670000Y-107299000D01*
X154160000Y-111000000D02*
X155670000Y-111000000D01*
X155670000Y-114270000D02*
X155670000Y-104030000D01*
X154160000Y-104030000D02*
X158801000Y-104030000D01*
X154160000Y-114270000D02*
X158801000Y-114270000D01*
X158801000Y-114270000D02*
X158801000Y-104030000D01*
X154160000Y-114270000D02*
X154160000Y-104030000D01*
X167190000Y-60591000D02*
X165680000Y-60591000D01*
X167190000Y-56890000D02*
X165680000Y-56890000D01*
X165680000Y-53620000D02*
X165680000Y-63860000D01*
X167190000Y-63860000D02*
X162549000Y-63860000D01*
X167190000Y-53620000D02*
X162549000Y-53620000D01*
X162549000Y-53620000D02*
X162549000Y-63860000D01*
X167190000Y-53620000D02*
X167190000Y-63860000D01*
X167260000Y-72501000D02*
X165750000Y-72501000D01*
X167260000Y-68800000D02*
X165750000Y-68800000D01*
X165750000Y-65530000D02*
X165750000Y-75770000D01*
X167260000Y-75770000D02*
X162619000Y-75770000D01*
X167260000Y-65530000D02*
X162619000Y-65530000D01*
X162619000Y-65530000D02*
X162619000Y-75770000D01*
X167260000Y-65530000D02*
X167260000Y-75770000D01*
X144520000Y-116141000D02*
X143010000Y-116141000D01*
X144520000Y-112440000D02*
X143010000Y-112440000D01*
X143010000Y-109170000D02*
X143010000Y-119410000D01*
X144520000Y-119410000D02*
X139879000Y-119410000D01*
X144520000Y-109170000D02*
X139879000Y-109170000D01*
X139879000Y-109170000D02*
X139879000Y-119410000D01*
X144520000Y-109170000D02*
X144520000Y-119410000D01*
X136630000Y-123441000D02*
X135120000Y-123441000D01*
X136630000Y-119740000D02*
X135120000Y-119740000D01*
X135120000Y-116470000D02*
X135120000Y-126710000D01*
X136630000Y-126710000D02*
X131989000Y-126710000D01*
X136630000Y-116470000D02*
X131989000Y-116470000D01*
X131989000Y-116470000D02*
X131989000Y-126710000D01*
X136630000Y-116470000D02*
X136630000Y-126710000D01*
X228990000Y-80300000D02*
X231800000Y-80300000D01*
X231800000Y-80300000D02*
X231800000Y-70480000D01*
X231800000Y-70480000D02*
X230800000Y-70480000D01*
X230800000Y-70480000D02*
X230800000Y-69080000D01*
X230800000Y-69080000D02*
X228990000Y-69080000D01*
X228990000Y-80300000D02*
X226180000Y-80300000D01*
X226180000Y-80300000D02*
X226180000Y-70480000D01*
X226180000Y-70480000D02*
X227180000Y-70480000D01*
X227180000Y-70480000D02*
X227180000Y-69080000D01*
X227180000Y-69080000D02*
X228990000Y-69080000D01*
X229190000Y-80540000D02*
X232040000Y-80540000D01*
X232040000Y-80540000D02*
X232040000Y-77690000D01*
D12*
X145411904Y-136182142D02*
X145364285Y-136229761D01*
X145221428Y-136277380D01*
X145126190Y-136277380D01*
X144983333Y-136229761D01*
X144888095Y-136134523D01*
X144840476Y-136039285D01*
X144792857Y-135848809D01*
X144792857Y-135705952D01*
X144840476Y-135515476D01*
X144888095Y-135420238D01*
X144983333Y-135325000D01*
X145126190Y-135277380D01*
X145221428Y-135277380D01*
X145364285Y-135325000D01*
X145411904Y-135372619D01*
X146030952Y-135277380D02*
X146221428Y-135277380D01*
X146316666Y-135325000D01*
X146411904Y-135420238D01*
X146459523Y-135610714D01*
X146459523Y-135944047D01*
X146411904Y-136134523D01*
X146316666Y-136229761D01*
X146221428Y-136277380D01*
X146030952Y-136277380D01*
X145935714Y-136229761D01*
X145840476Y-136134523D01*
X145792857Y-135944047D01*
X145792857Y-135610714D01*
X145840476Y-135420238D01*
X145935714Y-135325000D01*
X146030952Y-135277380D01*
X146888095Y-136277380D02*
X146888095Y-135277380D01*
X147459523Y-136277380D01*
X147459523Y-135277380D01*
X147935714Y-136277380D02*
X147935714Y-135277380D01*
X148507142Y-136277380D01*
X148507142Y-135277380D01*
X149459523Y-135277380D02*
X148983333Y-135277380D01*
X148935714Y-135753571D01*
X148983333Y-135705952D01*
X149078571Y-135658333D01*
X149316666Y-135658333D01*
X149411904Y-135705952D01*
X149459523Y-135753571D01*
X149507142Y-135848809D01*
X149507142Y-136086904D01*
X149459523Y-136182142D01*
X149411904Y-136229761D01*
X149316666Y-136277380D01*
X149078571Y-136277380D01*
X148983333Y-136229761D01*
X148935714Y-136182142D01*
X131071904Y-77427142D02*
X131024285Y-77474761D01*
X130881428Y-77522380D01*
X130786190Y-77522380D01*
X130643333Y-77474761D01*
X130548095Y-77379523D01*
X130500476Y-77284285D01*
X130452857Y-77093809D01*
X130452857Y-76950952D01*
X130500476Y-76760476D01*
X130548095Y-76665238D01*
X130643333Y-76570000D01*
X130786190Y-76522380D01*
X130881428Y-76522380D01*
X131024285Y-76570000D01*
X131071904Y-76617619D01*
X131690952Y-76522380D02*
X131881428Y-76522380D01*
X131976666Y-76570000D01*
X132071904Y-76665238D01*
X132119523Y-76855714D01*
X132119523Y-77189047D01*
X132071904Y-77379523D01*
X131976666Y-77474761D01*
X131881428Y-77522380D01*
X131690952Y-77522380D01*
X131595714Y-77474761D01*
X131500476Y-77379523D01*
X131452857Y-77189047D01*
X131452857Y-76855714D01*
X131500476Y-76665238D01*
X131595714Y-76570000D01*
X131690952Y-76522380D01*
X132548095Y-77522380D02*
X132548095Y-76522380D01*
X133119523Y-77522380D01*
X133119523Y-76522380D01*
X133595714Y-77522380D02*
X133595714Y-76522380D01*
X134167142Y-77522380D01*
X134167142Y-76522380D01*
X135071904Y-76855714D02*
X135071904Y-77522380D01*
X134833809Y-76474761D02*
X134595714Y-77189047D01*
X135214761Y-77189047D01*
X162027619Y-106805238D02*
X161980000Y-106900476D01*
X161884761Y-106995714D01*
X161741904Y-107138571D01*
X161694285Y-107233809D01*
X161694285Y-107329047D01*
X161932380Y-107281428D02*
X161884761Y-107376666D01*
X161789523Y-107471904D01*
X161599047Y-107519523D01*
X161265714Y-107519523D01*
X161075238Y-107471904D01*
X160980000Y-107376666D01*
X160932380Y-107281428D01*
X160932380Y-107090952D01*
X160980000Y-106995714D01*
X161075238Y-106900476D01*
X161265714Y-106852857D01*
X161599047Y-106852857D01*
X161789523Y-106900476D01*
X161884761Y-106995714D01*
X161932380Y-107090952D01*
X161932380Y-107281428D01*
X161265714Y-105995714D02*
X161932380Y-105995714D01*
X160884761Y-106233809D02*
X161599047Y-106471904D01*
X161599047Y-105852857D01*
X196014495Y-101021280D02*
X196014495Y-101830804D01*
X196062114Y-101926042D01*
X196109733Y-101973661D01*
X196204971Y-102021280D01*
X196395447Y-102021280D01*
X196490685Y-101973661D01*
X196538304Y-101926042D01*
X196585923Y-101830804D01*
X196585923Y-101021280D01*
X197585923Y-102021280D02*
X197014495Y-102021280D01*
X197300209Y-102021280D02*
X197300209Y-101021280D01*
X197204971Y-101164138D01*
X197109733Y-101259376D01*
X197014495Y-101306995D01*
X221312380Y-102263333D02*
X222026666Y-102263333D01*
X222169523Y-102310952D01*
X222264761Y-102406190D01*
X222312380Y-102549047D01*
X222312380Y-102644285D01*
X222312380Y-101263333D02*
X222312380Y-101834761D01*
X222312380Y-101549047D02*
X221312380Y-101549047D01*
X221455238Y-101644285D01*
X221550476Y-101739523D01*
X221598095Y-101834761D01*
X164367142Y-87962380D02*
X164033809Y-87486190D01*
X163795714Y-87962380D02*
X163795714Y-86962380D01*
X164176666Y-86962380D01*
X164271904Y-87010000D01*
X164319523Y-87057619D01*
X164367142Y-87152857D01*
X164367142Y-87295714D01*
X164319523Y-87390952D01*
X164271904Y-87438571D01*
X164176666Y-87486190D01*
X163795714Y-87486190D01*
X165319523Y-87962380D02*
X164748095Y-87962380D01*
X165033809Y-87962380D02*
X165033809Y-86962380D01*
X164938571Y-87105238D01*
X164843333Y-87200476D01*
X164748095Y-87248095D01*
X165652857Y-86962380D02*
X166271904Y-86962380D01*
X165938571Y-87343333D01*
X166081428Y-87343333D01*
X166176666Y-87390952D01*
X166224285Y-87438571D01*
X166271904Y-87533809D01*
X166271904Y-87771904D01*
X166224285Y-87867142D01*
X166176666Y-87914761D01*
X166081428Y-87962380D01*
X165795714Y-87962380D01*
X165700476Y-87914761D01*
X165652857Y-87867142D01*
X154297142Y-90062380D02*
X153963809Y-89586190D01*
X153725714Y-90062380D02*
X153725714Y-89062380D01*
X154106666Y-89062380D01*
X154201904Y-89110000D01*
X154249523Y-89157619D01*
X154297142Y-89252857D01*
X154297142Y-89395714D01*
X154249523Y-89490952D01*
X154201904Y-89538571D01*
X154106666Y-89586190D01*
X153725714Y-89586190D01*
X155249523Y-90062380D02*
X154678095Y-90062380D01*
X154963809Y-90062380D02*
X154963809Y-89062380D01*
X154868571Y-89205238D01*
X154773333Y-89300476D01*
X154678095Y-89348095D01*
X155630476Y-89157619D02*
X155678095Y-89110000D01*
X155773333Y-89062380D01*
X156011428Y-89062380D01*
X156106666Y-89110000D01*
X156154285Y-89157619D01*
X156201904Y-89252857D01*
X156201904Y-89348095D01*
X156154285Y-89490952D01*
X155582857Y-90062380D01*
X156201904Y-90062380D01*
X156552380Y-73602857D02*
X156076190Y-73936190D01*
X156552380Y-74174285D02*
X155552380Y-74174285D01*
X155552380Y-73793333D01*
X155600000Y-73698095D01*
X155647619Y-73650476D01*
X155742857Y-73602857D01*
X155885714Y-73602857D01*
X155980952Y-73650476D01*
X156028571Y-73698095D01*
X156076190Y-73793333D01*
X156076190Y-74174285D01*
X156552380Y-72650476D02*
X156552380Y-73221904D01*
X156552380Y-72936190D02*
X155552380Y-72936190D01*
X155695238Y-73031428D01*
X155790476Y-73126666D01*
X155838095Y-73221904D01*
X155552380Y-72031428D02*
X155552380Y-71936190D01*
X155600000Y-71840952D01*
X155647619Y-71793333D01*
X155742857Y-71745714D01*
X155933333Y-71698095D01*
X156171428Y-71698095D01*
X156361904Y-71745714D01*
X156457142Y-71793333D01*
X156504761Y-71840952D01*
X156552380Y-71936190D01*
X156552380Y-72031428D01*
X156504761Y-72126666D01*
X156457142Y-72174285D01*
X156361904Y-72221904D01*
X156171428Y-72269523D01*
X155933333Y-72269523D01*
X155742857Y-72221904D01*
X155647619Y-72174285D01*
X155600000Y-72126666D01*
X155552380Y-72031428D01*
X153943333Y-119522380D02*
X153610000Y-119046190D01*
X153371904Y-119522380D02*
X153371904Y-118522380D01*
X153752857Y-118522380D01*
X153848095Y-118570000D01*
X153895714Y-118617619D01*
X153943333Y-118712857D01*
X153943333Y-118855714D01*
X153895714Y-118950952D01*
X153848095Y-118998571D01*
X153752857Y-119046190D01*
X153371904Y-119046190D01*
X154514761Y-118950952D02*
X154419523Y-118903333D01*
X154371904Y-118855714D01*
X154324285Y-118760476D01*
X154324285Y-118712857D01*
X154371904Y-118617619D01*
X154419523Y-118570000D01*
X154514761Y-118522380D01*
X154705238Y-118522380D01*
X154800476Y-118570000D01*
X154848095Y-118617619D01*
X154895714Y-118712857D01*
X154895714Y-118760476D01*
X154848095Y-118855714D01*
X154800476Y-118903333D01*
X154705238Y-118950952D01*
X154514761Y-118950952D01*
X154419523Y-118998571D01*
X154371904Y-119046190D01*
X154324285Y-119141428D01*
X154324285Y-119331904D01*
X154371904Y-119427142D01*
X154419523Y-119474761D01*
X154514761Y-119522380D01*
X154705238Y-119522380D01*
X154800476Y-119474761D01*
X154848095Y-119427142D01*
X154895714Y-119331904D01*
X154895714Y-119141428D01*
X154848095Y-119046190D01*
X154800476Y-118998571D01*
X154705238Y-118950952D01*
X149532380Y-69456666D02*
X149056190Y-69790000D01*
X149532380Y-70028095D02*
X148532380Y-70028095D01*
X148532380Y-69647142D01*
X148580000Y-69551904D01*
X148627619Y-69504285D01*
X148722857Y-69456666D01*
X148865714Y-69456666D01*
X148960952Y-69504285D01*
X149008571Y-69551904D01*
X149056190Y-69647142D01*
X149056190Y-70028095D01*
X148532380Y-68551904D02*
X148532380Y-69028095D01*
X149008571Y-69075714D01*
X148960952Y-69028095D01*
X148913333Y-68932857D01*
X148913333Y-68694761D01*
X148960952Y-68599523D01*
X149008571Y-68551904D01*
X149103809Y-68504285D01*
X149341904Y-68504285D01*
X149437142Y-68551904D01*
X149484761Y-68599523D01*
X149532380Y-68694761D01*
X149532380Y-68932857D01*
X149484761Y-69028095D01*
X149437142Y-69075714D01*
X154102380Y-55426666D02*
X153626190Y-55760000D01*
X154102380Y-55998095D02*
X153102380Y-55998095D01*
X153102380Y-55617142D01*
X153150000Y-55521904D01*
X153197619Y-55474285D01*
X153292857Y-55426666D01*
X153435714Y-55426666D01*
X153530952Y-55474285D01*
X153578571Y-55521904D01*
X153626190Y-55617142D01*
X153626190Y-55998095D01*
X153197619Y-55045714D02*
X153150000Y-54998095D01*
X153102380Y-54902857D01*
X153102380Y-54664761D01*
X153150000Y-54569523D01*
X153197619Y-54521904D01*
X153292857Y-54474285D01*
X153388095Y-54474285D01*
X153530952Y-54521904D01*
X154102380Y-55093333D01*
X154102380Y-54474285D01*
X171152380Y-63226666D02*
X170676190Y-63560000D01*
X171152380Y-63798095D02*
X170152380Y-63798095D01*
X170152380Y-63417142D01*
X170200000Y-63321904D01*
X170247619Y-63274285D01*
X170342857Y-63226666D01*
X170485714Y-63226666D01*
X170580952Y-63274285D01*
X170628571Y-63321904D01*
X170676190Y-63417142D01*
X170676190Y-63798095D01*
X171152380Y-62274285D02*
X171152380Y-62845714D01*
X171152380Y-62560000D02*
X170152380Y-62560000D01*
X170295238Y-62655238D01*
X170390476Y-62750476D01*
X170438095Y-62845714D01*
X130863333Y-66637142D02*
X130815714Y-66684761D01*
X130672857Y-66732380D01*
X130577619Y-66732380D01*
X130434761Y-66684761D01*
X130339523Y-66589523D01*
X130291904Y-66494285D01*
X130244285Y-66303809D01*
X130244285Y-66160952D01*
X130291904Y-65970476D01*
X130339523Y-65875238D01*
X130434761Y-65780000D01*
X130577619Y-65732380D01*
X130672857Y-65732380D01*
X130815714Y-65780000D01*
X130863333Y-65827619D01*
X131768095Y-65732380D02*
X131291904Y-65732380D01*
X131244285Y-66208571D01*
X131291904Y-66160952D01*
X131387142Y-66113333D01*
X131625238Y-66113333D01*
X131720476Y-66160952D01*
X131768095Y-66208571D01*
X131815714Y-66303809D01*
X131815714Y-66541904D01*
X131768095Y-66637142D01*
X131720476Y-66684761D01*
X131625238Y-66732380D01*
X131387142Y-66732380D01*
X131291904Y-66684761D01*
X131244285Y-66637142D01*
X157853333Y-79037142D02*
X157805714Y-79084761D01*
X157662857Y-79132380D01*
X157567619Y-79132380D01*
X157424761Y-79084761D01*
X157329523Y-78989523D01*
X157281904Y-78894285D01*
X157234285Y-78703809D01*
X157234285Y-78560952D01*
X157281904Y-78370476D01*
X157329523Y-78275238D01*
X157424761Y-78180000D01*
X157567619Y-78132380D01*
X157662857Y-78132380D01*
X157805714Y-78180000D01*
X157853333Y-78227619D01*
X158710476Y-78465714D02*
X158710476Y-79132380D01*
X158472380Y-78084761D02*
X158234285Y-78799047D01*
X158853333Y-78799047D01*
X147613333Y-78447142D02*
X147565714Y-78494761D01*
X147422857Y-78542380D01*
X147327619Y-78542380D01*
X147184761Y-78494761D01*
X147089523Y-78399523D01*
X147041904Y-78304285D01*
X146994285Y-78113809D01*
X146994285Y-77970952D01*
X147041904Y-77780476D01*
X147089523Y-77685238D01*
X147184761Y-77590000D01*
X147327619Y-77542380D01*
X147422857Y-77542380D01*
X147565714Y-77590000D01*
X147613333Y-77637619D01*
X147946666Y-77542380D02*
X148565714Y-77542380D01*
X148232380Y-77923333D01*
X148375238Y-77923333D01*
X148470476Y-77970952D01*
X148518095Y-78018571D01*
X148565714Y-78113809D01*
X148565714Y-78351904D01*
X148518095Y-78447142D01*
X148470476Y-78494761D01*
X148375238Y-78542380D01*
X148089523Y-78542380D01*
X147994285Y-78494761D01*
X147946666Y-78447142D01*
X158053333Y-58197142D02*
X158005714Y-58244761D01*
X157862857Y-58292380D01*
X157767619Y-58292380D01*
X157624761Y-58244761D01*
X157529523Y-58149523D01*
X157481904Y-58054285D01*
X157434285Y-57863809D01*
X157434285Y-57720952D01*
X157481904Y-57530476D01*
X157529523Y-57435238D01*
X157624761Y-57340000D01*
X157767619Y-57292380D01*
X157862857Y-57292380D01*
X158005714Y-57340000D01*
X158053333Y-57387619D01*
X158434285Y-57387619D02*
X158481904Y-57340000D01*
X158577142Y-57292380D01*
X158815238Y-57292380D01*
X158910476Y-57340000D01*
X158958095Y-57387619D01*
X159005714Y-57482857D01*
X159005714Y-57578095D01*
X158958095Y-57720952D01*
X158386666Y-58292380D01*
X159005714Y-58292380D01*
X146223333Y-90877142D02*
X146175714Y-90924761D01*
X146032857Y-90972380D01*
X145937619Y-90972380D01*
X145794761Y-90924761D01*
X145699523Y-90829523D01*
X145651904Y-90734285D01*
X145604285Y-90543809D01*
X145604285Y-90400952D01*
X145651904Y-90210476D01*
X145699523Y-90115238D01*
X145794761Y-90020000D01*
X145937619Y-89972380D01*
X146032857Y-89972380D01*
X146175714Y-90020000D01*
X146223333Y-90067619D01*
X147175714Y-90972380D02*
X146604285Y-90972380D01*
X146890000Y-90972380D02*
X146890000Y-89972380D01*
X146794761Y-90115238D01*
X146699523Y-90210476D01*
X146604285Y-90258095D01*
X152478094Y-94392380D02*
X152478094Y-95201904D01*
X152525713Y-95297142D01*
X152573332Y-95344761D01*
X152668570Y-95392380D01*
X152859046Y-95392380D01*
X152954284Y-95344761D01*
X153001903Y-95297142D01*
X153049522Y-95201904D01*
X153049522Y-94392380D01*
X154001903Y-94392380D02*
X153525713Y-94392380D01*
X153478094Y-94868571D01*
X153525713Y-94820952D01*
X153620951Y-94773333D01*
X153859046Y-94773333D01*
X153954284Y-94820952D01*
X154001903Y-94868571D01*
X154049522Y-94963809D01*
X154049522Y-95201904D01*
X154001903Y-95297142D01*
X153954284Y-95344761D01*
X153859046Y-95392380D01*
X153620951Y-95392380D01*
X153525713Y-95344761D01*
X153478094Y-95297142D01*
X144240000Y-90392380D02*
X144240000Y-90630476D01*
X144001904Y-90535238D02*
X144240000Y-90630476D01*
X144478095Y-90535238D01*
X144097142Y-90820952D02*
X144240000Y-90630476D01*
X144382857Y-90820952D01*
X130581904Y-89047142D02*
X130534285Y-89094761D01*
X130391428Y-89142380D01*
X130296190Y-89142380D01*
X130153333Y-89094761D01*
X130058095Y-88999523D01*
X130010476Y-88904285D01*
X129962857Y-88713809D01*
X129962857Y-88570952D01*
X130010476Y-88380476D01*
X130058095Y-88285238D01*
X130153333Y-88190000D01*
X130296190Y-88142380D01*
X130391428Y-88142380D01*
X130534285Y-88190000D01*
X130581904Y-88237619D01*
X131200952Y-88142380D02*
X131391428Y-88142380D01*
X131486666Y-88190000D01*
X131581904Y-88285238D01*
X131629523Y-88475714D01*
X131629523Y-88809047D01*
X131581904Y-88999523D01*
X131486666Y-89094761D01*
X131391428Y-89142380D01*
X131200952Y-89142380D01*
X131105714Y-89094761D01*
X131010476Y-88999523D01*
X130962857Y-88809047D01*
X130962857Y-88475714D01*
X131010476Y-88285238D01*
X131105714Y-88190000D01*
X131200952Y-88142380D01*
X132058095Y-89142380D02*
X132058095Y-88142380D01*
X132629523Y-89142380D01*
X132629523Y-88142380D01*
X133105714Y-89142380D02*
X133105714Y-88142380D01*
X133677142Y-89142380D01*
X133677142Y-88142380D01*
X134058095Y-88142380D02*
X134724761Y-88142380D01*
X134296190Y-89142380D01*
X153707619Y-109245238D02*
X153660000Y-109340476D01*
X153564761Y-109435714D01*
X153421904Y-109578571D01*
X153374285Y-109673809D01*
X153374285Y-109769047D01*
X153612380Y-109721428D02*
X153564761Y-109816666D01*
X153469523Y-109911904D01*
X153279047Y-109959523D01*
X152945714Y-109959523D01*
X152755238Y-109911904D01*
X152660000Y-109816666D01*
X152612380Y-109721428D01*
X152612380Y-109530952D01*
X152660000Y-109435714D01*
X152755238Y-109340476D01*
X152945714Y-109292857D01*
X153279047Y-109292857D01*
X153469523Y-109340476D01*
X153564761Y-109435714D01*
X153612380Y-109530952D01*
X153612380Y-109721428D01*
X152612380Y-108959523D02*
X152612380Y-108340476D01*
X152993333Y-108673809D01*
X152993333Y-108530952D01*
X153040952Y-108435714D01*
X153088571Y-108388095D01*
X153183809Y-108340476D01*
X153421904Y-108340476D01*
X153517142Y-108388095D01*
X153564761Y-108435714D01*
X153612380Y-108530952D01*
X153612380Y-108816666D01*
X153564761Y-108911904D01*
X153517142Y-108959523D01*
X168737619Y-58835238D02*
X168690000Y-58930476D01*
X168594761Y-59025714D01*
X168451904Y-59168571D01*
X168404285Y-59263809D01*
X168404285Y-59359047D01*
X168642380Y-59311428D02*
X168594761Y-59406666D01*
X168499523Y-59501904D01*
X168309047Y-59549523D01*
X167975714Y-59549523D01*
X167785238Y-59501904D01*
X167690000Y-59406666D01*
X167642380Y-59311428D01*
X167642380Y-59120952D01*
X167690000Y-59025714D01*
X167785238Y-58930476D01*
X167975714Y-58882857D01*
X168309047Y-58882857D01*
X168499523Y-58930476D01*
X168594761Y-59025714D01*
X168642380Y-59120952D01*
X168642380Y-59311428D01*
X168642380Y-57930476D02*
X168642380Y-58501904D01*
X168642380Y-58216190D02*
X167642380Y-58216190D01*
X167785238Y-58311428D01*
X167880476Y-58406666D01*
X167928095Y-58501904D01*
X168807619Y-70745238D02*
X168760000Y-70840476D01*
X168664761Y-70935714D01*
X168521904Y-71078571D01*
X168474285Y-71173809D01*
X168474285Y-71269047D01*
X168712380Y-71221428D02*
X168664761Y-71316666D01*
X168569523Y-71411904D01*
X168379047Y-71459523D01*
X168045714Y-71459523D01*
X167855238Y-71411904D01*
X167760000Y-71316666D01*
X167712380Y-71221428D01*
X167712380Y-71030952D01*
X167760000Y-70935714D01*
X167855238Y-70840476D01*
X168045714Y-70792857D01*
X168379047Y-70792857D01*
X168569523Y-70840476D01*
X168664761Y-70935714D01*
X168712380Y-71030952D01*
X168712380Y-71221428D01*
X167807619Y-70411904D02*
X167760000Y-70364285D01*
X167712380Y-70269047D01*
X167712380Y-70030952D01*
X167760000Y-69935714D01*
X167807619Y-69888095D01*
X167902857Y-69840476D01*
X167998095Y-69840476D01*
X168140952Y-69888095D01*
X168712380Y-70459523D01*
X168712380Y-69840476D01*
X146067619Y-114385238D02*
X146020000Y-114480476D01*
X145924761Y-114575714D01*
X145781904Y-114718571D01*
X145734285Y-114813809D01*
X145734285Y-114909047D01*
X145972380Y-114861428D02*
X145924761Y-114956666D01*
X145829523Y-115051904D01*
X145639047Y-115099523D01*
X145305714Y-115099523D01*
X145115238Y-115051904D01*
X145020000Y-114956666D01*
X144972380Y-114861428D01*
X144972380Y-114670952D01*
X145020000Y-114575714D01*
X145115238Y-114480476D01*
X145305714Y-114432857D01*
X145639047Y-114432857D01*
X145829523Y-114480476D01*
X145924761Y-114575714D01*
X145972380Y-114670952D01*
X145972380Y-114861428D01*
X144972380Y-113528095D02*
X144972380Y-114004285D01*
X145448571Y-114051904D01*
X145400952Y-114004285D01*
X145353333Y-113909047D01*
X145353333Y-113670952D01*
X145400952Y-113575714D01*
X145448571Y-113528095D01*
X145543809Y-113480476D01*
X145781904Y-113480476D01*
X145877142Y-113528095D01*
X145924761Y-113575714D01*
X145972380Y-113670952D01*
X145972380Y-113909047D01*
X145924761Y-114004285D01*
X145877142Y-114051904D01*
X138177619Y-121685238D02*
X138130000Y-121780476D01*
X138034761Y-121875714D01*
X137891904Y-122018571D01*
X137844285Y-122113809D01*
X137844285Y-122209047D01*
X138082380Y-122161428D02*
X138034761Y-122256666D01*
X137939523Y-122351904D01*
X137749047Y-122399523D01*
X137415714Y-122399523D01*
X137225238Y-122351904D01*
X137130000Y-122256666D01*
X137082380Y-122161428D01*
X137082380Y-121970952D01*
X137130000Y-121875714D01*
X137225238Y-121780476D01*
X137415714Y-121732857D01*
X137749047Y-121732857D01*
X137939523Y-121780476D01*
X138034761Y-121875714D01*
X138082380Y-121970952D01*
X138082380Y-122161428D01*
X137082380Y-120875714D02*
X137082380Y-121066190D01*
X137130000Y-121161428D01*
X137177619Y-121209047D01*
X137320476Y-121304285D01*
X137510952Y-121351904D01*
X137891904Y-121351904D01*
X137987142Y-121304285D01*
X138034761Y-121256666D01*
X138082380Y-121161428D01*
X138082380Y-120970952D01*
X138034761Y-120875714D01*
X137987142Y-120828095D01*
X137891904Y-120780476D01*
X137653809Y-120780476D01*
X137558571Y-120828095D01*
X137510952Y-120875714D01*
X137463333Y-120970952D01*
X137463333Y-121161428D01*
X137510952Y-121256666D01*
X137558571Y-121304285D01*
X137653809Y-121351904D01*
M02*
